<svg width="192" height="96" viewBox="0 0 192 96" fill="none" xmlns="http://www.w3.org/2000/svg">
<path d="M63.8607 10.9502V84.6568C63.8607 90.4567 59.0228 95.2899 53.2172 95.2899H10.6435C4.83793 95.2899 0 90.4567 0 84.6568V10.9502C0 5.15035 4.83793 0.317139 10.6435 0.317139H53.2172C59.0228 0.317139 63.8607 4.90868 63.8607 10.9502Z" fill="#F9B233"/>
<path d="M63.6188 19.1667H0V24.9664H63.6188V19.1667Z" fill="#5E4A4C"/>
<path d="M16.9348 0.316895H13.0645V95.2897H16.9348V0.316895Z" fill="#5E4A4C"/>
<path d="M51.5246 0.316895H47.6543V88.0398H51.5246V0.316895Z" fill="#5E4A4C"/>
<path d="M181.419 95.0566H85.6282C80.7903 95.0566 76.9199 91.19 76.9199 86.3567V26.4248C76.9199 21.5916 80.7903 17.725 85.6282 17.725H181.419C186.257 17.725 190.127 21.5916 190.127 26.4248V86.3567C190.369 91.19 186.499 95.0566 181.419 95.0566Z" fill="black"/>
<path d="M145.622 12.6495C137.881 9.50794 129.173 9.50794 121.432 12.6495C119.981 13.1328 118.529 12.6495 117.804 11.4412C117.078 10.2329 117.804 8.5413 119.497 7.81632C128.447 4.19143 138.607 4.19143 147.557 7.81632C149.25 8.5413 149.976 10.2329 149.25 11.4412C148.525 12.6495 147.073 13.1328 145.622 12.6495Z" fill="black"/>
<path d="M120.703 17.4827H118.768V10.9577C118.768 10.4744 119.251 9.99109 119.735 9.99109C120.219 9.99109 120.703 10.4744 120.703 10.9577V17.4827Z" fill="#DADADA"/>
<path d="M148.523 17.4827H146.588V10.9577C146.588 10.4744 147.072 9.99109 147.555 9.99109C148.039 9.99109 148.523 10.4744 148.523 10.9577V17.4827Z" fill="#DADADA"/>
<path d="M89.0156 28.8411C89.0156 29.3244 88.5318 29.8077 88.048 29.8077H76.9207C76.4369 29.8077 75.9531 29.3244 75.9531 28.8411V25.2162C75.9531 20.6247 79.8235 16.7581 84.4195 16.7581H88.048C88.5318 16.7581 89.0156 17.2414 89.0156 17.7247V28.8411Z" fill="#DADADA"/>
<path d="M178.035 28.8411C178.035 29.3244 178.519 29.8077 179.003 29.8077H190.13C190.614 29.8077 191.098 29.3244 191.098 28.8411V25.2162C191.098 20.6247 187.227 16.7581 182.631 16.7581H179.003C178.519 16.7581 178.035 17.2414 178.035 17.7247V28.8411Z" fill="#DADADA"/>
<path d="M178.035 83.698C178.035 83.2146 178.519 82.7313 179.003 82.7313H190.13C190.614 82.7313 191.098 83.2146 191.098 83.698V87.3229C191.098 91.9144 187.227 95.781 182.631 95.781H179.003C178.519 95.781 178.035 95.2977 178.035 94.8144V83.698Z" fill="#DADADA"/>
<path d="M89.0156 83.698C89.0156 83.2146 88.5318 82.7313 88.048 82.7313H76.9207C76.4369 82.7313 75.9531 83.2146 75.9531 83.698V87.3229C75.9531 91.9144 79.8235 95.781 84.4195 95.781H88.048C88.5318 95.781 89.0156 95.2977 89.0156 94.8144V83.698Z" fill="#DADADA"/>
<path d="M94.0965 41.1572H71.3583V35.8406C71.3583 33.6656 69.665 31.974 67.4879 31.974H51.2809C49.1038 31.974 47.4105 33.6656 47.4105 35.8406V41.1572H24.6722C19.3505 41.1572 15.2383 45.2654 15.2383 50.582V85.6229C15.2383 90.9395 19.3505 95.0477 24.6722 95.0477H94.3384C99.6602 95.0477 103.772 90.9395 103.772 85.6229V50.582C103.531 45.5071 99.4183 41.1572 94.0965 41.1572ZM51.039 35.8406C51.039 35.5989 51.2809 35.5989 51.2809 35.5989H67.4879C67.7298 35.5989 67.7298 35.8406 67.7298 35.8406V41.1572H51.039V35.8406Z" fill="#EA4A49"/>
<path d="M39.6704 41.1575H31.9297V95.0478H39.6704V41.1575Z" fill="#FDFDFD"/>
<path d="M86.8403 41.1575H79.0996V95.0478H86.8403V41.1575Z" fill="#FDFDFD"/>
<path d="M40.8804 57.1073H30.7207V47.6825H40.8804V57.1073ZM33.1397 54.6907H38.4614V50.0991H33.1397V54.6907Z" fill="#231F20"/>
<path d="M88.0503 57.1073H77.8906V47.6825H88.0503V57.1073ZM80.3096 54.6907H85.6313V50.0991H80.3096V54.6907Z" fill="#231F20"/>
</svg>
