<svg width="269" height="127" viewBox="0 0 269 127" fill="none" xmlns="http://www.w3.org/2000/svg">
<path d="M4.53242 93.6449H14.6919C16.869 93.6449 18.5622 91.9533 18.5622 89.7784V48.6959C18.5622 46.521 16.869 44.8293 14.6919 44.8293H4.53242C2.35538 44.8293 0.662104 46.521 0.662104 48.6959V89.7784C0.42021 91.7116 2.35538 93.6449 4.53242 93.6449Z" fill="#AFA7BA"/>
<path d="M18.5635 79.8703H14.4512C13.2417 79.8703 12.0322 78.9037 12.0322 77.4537V60.5374C12.0322 59.3291 12.9998 58.1208 14.4512 58.1208H18.5635V79.8703Z" fill="#C1B9CD"/>
<path d="M253.685 68.9957C253.685 74.3122 256.829 78.6621 260.699 78.6621C264.57 78.6621 267.714 74.3122 267.714 68.9957C267.714 63.6791 264.57 59.3292 260.699 59.3292C256.829 59.3292 253.685 63.6791 253.685 68.9957Z" fill="#D8CFE6"/>
<path d="M264.813 58.3623H261.669V79.8701H264.813V58.3623Z" fill="#AFA7BA"/>
<path d="M14.9336 51.3543V103.553H262.152L261.668 59.3291C261.668 59.0875 261.668 58.6041 261.668 58.3625C261.184 55.2209 258.523 52.8043 255.379 52.5626L194.179 47.971H193.211L192.969 46.0377L186.438 11.4802C186.196 10.5135 185.954 9.78853 185.713 8.82188C183.777 3.98865 178.939 0.847046 173.618 0.847046H42.026C35.9786 0.847046 30.415 3.98865 27.0284 8.82188C26.0608 10.5135 25.0932 12.2051 24.6095 14.1384L15.6593 47.971L14.9336 51.3543Z" fill="#D0C7DD"/>
<path d="M133.947 12.4471H180.391C181.6 12.4471 182.568 13.4137 182.81 14.622L189.583 51.5962C189.583 51.8379 189.583 51.8379 189.583 52.0795V92.6786C189.583 94.1286 188.373 95.3369 186.922 95.3369H133.705C132.253 95.3369 131.044 94.1286 131.044 92.6786V15.1054C131.286 13.6554 132.495 12.4471 133.947 12.4471Z" fill="#AFA7BA"/>
<path d="M133.705 49.4212V15.1053C133.705 15.1053 133.705 14.8636 133.947 14.8636H180.391H180.633L186.922 49.1795H133.705V49.4212Z" fill="#DDD3EA"/>
<path d="M262.152 97.2701H14.9336V103.553H262.152V97.2701Z" fill="#AFA7BA"/>
<path d="M191.276 103.553C191.276 103.311 191.276 103.07 191.276 102.828C191.276 87.6032 203.613 75.0369 219.095 75.0369C234.334 75.0369 246.913 87.3616 246.913 102.828C246.913 103.07 246.913 103.311 246.913 103.553H191.276Z" fill="#A39BAD"/>
<path d="M32.834 103.553C32.834 103.311 32.834 103.07 32.834 102.828C32.834 87.6032 45.1707 75.0369 60.652 75.0369C76.1333 75.0369 88.47 87.3616 88.47 102.828C88.47 103.07 88.47 103.311 88.47 103.553H32.834Z" fill="#A39BAD"/>
<path d="M137.818 57.8793H145.075C146.042 57.8793 147.01 56.9126 147.01 55.946C147.01 54.7376 146.042 54.0126 145.075 54.0126H137.818C136.85 54.0126 135.883 54.9793 135.883 55.946C135.883 56.9126 136.85 57.8793 137.818 57.8793Z" fill="white"/>
<path d="M36.4625 67.7875H44.2032C46.6221 67.7875 48.5573 65.8543 48.5573 63.4376V59.8127C48.5573 57.3961 46.6221 55.4628 44.2032 55.4628H36.4625C34.0435 55.4628 32.1084 57.3961 32.1084 59.8127V63.4376C32.1084 65.8543 34.0435 67.7875 36.4625 67.7875Z" fill="#C4BCD0"/>
<path d="M194.18 47.9709C194.18 53.7708 198.776 58.1207 204.339 58.1207H261.669C261.185 54.9791 258.524 52.5625 255.38 52.3209L194.18 47.9709Z" fill="#AFA7BA"/>
<path d="M27.0293 8.82185H185.471C183.536 3.98864 178.698 0.847046 173.377 0.847046H41.785C35.9795 0.847046 30.4158 3.98864 27.0293 8.82185Z" fill="#AFA7BA"/>
<path d="M67.1834 51.3542L76.6173 14.6216C76.8592 13.1717 78.3106 12.205 79.5201 12.205H124.996C126.69 12.205 128.141 13.655 128.141 15.3466V91.9532C128.141 93.6448 126.69 95.0948 124.996 95.0948H94.0338C92.5824 95.0948 91.3729 94.1282 91.131 92.6782C89.1959 83.9784 79.2782 74.5536 69.8442 73.1037C68.3929 72.862 67.1834 71.6537 67.1834 69.9621V52.0791C66.9415 51.8375 66.9415 51.5958 67.1834 51.3542Z" fill="#AFA7BA"/>
<path d="M70.0869 49.4212L78.7953 15.3469C78.7953 15.1052 79.0372 14.8636 79.521 14.8636H124.998C125.481 14.8636 125.723 15.1053 125.723 15.5886V49.4212H70.0869Z" fill="#DDD3EA"/>
<path d="M72.2643 57.8793H79.5212C80.4887 57.8793 81.4563 56.9126 81.4563 55.946C81.4563 54.7376 80.4887 54.0126 79.5212 54.0126H72.2643C71.2967 54.0126 70.3291 54.9793 70.3291 55.946C70.3291 56.9126 71.2967 57.8793 72.2643 57.8793Z" fill="white"/>
<g opacity="0.75">
<path opacity="0.75" d="M151.364 15.8303L176.037 48.213H163.458L138.543 15.8303H151.364Z" fill="white"/>
<path opacity="0.75" d="M155.96 15.8301L180.633 48.2128H177.247L152.815 15.8301H155.96Z" fill="white"/>
</g>
<g opacity="0.75">
<path opacity="0.75" d="M94.2755 15.8303L118.949 48.213H106.37L81.4551 15.8303H94.2755Z" fill="white"/>
<path opacity="0.75" d="M99.112 15.8301L123.543 48.2128H120.399L95.7256 15.8301H99.112Z" fill="white"/>
</g>
<path d="M42.2686 15.8301C42.2686 16.5551 42.7524 17.0384 43.478 17.0384H57.992C58.7176 17.0384 59.2014 16.5551 59.2014 15.8301C59.2014 15.1051 58.7176 14.6218 57.992 14.6218H43.478C42.7524 14.6218 42.2686 15.1051 42.2686 15.8301Z" fill="#AFA7BA"/>
<path d="M41.3008 19.938C41.3008 20.663 41.7846 21.1463 42.5103 21.1463H57.0241C57.7498 21.1463 58.2336 20.663 58.2336 19.938C58.2336 19.2131 57.7498 18.7297 57.0241 18.7297H42.5103C41.7846 18.7297 41.3008 19.2131 41.3008 19.938Z" fill="#AFA7BA"/>
<path d="M40.334 24.047C40.334 24.772 40.8178 25.2553 41.5435 25.2553H56.0574C56.7831 25.2553 57.2669 24.772 57.2669 24.047C57.2669 23.3221 56.7831 22.8387 56.0574 22.8387H41.5435C40.8178 22.8387 40.334 23.3221 40.334 24.047Z" fill="#AFA7BA"/>
<path d="M39.3633 28.155C39.3633 28.8799 39.8471 29.3633 40.5728 29.3633H55.0866C55.8123 29.3633 56.2961 28.8799 56.2961 28.155C56.2961 27.43 55.8123 26.9467 55.0866 26.9467H40.5728C39.8471 26.9467 39.3633 27.43 39.3633 28.155Z" fill="#AFA7BA"/>
<path d="M38.3984 32.2632C38.3984 32.9882 38.8822 33.4715 39.6079 33.4715H54.1216C54.8473 33.4715 55.3311 32.9882 55.3311 32.2632C55.3311 31.5382 54.8473 31.0549 54.1216 31.0549H39.6079C38.8822 31.0549 38.3984 31.5382 38.3984 32.2632Z" fill="#AFA7BA"/>
<path d="M37.1885 36.3713C37.1885 37.0963 37.6723 37.5796 38.3979 37.5796H52.9114C53.6371 37.5796 54.1208 37.0963 54.1208 36.3713C54.1208 35.6463 53.6371 35.163 52.9114 35.163H38.3979C37.9141 35.163 37.1885 35.6463 37.1885 36.3713Z" fill="#AFA7BA"/>
<path d="M36.2197 40.4795C36.2197 41.2045 36.7035 41.6878 37.4292 41.6878H51.9432C52.6689 41.6878 53.1527 41.2045 53.1527 40.4795C53.1527 39.7546 52.6689 39.2712 51.9432 39.2712H37.4292C36.9454 39.2712 36.2197 39.7546 36.2197 40.4795Z" fill="#AFA7BA"/>
<path opacity="0.2" d="M262.152 93.1618V97.27V103.553H14.934V97.27V93.4034H14.6921H4.53247C2.3554 93.4034 0.662109 91.7118 0.662109 89.5369V74.0706L262.152 93.1618Z" fill="#8E8796"/>
<path d="M205.791 102.345C205.791 109.595 211.596 115.394 218.853 115.394C226.11 115.394 231.916 109.595 231.916 102.345C231.916 95.0948 226.11 89.295 218.853 89.295C211.838 89.0533 205.791 95.0948 205.791 102.345Z" fill="#9891A1"/>
<path d="M194.421 102.345C194.421 115.878 205.548 126.753 219.094 126.753C232.641 126.753 243.526 115.636 243.526 102.103C243.526 88.5702 232.399 77.6954 218.852 77.6954C205.548 77.6954 194.421 88.8118 194.421 102.345ZM203.855 102.345C203.855 93.8867 210.628 87.1202 218.852 87.1202C227.319 87.1202 234.092 93.8868 234.092 102.103C234.092 110.32 227.319 117.086 219.094 117.328C210.628 117.328 203.855 110.561 203.855 102.345Z" fill="#9891A1"/>
<path d="M201.678 102.345C201.678 112.012 209.418 119.745 219.094 119.745C228.77 119.745 236.511 112.012 236.511 102.345C236.511 92.6786 228.77 84.9454 219.094 84.9454C209.418 84.9454 201.678 92.6786 201.678 102.345ZM203.613 102.345C203.613 93.8869 210.628 86.8787 219.094 86.8787C227.561 86.8787 234.576 93.8869 234.576 102.345C234.576 110.803 227.561 117.811 219.094 117.811C210.386 117.811 203.613 110.803 203.613 102.345Z" fill="#E2D8F1"/>
<path d="M208.45 102.345C208.45 108.145 213.288 112.978 219.094 112.978C224.899 112.978 229.737 108.145 229.737 102.345C229.737 96.5449 224.899 91.7117 219.094 91.7117C213.046 91.7117 208.45 96.3032 208.45 102.345ZM212.32 102.345C212.32 98.7198 215.223 95.5782 219.094 95.5782C222.722 95.5782 225.867 98.4782 225.867 102.345C225.867 105.97 222.964 109.111 219.094 109.111C215.223 108.87 212.32 105.97 212.32 102.345Z" fill="#EADFF8"/>
<path d="M212.319 102.345C212.319 105.97 215.222 109.112 219.093 109.112C222.721 109.112 225.866 106.212 225.866 102.345C225.866 98.7202 222.963 95.5786 219.093 95.5786C215.222 95.5786 212.319 98.4785 212.319 102.345ZM216.432 99.6869C215.948 100.17 215.464 100.17 214.98 99.6869C214.496 99.2035 214.496 98.7202 214.98 98.2369C215.464 97.7536 215.948 97.7536 216.432 98.2369C216.915 98.7202 216.915 99.4452 216.432 99.6869ZM219.576 98.2369C219.576 98.4786 219.334 98.7202 219.093 98.7202C218.851 98.7202 218.609 98.4786 218.609 98.2369C218.609 97.9952 218.851 97.7536 219.093 97.7536C219.334 97.5119 219.576 97.7536 219.576 98.2369ZM222.963 99.6869C222.479 100.17 221.995 100.17 221.511 99.6869C221.028 99.2035 221.028 98.7202 221.511 98.2369C221.995 97.7536 222.479 97.7536 222.963 98.2369C223.205 98.7202 223.205 99.4452 222.963 99.6869ZM223.205 102.828C222.963 102.828 222.721 102.587 222.721 102.345C222.721 102.103 222.963 101.862 223.205 101.862C223.446 101.862 223.688 102.103 223.688 102.345C223.688 102.587 223.446 102.828 223.205 102.828ZM221.511 104.762C221.995 104.278 222.479 104.278 222.963 104.762C223.447 105.245 223.447 105.728 222.963 106.212C222.479 106.695 221.995 106.695 221.511 106.212C221.27 105.728 221.27 105.245 221.511 104.762ZM218.367 106.453C218.367 106.212 218.609 105.97 218.851 105.97C219.092 105.97 219.334 106.212 219.334 106.453C219.334 106.695 219.092 106.937 218.851 106.937C218.609 106.937 218.367 106.695 218.367 106.453ZM216.432 102.345C216.432 100.895 217.641 99.6869 219.093 99.6869C220.544 99.6869 221.753 100.895 221.753 102.345C221.753 103.795 220.544 105.003 219.093 105.003C217.641 104.762 216.432 103.795 216.432 102.345ZM215.222 104.762C215.706 104.278 216.19 104.278 216.674 104.762C217.157 105.245 217.157 105.728 216.674 106.212C216.19 106.695 215.706 106.695 215.222 106.212C214.738 105.728 214.738 105.245 215.222 104.762ZM214.255 102.345C214.255 102.103 214.496 101.862 214.738 101.862C214.98 101.862 215.222 102.103 215.222 102.345C215.222 102.587 214.98 102.828 214.738 102.828C214.496 102.828 214.255 102.587 214.255 102.345Z" fill="#E1D7EF"/>
<path d="M212.319 102.345C212.319 105.97 215.222 109.112 219.093 109.112C222.721 109.112 225.866 106.212 225.866 102.345C225.866 98.7202 222.963 95.5786 219.093 95.5786C215.222 95.5786 212.319 98.4785 212.319 102.345ZM216.432 99.6869C215.948 100.17 215.464 100.17 214.98 99.6869C214.496 99.2035 214.496 98.7202 214.98 98.2369C215.464 97.7536 215.948 97.7536 216.432 98.2369C216.915 98.7202 216.915 99.4452 216.432 99.6869ZM219.576 98.2369C219.576 98.4786 219.334 98.7202 219.093 98.7202C218.851 98.7202 218.609 98.4786 218.609 98.2369C218.609 97.9952 218.851 97.7536 219.093 97.7536C219.334 97.5119 219.576 97.7536 219.576 98.2369ZM222.963 99.6869C222.479 100.17 221.995 100.17 221.511 99.6869C221.028 99.2035 221.028 98.7202 221.511 98.2369C221.995 97.7536 222.479 97.7536 222.963 98.2369C223.205 98.7202 223.205 99.4452 222.963 99.6869ZM223.205 102.828C222.963 102.828 222.721 102.587 222.721 102.345C222.721 102.103 222.963 101.862 223.205 101.862C223.446 101.862 223.688 102.103 223.688 102.345C223.688 102.587 223.446 102.828 223.205 102.828ZM221.511 104.762C221.995 104.278 222.479 104.278 222.963 104.762C223.447 105.245 223.447 105.728 222.963 106.212C222.479 106.695 221.995 106.695 221.511 106.212C221.27 105.728 221.27 105.245 221.511 104.762ZM218.367 106.453C218.367 106.212 218.609 105.97 218.851 105.97C219.092 105.97 219.334 106.212 219.334 106.453C219.334 106.695 219.092 106.937 218.851 106.937C218.609 106.937 218.367 106.695 218.367 106.453ZM216.432 102.345C216.432 100.895 217.641 99.6869 219.093 99.6869C220.544 99.6869 221.753 100.895 221.753 102.345C221.753 103.795 220.544 105.003 219.093 105.003C217.641 104.762 216.432 103.795 216.432 102.345ZM215.222 104.762C215.706 104.278 216.19 104.278 216.674 104.762C217.157 105.245 217.157 105.728 216.674 106.212C216.19 106.695 215.706 106.695 215.222 106.212C214.738 105.728 214.738 105.245 215.222 104.762ZM214.255 102.345C214.255 102.103 214.496 101.862 214.738 101.862C214.98 101.862 215.222 102.103 215.222 102.345C215.222 102.587 214.98 102.828 214.738 102.828C214.496 102.828 214.255 102.587 214.255 102.345Z" fill="#DBD1E8"/>
<path d="M203.613 102.345C203.613 110.803 210.628 117.811 219.095 117.811C227.561 117.811 234.576 110.803 234.576 102.345C234.576 93.8868 227.561 86.8787 219.095 86.8787C210.386 86.8787 203.613 93.6452 203.613 102.345ZM209.177 96.5451C208.693 97.2701 207.726 97.5118 207 97.0284C206.274 96.5451 205.79 95.5785 206.274 94.8535C206.758 94.1285 207.726 93.8868 208.451 94.3701C209.177 94.8535 209.661 95.8201 209.177 96.5451ZM219.095 91.7119C224.9 91.7119 229.738 96.5451 229.738 102.345C229.738 108.145 224.9 112.978 219.095 112.978C213.289 112.978 208.451 108.145 208.451 102.345C208.451 96.3034 213.047 91.7119 219.095 91.7119ZM213.289 92.4369C212.563 92.9202 211.596 92.4369 211.112 91.7119C210.628 90.9869 210.87 90.0202 211.596 89.5369C212.322 89.0536 213.289 89.5369 213.773 90.2619C214.257 90.9869 214.015 91.9536 213.289 92.4369ZM220.546 89.2953C220.546 90.2619 219.82 90.9869 219.095 90.9869C218.369 90.9869 217.643 90.2619 217.643 89.2953C217.643 88.3286 218.369 87.6037 219.095 87.6037C219.82 87.6037 220.546 88.3286 220.546 89.2953ZM226.835 91.7119C226.352 92.4369 225.384 92.9202 224.658 92.4369C223.933 91.9536 223.691 90.9869 224.175 90.2619C224.658 89.5369 225.626 89.0536 226.352 89.5369C227.077 89.7786 227.319 90.7452 226.835 91.7119ZM231.19 97.0284C230.464 97.5118 229.254 97.2701 229.012 96.5451C228.529 95.8201 229.012 94.8535 229.738 94.3701C230.464 93.8868 231.431 94.1285 231.915 94.8535C232.157 95.5785 231.915 96.5451 231.19 97.0284ZM232.157 103.795C231.19 103.795 230.464 103.07 230.464 102.345C230.464 101.62 231.19 100.895 232.157 100.895C233.125 100.895 233.85 101.62 233.85 102.345C233.85 103.07 233.125 103.795 232.157 103.795ZM228.771 107.903C229.254 107.178 230.222 106.937 230.948 107.42C231.673 107.903 232.157 108.87 231.673 109.595C231.19 110.32 230.222 110.561 229.496 110.078C228.771 109.595 228.529 108.628 228.771 107.903ZM224.658 112.011C225.384 111.528 226.352 112.011 226.835 112.736C227.319 113.461 227.077 114.428 226.352 114.911C225.626 115.395 224.658 114.911 224.175 114.186C223.933 113.461 223.933 112.495 224.658 112.011ZM217.643 115.395C217.643 114.428 218.369 113.703 219.095 113.703C219.82 113.703 220.546 114.428 220.546 115.395C220.546 116.361 219.82 117.086 219.095 117.086C218.127 117.086 217.643 116.361 217.643 115.395ZM211.112 112.978C211.596 112.253 212.563 111.77 213.289 112.253C214.015 112.736 214.257 113.703 213.773 114.428C213.289 115.153 212.322 115.636 211.596 115.153C210.87 114.67 210.628 113.703 211.112 112.978ZM207 107.662C207.726 107.178 208.693 107.42 209.177 108.145C209.661 108.87 209.177 109.836 208.451 110.32C207.726 110.803 206.758 110.561 206.274 109.837C205.79 108.87 206.032 108.145 207 107.662ZM204.339 102.345C204.339 101.62 205.065 100.895 206.032 100.895C207 100.895 207.726 101.62 207.726 102.345C207.726 103.07 207 103.795 206.032 103.795C205.065 103.795 204.339 103.07 204.339 102.345Z" fill="#E1D7EF"/>
<path d="M47.3477 102.345C47.3477 109.595 53.1532 115.394 60.41 115.394C67.6669 115.394 73.4725 109.595 73.4725 102.345C73.4725 95.0948 67.6669 89.295 60.41 89.295C53.1532 89.0533 47.3477 95.0948 47.3477 102.345Z" fill="#9891A1"/>
<path d="M35.9795 102.345C35.9795 115.878 47.1067 126.753 60.6529 126.753C74.1992 126.753 85.0845 115.636 85.0845 102.103C85.0845 88.5702 73.9572 77.6954 60.411 77.6954C46.8648 77.6954 35.9795 88.8118 35.9795 102.345ZM45.4135 102.345C45.4135 93.8867 52.1865 87.1202 60.411 87.1202C68.8774 87.1202 75.4087 93.8868 75.6506 102.103C75.6506 110.32 68.8774 117.086 60.6529 117.328C52.1865 117.328 45.4135 110.561 45.4135 102.345Z" fill="#9891A1"/>
<path d="M42.9932 102.345C42.9932 112.011 50.7338 119.744 60.4097 119.744C70.0856 119.744 77.8263 112.011 77.8263 102.345C77.8263 92.678 70.0856 84.9449 60.4097 84.9449C50.9757 84.9449 42.9932 92.678 42.9932 102.345ZM44.9283 102.345C44.9283 93.8864 51.9433 86.8782 60.4097 86.8782C68.8761 86.8782 75.8912 93.8864 75.8912 102.345C75.8912 110.803 68.8761 117.811 60.4097 117.811C51.9433 117.811 44.9283 110.803 44.9283 102.345Z" fill="white"/>
<path d="M49.7656 102.344C49.7656 108.144 54.6035 112.978 60.409 112.978C66.2145 112.978 71.0525 108.144 71.0525 102.344C71.0525 96.5445 66.2145 91.7113 60.409 91.7113C54.6035 91.7113 49.7656 96.3029 49.7656 102.344ZM53.8779 102.344C53.8779 98.7195 56.7806 95.5779 60.6509 95.5779C64.2794 95.5779 67.4241 98.4778 67.4241 102.344C67.4241 105.969 64.5213 109.111 60.6509 109.111C56.7806 108.869 53.8779 105.969 53.8779 102.344Z" fill="white"/>
<path d="M53.8779 102.345C53.8779 105.969 56.7807 109.111 60.6511 109.111C64.2795 109.111 67.4243 106.211 67.4243 102.345C67.4243 98.7196 64.5214 95.578 60.6511 95.578C56.7807 95.578 53.8779 98.4779 53.8779 102.345ZM57.9902 99.6863C57.5064 100.17 57.0226 100.17 56.5388 99.6863C56.055 99.2029 56.055 98.7196 56.5388 98.2363C57.0226 97.753 57.5064 97.753 57.9902 98.2363C58.2321 98.7196 58.2321 99.4446 57.9902 99.6863ZM61.1349 98.2363C61.1349 98.4779 60.893 98.7196 60.6511 98.7196C60.4092 98.7196 60.1673 98.4779 60.1673 98.2363C60.1673 97.9946 60.4092 97.753 60.6511 97.753C60.893 97.5113 61.1349 97.753 61.1349 98.2363ZM64.2795 99.6863C63.7957 100.17 63.3119 100.17 62.8281 99.6863C62.3443 99.2029 62.3443 98.7196 62.8281 98.2363C63.3119 97.753 63.7957 97.753 64.2795 98.2363C64.7633 98.7196 64.7633 99.4446 64.2795 99.6863ZM64.5215 102.828C64.2796 102.828 64.0376 102.586 64.0376 102.345C64.0376 102.103 64.2796 101.861 64.5215 101.861C64.7634 101.861 65.0053 102.103 65.0053 102.345C65.2472 102.586 65.0053 102.828 64.5215 102.828ZM63.0701 104.761C63.5539 104.278 64.0377 104.278 64.5215 104.761C65.0053 105.244 65.0053 105.728 64.5215 106.211C64.0377 106.694 63.5539 106.694 63.0701 106.211C62.5863 105.728 62.5863 105.244 63.0701 104.761ZM59.9254 106.453C59.9254 106.211 60.1673 105.969 60.4092 105.969C60.6511 105.969 60.893 106.211 60.893 106.453C60.893 106.694 60.6511 106.936 60.4092 106.936C60.1673 106.936 59.9254 106.694 59.9254 106.453ZM57.9902 102.345C57.9902 100.895 59.1997 99.6863 60.6511 99.6863C62.1025 99.6863 63.312 100.895 63.312 102.345C63.312 103.794 62.1025 105.003 60.893 105.003C58.9578 104.761 57.9902 103.794 57.9902 102.345ZM56.5388 104.761C57.0226 104.278 57.5064 104.278 57.9902 104.761C58.474 105.244 58.474 105.728 57.9902 106.211C57.5064 106.694 57.0226 106.694 56.5388 106.211C56.2969 105.728 56.2969 105.244 56.5388 104.761ZM55.8131 102.345C55.8131 102.103 56.055 101.861 56.2969 101.861C56.5388 101.861 56.7807 102.103 56.7807 102.345C56.7807 102.586 56.5388 102.828 56.2969 102.828C56.055 102.828 55.8131 102.586 55.8131 102.345Z" fill="#E1D7EF"/>
<path d="M44.9287 102.343C44.9287 110.801 51.9437 117.81 60.41 117.81C68.8764 117.81 75.8915 110.801 75.8915 102.343C75.8915 93.8851 68.8764 86.877 60.41 86.877C51.9437 86.877 44.9287 93.6435 44.9287 102.343ZM50.7342 96.5434C50.2504 97.2684 49.2828 97.5101 48.5572 97.0267C47.8315 96.5434 47.3477 95.5768 47.8315 94.8518C48.3153 94.1268 49.2829 93.8851 50.0085 94.3684C50.7342 94.8518 50.9761 95.8184 50.7342 96.5434ZM60.41 91.7102C66.2156 91.7102 71.0535 96.5434 71.0535 102.343C71.0535 108.143 66.2156 112.976 60.41 112.976C54.6045 112.976 49.7666 108.143 49.7666 102.343C49.7666 96.3017 54.6045 91.7102 60.41 91.7102ZM54.8465 92.4352C54.1208 92.9185 53.1532 92.4352 52.6694 91.7102C52.1856 90.9852 52.4275 90.0185 53.1532 89.5352C53.8789 89.0519 54.8465 89.5352 55.3303 90.2602C55.5722 90.9852 55.5722 91.9519 54.8465 92.4352ZM61.8614 89.2936C61.8614 90.2602 61.1357 90.9852 60.41 90.9852C59.6844 90.9852 58.9587 90.2602 58.9587 89.2936C58.9587 88.3269 59.6844 87.6019 60.41 87.6019C61.3776 87.6019 61.8614 88.3269 61.8614 89.2936ZM68.3927 91.7102C67.9089 92.4352 66.9413 92.9185 66.2156 92.4352C65.4899 91.9519 65.248 90.9852 65.7318 90.2602C66.2156 89.5352 67.1832 89.0519 67.9088 89.5352C68.6345 89.7769 68.8765 90.7435 68.3927 91.7102ZM72.5048 97.0267C71.7792 97.5101 70.8116 97.2684 70.3278 96.5434C69.844 95.8184 70.3278 94.8518 71.0535 94.3684C71.7792 93.8851 72.7468 94.1268 73.2306 94.8518C73.7144 95.5768 73.4724 96.5434 72.5048 97.0267ZM73.4725 103.793C72.5049 103.793 71.7792 103.068 71.7792 102.343C71.7792 101.618 72.5049 100.893 73.4725 100.893C74.4401 100.893 75.1657 101.618 75.1657 102.343C75.1657 103.068 74.4401 103.793 73.4725 103.793ZM70.3278 107.901C70.8116 107.177 71.7792 106.935 72.5048 107.418C73.2305 107.902 73.7144 108.868 73.2306 109.593C72.7468 110.318 71.7792 110.56 71.0535 110.076C70.3278 109.593 69.844 108.626 70.3278 107.901ZM66.2156 112.01C66.9413 111.526 67.9089 112.01 68.3927 112.735C68.8765 113.46 68.6345 114.426 67.9088 114.91C67.1832 115.393 66.2156 114.91 65.7318 114.185C65.248 113.46 65.4899 112.493 66.2156 112.01ZM58.9587 115.393C58.9587 114.426 59.6844 113.701 60.41 113.701C61.1357 113.701 61.8614 114.426 61.8614 115.393C61.8614 116.36 61.1357 117.085 60.41 117.085C59.6844 117.085 58.9587 116.36 58.9587 115.393ZM52.6694 112.976C53.1532 112.251 54.1208 111.768 54.8465 112.251C55.5722 112.735 55.8141 113.701 55.3303 114.426C54.8465 115.151 53.8789 115.635 53.1532 115.151C52.4275 114.668 52.1856 113.701 52.6694 112.976ZM48.3152 107.66C49.0409 107.176 50.0086 107.418 50.4924 108.143C50.9762 108.868 50.4923 109.835 49.7666 110.318C49.0409 110.801 48.0734 110.56 47.5896 109.835C47.3477 108.868 47.5896 108.143 48.3152 107.66ZM45.6544 102.343C45.6544 101.618 46.3801 100.893 47.3477 100.893C48.3153 100.893 49.041 101.618 49.041 102.343C49.041 103.068 48.3153 103.793 47.3477 103.793C46.3801 103.793 45.6544 103.068 45.6544 102.343Z" fill="#E1D7EF"/>
<path d="M251.751 100.412H263.362C266.507 100.412 268.925 97.9952 268.925 94.8536C268.925 91.712 266.507 89.0537 263.362 89.0537H251.751V100.412Z" fill="#E1D7EF"/>
<path d="M12.0323 100.412H23.6434V89.0537H12.0323C8.88769 89.0537 6.46875 91.4703 6.46875 94.6119C6.46875 97.9952 8.88769 100.412 12.0323 100.412Z" fill="#E1D7EF"/>
<path d="M190.067 53.0462C191.035 55.7045 193.212 53.7712 192.244 51.5962L188.858 45.0714L187.648 48.4546L190.067 53.0462Z" fill="#AFA7BA"/>
<path d="M185.229 55.2209C186.923 55.2209 188.374 54.0126 188.616 52.3209L189.825 42.4128C190.309 38.5462 186.923 38.0629 186.923 38.0629L185.229 55.2209Z" fill="#C4BCD0"/>
</svg>
