<svg width="205" height="97" viewBox="0 0 205 97" fill="none" xmlns="http://www.w3.org/2000/svg">
<path d="M88.2969 3.00504C88.2969 4.21336 89.2644 5.18003 90.4739 5.18003H110.793C112.003 5.18003 112.97 4.21336 112.97 3.00504C112.97 1.79672 112.003 0.830078 110.793 0.830078H90.4739C89.2644 0.830078 88.2969 1.79672 88.2969 3.00504Z" fill="#CBC2D7"/>
<path d="M8.95508 81.7868C8.95508 82.0284 9.19699 82.2701 9.19699 82.5117C9.19699 82.7534 9.43886 82.7534 9.43886 82.7534C9.43886 82.7534 9.43888 82.9951 9.68078 82.9951C9.68078 83.2367 9.92269 83.2367 9.92269 83.4784C10.1646 83.9617 10.6484 84.2034 11.1322 84.6867C11.3741 84.9283 11.6159 84.9283 11.8578 85.17H12.0997C12.3416 85.4117 12.5835 85.4117 12.8254 85.4117L15.4863 86.1367L16.212 86.3783H16.4539H22.5013H22.9851H27.5811H37.0151H41.6111H42.0949H48.3842H50.3194H53.9478L109.584 86.1367H152.4H155.302H161.592H162.076H166.43H176.589H180.944H181.427H187.717L188.926 85.6533L189.894 85.4117L195.699 83.72C195.941 83.72 196.183 83.4784 196.183 83.4784C196.425 83.2367 196.667 83.2367 196.909 82.9951C197.151 82.9951 197.151 82.7534 197.392 82.7534C197.634 82.7534 197.634 82.5117 197.634 82.5117L197.876 82.2701C198.118 82.0284 198.118 81.7868 198.36 81.3034C198.602 80.5785 198.844 79.8535 198.844 79.3701V77.6785V75.5035V73.3286V71.8786V68.4954V67.5287V62.9372C198.844 61.7289 198.844 60.2789 198.602 59.0706C198.602 58.8289 198.602 58.3456 198.36 58.1039C198.118 57.379 197.876 56.654 197.634 55.929C197.151 54.9624 196.425 54.479 195.215 53.9957C195.215 53.9957 169.091 45.7792 163.769 43.8459C163.285 43.6043 162.801 43.6043 162.801 43.3626L161.108 42.8793H150.706C148.529 42.8793 146.594 40.946 146.594 38.771V15.8132C146.594 14.3633 147.804 13.1549 149.255 13.1549H151.674L152.4 12.6716C152.158 11.705 151.916 11.4633 151.432 10.7383C147.562 3.97181 141.514 3.97184 126.275 3.97184H112.971L88.2971 4.21348L31.4515 3.73016C28.3068 3.73016 23.4689 5.42179 21.0499 9.77169C20.808 10.255 20.5661 10.7384 20.5661 11.2217L10.6483 41.1877C9.92266 43.3626 9.68076 45.5376 9.43886 47.7125V48.9208V54.9623V59.3122V63.4205V69.462V76.2285V79.8535L8.95508 81.7868Z" fill="#CBC2D7"/>
<path d="M13.793 79.8537C13.793 80.8203 13.793 81.787 14.0349 82.512C14.2768 83.4786 14.5187 84.6869 14.7606 85.6535H15.7281L49.1099 85.4119L50.3193 85.1702L51.2869 84.9286C51.7707 83.4786 52.0126 82.0286 52.0126 80.337C52.0126 80.0953 52.0126 80.0953 52.0126 79.8537C52.0126 69.4622 43.5463 60.7624 32.9028 60.7624C22.2594 61.0041 13.793 69.4622 13.793 79.8537Z" fill="#A69FB0"/>
<path d="M152.158 79.8537C152.158 80.8203 152.158 81.787 152.4 82.512C152.642 83.4786 152.884 84.6869 153.126 85.6535H154.093L187.475 85.4119L188.685 85.1702L189.652 84.9286C190.136 83.4786 190.378 82.0286 190.378 80.337C190.378 80.0953 190.378 80.0953 190.378 79.8537C190.378 69.4622 181.911 60.7624 171.268 60.7624C160.625 61.0041 152.158 69.4622 152.158 79.8537Z" fill="#A69FB0"/>
<path d="M8.4707 79.8535C8.7126 82.5118 10.4059 84.6867 13.0667 85.4117L15.7276 86.1367L16.6952 86.3784L50.0769 86.1367L153.125 85.6534H154.092L187.474 85.4117L188.684 85.1701L189.651 84.9284L195.457 83.2368C196.666 82.7534 197.876 81.7868 198.359 80.8201V80.0952L190.377 80.5785L154.334 82.7534H152.399H50.0769L8.4707 79.8535Z" fill="#A69FB0"/>
<path d="M198.846 81.7869C198.846 83.2369 200.055 84.4451 201.507 84.4451C205.135 84.4451 205.377 75.2621 201.507 75.2621C200.055 75.2621 198.846 76.4704 198.846 77.9203V81.7869Z" fill="#A59DAF"/>
<path d="M191.83 79.8533C191.83 81.5449 193.281 82.9949 194.975 82.9949H200.055C201.748 82.9949 203.199 81.5449 203.199 79.8533C203.199 78.1617 201.748 76.7117 200.055 76.7117H194.975C193.281 76.9534 191.83 78.1617 191.83 79.8533Z" fill="#E2D8F1"/>
<path d="M119.742 11.9468H138.61C141.271 11.9468 143.448 14.1218 143.448 16.7801V74.7787C143.448 78.162 140.787 80.8202 137.401 80.8202H137.159C125.064 80.8202 115.388 71.1538 115.388 59.0707V17.0217C114.904 14.1218 117.081 11.9468 119.742 11.9468Z" fill="#A69FB0"/>
<path d="M7.01976 81.3036C7.01976 82.7536 5.81027 83.9618 4.11698 83.9618C0.00469542 83.9618 -0.237203 74.7787 4.11698 74.7787C5.56837 74.7787 7.01976 75.987 7.01976 77.437V81.3036Z" fill="#A59DAF"/>
<path d="M14.5195 79.3704C14.5195 81.062 13.0682 82.512 11.3749 82.512H6.29506C4.60178 82.512 3.15039 81.062 3.15039 79.3704C3.15039 77.6788 4.60178 76.2288 6.29506 76.2288H11.3749C13.3101 76.4705 14.5195 77.6788 14.5195 79.3704Z" fill="#E2D8F1"/>
<path d="M120.711 49.1629H124.581C125.549 49.1629 126.274 48.4379 126.274 47.4712C126.274 46.5046 125.549 45.7795 124.581 45.7795H120.711C119.743 45.7795 119.018 46.5046 119.018 47.4712C119.018 48.4379 119.743 49.1629 120.711 49.1629Z" fill="#CBC2D7"/>
<path d="M120.227 47.4715C120.227 47.7131 121.92 48.1964 124.097 48.1964C126.274 48.1964 127.967 47.9548 127.967 47.4715C127.967 47.2298 126.274 46.7465 124.097 46.7465C121.92 46.7465 120.227 46.9881 120.227 47.4715Z" fill="#EADFF8"/>
<path d="M21.0488 10.0135H151.189C147.319 3.24689 141.271 3.24689 126.032 3.24689L31.4504 3.73021C28.3057 3.73021 23.2259 5.42187 21.0488 10.0135Z" fill="#A69FB0"/>
<path d="M146.354 15.0884V38.0462C146.354 40.2212 148.289 42.1544 150.466 42.1544H160.867C160.867 41.6711 160.625 41.1878 160.625 40.7045C158.448 31.5214 155.787 22.5799 152.159 13.8801C151.917 13.3967 151.675 12.9134 151.433 12.4301H149.014C147.563 12.4301 146.354 13.6384 146.354 15.0884Z" fill="#DDD3EA"/>
<path d="M149.013 11.7048H152.157C152.157 11.7048 151.916 12.1881 151.674 12.9131H149.013C147.803 12.9131 146.836 13.8797 146.836 15.088V38.0458C146.836 39.9791 148.529 41.6707 150.464 41.6707H160.624C160.624 41.6707 162.075 42.6374 162.559 42.8791H161.591H150.464C147.803 42.8791 145.868 40.7041 145.868 38.2875V15.3297C145.626 13.3964 147.078 11.7048 149.013 11.7048Z" fill="#A69FB0"/>
<path d="M191.828 61.729C191.828 64.3872 194.005 66.3205 196.424 66.3205H198.601V61.729C198.601 60.5207 198.601 59.0707 198.359 57.8624C198.359 57.6207 198.359 57.1374 198.117 56.8958H196.424C193.763 57.1374 191.828 59.3124 191.828 61.729Z" fill="#A69FB0"/>
<path d="M196.425 58.1039H198.118C198.602 58.1039 199.086 58.5872 199.328 59.0705C199.811 61.0038 199.811 62.9372 199.328 64.6288C199.086 65.1121 198.602 65.5955 198.118 65.5955H196.425C194.248 65.5955 192.555 63.6621 192.796 61.4872C192.796 59.5539 194.49 58.1039 196.425 58.1039Z" fill="#D0C7DD"/>
<path d="M9.19922 63.4206H13.0695C15.4885 63.4206 17.4237 61.4873 17.4237 59.0707C17.4237 56.654 15.4885 54.7208 13.0695 54.7208H9.44109V59.0707L9.19922 63.4206Z" fill="#CCC3D9"/>
<path d="M120.951 40.2211H137.4C139.335 40.2211 140.786 38.7711 140.786 36.8378V17.7466C140.786 15.8133 139.335 14.3633 137.4 14.3633H120.951C119.015 14.3633 117.564 15.8133 117.564 17.7466V36.8378C117.322 38.7711 119.015 40.2211 120.951 40.2211Z" fill="#DDD3EA"/>
<path d="M168.608 50.3706L197.393 55.2038C196.909 54.2371 196.184 53.7538 194.974 53.2705C194.974 53.2705 168.849 45.054 163.528 43.1207C162.802 46.504 164.979 49.8872 168.608 50.3706Z" fill="#A69FB0"/>
<path d="M197.875 74.5366C197.875 74.7782 198.117 75.0199 198.358 75.0199C198.6 75.0199 198.842 74.7782 198.842 74.5366V69.2201C198.842 68.9784 198.6 68.7368 198.358 68.7368C198.117 68.7368 197.875 68.9784 197.875 69.2201V74.5366Z" fill="#A69FB0"/>
<path d="M196.184 74.5366C196.184 74.7782 196.425 75.0199 196.667 75.0199C196.909 75.0199 197.15 74.7782 197.15 74.5366V69.2201C197.15 68.9784 196.909 68.7368 196.667 68.7368C196.425 68.7368 196.184 68.9784 196.184 69.2201V74.5366Z" fill="#A69FB0"/>
<path d="M194.732 74.5366C194.732 74.7782 194.974 75.0199 195.216 75.0199C195.457 75.0199 195.699 74.7782 195.699 74.5366V69.2201C195.699 68.9784 195.457 68.7368 195.216 68.7368C194.974 68.7368 194.732 68.9784 194.732 69.2201V74.5366Z" fill="#A69FB0"/>
<path d="M24.9204 41.9124H103.295C105.23 41.9124 106.923 40.2208 106.923 38.2875V15.813C106.923 13.8797 105.23 12.1881 103.295 12.1881H30.7259C29.0326 12.1881 27.5813 13.1548 27.0975 14.8464L20.5663 36.3542C20.0825 39.0125 22.0177 41.9124 24.9204 41.9124Z" fill="#C0B7CC"/>
<path d="M30.7227 17.988C30.7227 18.713 31.4484 19.438 32.174 19.438H101.115C101.84 19.438 102.566 18.713 102.566 17.988C102.566 17.263 101.84 16.538 101.115 16.538H32.174C31.4484 16.538 30.7227 17.263 30.7227 17.988Z" fill="#CBC2D7"/>
<path d="M29.0293 24.0293C29.0293 24.7543 29.755 25.4793 30.4807 25.4793H101.115C101.84 25.4793 102.566 24.7543 102.566 24.0293C102.566 23.3044 101.84 22.5794 101.115 22.5794H30.4807C29.755 22.5794 29.0293 23.3044 29.0293 24.0293Z" fill="#CBC2D7"/>
<path d="M27.3359 30.071C27.3359 30.796 28.0616 31.521 28.7873 31.521H101.114C101.84 31.521 102.566 30.796 102.566 30.071C102.566 29.3461 101.84 28.6211 101.114 28.6211H28.7873C28.0616 28.6211 27.3359 29.1044 27.3359 30.071Z" fill="#CBC2D7"/>
<path d="M25.6426 35.8707C25.6426 36.5957 26.3682 37.3207 27.0939 37.3207H101.114C101.84 37.3207 102.566 36.5957 102.566 35.8707C102.566 35.1457 101.84 34.4207 101.114 34.4207H27.0939C26.3682 34.6624 25.6426 35.1457 25.6426 35.8707Z" fill="#CBC2D7"/>
<g opacity="0.65">
<path opacity="0.65" d="M118.291 17.0213L128.209 39.2541H136.675L126.032 15.088H120.952C119.742 15.088 118.775 16.0547 118.291 17.0213Z" fill="white"/>
<path opacity="0.65" d="M127.24 15.088L137.884 39.2541C138.851 39.0124 139.577 38.2874 139.819 37.3208L130.143 15.088H127.24Z" fill="white"/>
</g>
<g opacity="0.65">
<path opacity="0.65" d="M147.078 15.5714V21.3713L155.544 40.7042H160.14C157.963 31.5211 155.303 22.5796 151.674 13.8798H148.771C148.046 13.8798 147.078 14.6047 147.078 15.5714Z" fill="white"/>
</g>
<path opacity="0.1" d="M4.11651 74.7782C5.32599 74.7782 6.2936 75.5032 6.77739 76.2282H9.19635V69.4617V63.9035L198.843 74.0533V74.5366C198.843 74.7783 198.601 75.0199 198.601 75.0199V76.9532H199.085C199.569 75.9866 200.295 75.5032 201.504 75.5032C205.374 75.5032 205.133 84.6864 201.504 84.6864C200.536 84.6864 199.569 83.9614 199.085 83.2364H195.699C195.457 83.2364 195.215 83.4781 195.215 83.4781L189.893 85.1697L189.409 85.4114H189.167L188.442 85.653L187.232 85.8947H182.878H177.314H176.347H168.848H160.382H155.302H152.399H150.464L50.3188 86.378H50.0769H44.0294H41.8524H41.3686H36.7725H27.3386H22.7425H22.2588H19.1141H16.2113L15.4856 86.1363H15.2438L12.5829 85.4114C12.341 85.4114 11.8572 85.1697 11.6153 84.928C10.4058 84.4447 9.68013 83.7197 8.95444 82.7531C8.95444 82.7531 8.95446 82.5114 8.71257 82.5114H6.05169C5.5679 83.4781 4.6003 83.9614 3.39081 83.9614C0.24616 83.9614 0.00427103 74.7782 4.11651 74.7782Z" fill="#8E8796"/>
<path d="M160.865 80.8198C160.865 86.378 165.461 90.9696 171.025 90.9696C176.589 90.9696 181.185 86.378 181.185 80.8198C181.185 75.2616 176.589 70.67 171.025 70.67C165.461 70.67 160.865 75.2616 160.865 80.8198Z" fill="#E1D7EF"/>
<path d="M155.061 80.82C155.061 89.7614 162.317 96.7696 171.026 96.7696C179.976 96.7696 186.991 89.5198 186.991 80.82C186.991 71.8785 179.734 64.8704 171.026 64.8704C162.317 64.8704 155.061 71.8785 155.061 80.82ZM161.35 80.82C161.35 75.2618 165.704 70.9119 171.268 70.9119C176.831 70.9119 181.185 75.2618 181.185 80.82C181.185 86.3782 176.831 90.7281 171.268 90.7281C165.704 90.7281 161.35 86.3782 161.35 80.82Z" fill="#9891A1"/>
<path d="M163.766 80.8201C163.766 84.9284 167.152 88.3117 171.264 88.3117C175.377 88.3117 178.763 84.9284 178.763 80.8201C178.763 76.7119 175.377 73.3286 171.264 73.3286C167.152 73.3286 163.766 76.7119 163.766 80.8201Z" fill="white"/>
<path d="M166.67 80.8205C166.67 83.2371 168.605 85.4121 171.266 85.4121C173.685 85.4121 175.862 83.4788 175.862 80.8205C175.862 78.4039 173.927 76.2289 171.266 76.2289C168.605 76.2289 166.67 78.4039 166.67 80.8205Z" fill="#E1D7EF"/>
<path opacity="0.5" d="M175.136 72.6035C176.587 73.3285 178.039 74.5368 179.006 75.9868L171.266 80.5784L175.136 72.6035Z" fill="white"/>
<path opacity="0.5" d="M171.266 80.8201L167.396 89.0367C165.702 88.3117 164.493 87.1034 163.525 85.6534L171.266 80.8201Z" fill="white"/>
<path d="M22.7402 80.8198C22.7402 86.378 27.3363 90.9696 32.8999 90.9696C38.4635 90.9696 43.0596 86.378 43.0596 80.8198C43.0596 75.2616 38.4635 70.67 32.8999 70.67C27.0944 70.67 22.7402 75.2616 22.7402 80.8198Z" fill="#E1D7EF"/>
<path d="M16.9355 80.8202C16.9355 89.7617 24.1925 96.7698 32.9007 96.7698C41.8509 96.7698 48.8659 89.52 48.8659 80.8202C48.8659 71.8788 41.609 64.8706 32.9007 64.8706C23.9506 64.8706 16.9355 71.8788 16.9355 80.8202ZM22.983 80.8202C22.983 75.262 27.3371 70.9121 32.9007 70.9121C38.4644 70.9121 42.8185 75.262 42.8185 80.8202C42.8185 86.3784 38.4644 90.7283 32.9007 90.7283C27.3371 90.7283 22.983 86.3784 22.983 80.8202Z" fill="#9891A1"/>
<path d="M25.4004 80.8201C25.4004 84.9284 28.787 88.3117 32.8992 88.3117C37.0114 88.3117 40.398 84.9284 40.398 80.8201C40.398 76.7119 37.0114 73.3286 32.8992 73.3286C28.787 73.3286 25.4004 76.7119 25.4004 80.8201Z" fill="white"/>
<path d="M28.3047 80.8205C28.3047 83.2371 30.2399 85.4121 32.9008 85.4121C35.3197 85.4121 37.4968 83.4788 37.4968 80.8205C37.4968 78.4039 35.5616 76.2289 32.9008 76.2289C30.4818 76.2289 28.3047 78.4039 28.3047 80.8205Z" fill="#E1D7EF"/>
<path opacity="0.5" d="M36.7688 72.6035C38.2202 73.3285 39.6716 74.5368 40.6391 75.9868L32.8984 80.5784L36.7688 72.6035Z" fill="white"/>
<path opacity="0.5" d="M32.9009 80.8201L29.0305 89.0367C27.3372 88.3117 26.1277 87.1034 25.1602 85.6534L32.9009 80.8201Z" fill="white"/>
<path d="M148.287 39.496C148.287 39.9793 148.771 40.4627 149.255 40.4627H152.399C152.883 40.4627 153.367 39.9793 153.367 39.496V27.6546C153.367 26.9296 152.641 26.2047 151.916 26.2047H149.738C149.013 26.2047 148.529 26.688 148.529 27.413V39.496H148.287Z" fill="#A69FB0"/>
<path d="M156.996 45.7791C157.238 45.7791 157.238 45.7791 157.48 45.7791C157.964 45.5374 157.964 45.0541 157.964 44.5708L152.158 33.4544C151.916 32.9711 151.432 32.9711 150.949 32.9711C150.465 33.2128 150.465 33.6961 150.465 34.1794L156.27 45.2958C156.512 45.7791 156.754 45.7791 156.996 45.7791Z" fill="#9891A1"/>
</svg>
