<svg width="251" height="100" viewBox="0 0 251 100" fill="none" xmlns="http://www.w3.org/2000/svg">
<path d="M9.28529 65.1613L3.23788 63.953C1.06081 63.4696 -0.390569 61.2947 0.0932239 59.3614L6.38253 28.4288C6.86633 26.2539 8.8015 24.8039 10.9786 25.2872L17.026 26.4955C19.2031 26.9789 20.6544 29.1538 20.1706 31.0871L13.8813 62.0197C13.6394 64.1946 11.4624 65.6446 9.28529 65.1613Z" fill="#A39BAD"/>
<path d="M9.52872 63.9528L9.04492 70.236C9.52871 72.411 10.4963 74.1026 11.9477 75.7942C12.9153 77.0025 14.1248 77.9692 15.5761 78.4525C16.0599 78.6942 16.5437 78.9358 17.0275 78.9358L30.0899 84.494H236.428L241.749 83.769C244.652 83.2857 247.313 81.3524 248.039 78.4525C248.039 78.2108 248.281 77.9692 248.281 77.7275L248.522 77.0025L248.764 76.2776L250.216 69.0277L250.7 66.1278C250.7 65.8861 250.7 65.4028 250.941 65.1611C250.941 64.6778 250.941 64.1945 250.941 63.7111C250.941 63.2278 250.7 62.7445 250.7 62.5028C250.7 62.5028 250.7 62.2612 250.458 62.2612L245.378 48.9698C245.136 48.2449 244.894 47.7615 244.652 47.2782C244.41 47.0366 244.168 46.5532 243.926 46.3115C243.443 45.8282 242.959 45.1033 242.475 44.8616C242.233 44.6199 241.991 44.3783 241.508 44.1366C241.508 44.1366 241.266 44.1366 241.266 43.8949C241.024 43.6533 240.782 43.6533 240.54 43.4116C240.298 43.4116 240.056 43.1699 239.814 43.1699C239.572 43.1699 239.572 42.9283 239.33 42.9283C238.847 42.6866 238.605 42.6866 238.121 42.445L182.485 28.6703C181.517 28.1869 180.55 27.7036 179.582 26.9786L155.634 6.43744C152.248 3.29584 149.829 2.81254 144.507 1.84589C114.028 -0.570722 77.0179 -0.32906 46.297 1.84589C40.0077 1.84589 34.2022 4.98749 31.0575 10.304C31.0575 10.304 15.3342 36.4034 15.3342 36.6451L15.0923 38.0951L10.4963 58.153V58.3946C10.2544 59.1196 10.2544 59.8446 10.2544 60.5696C9.28682 61.7779 9.28682 62.7445 9.52872 63.9528Z" fill="#C1B9CD"/>
<path d="M115.236 72.8943V6.19579C115.236 4.74582 116.446 3.77917 117.655 3.77917C126.605 4.02084 135.314 4.50414 143.296 5.22912C148.618 5.95411 150.069 6.43743 152.73 8.85404L172.808 26.012C175.227 28.187 176.678 31.0869 176.678 34.2285V72.6527C176.678 74.8277 174.985 76.5193 172.808 76.5193H119.107C116.93 76.5193 115.236 74.8276 115.236 72.8943Z" fill="#CCC3D9"/>
<path d="M117.896 7.64592V30.1204C117.896 31.0871 118.622 31.812 119.59 31.812L172.081 33.0203C173.049 33.0203 173.775 32.0537 173.291 31.087C172.807 30.1204 172.081 29.1538 171.114 28.1871L151.036 11.0292C149.101 9.09591 148.134 8.85422 143.054 8.12924C135.555 7.64591 127.572 7.16259 119.106 6.92093C118.38 6.43761 117.896 6.92094 117.896 7.64592Z" fill="#DDD3EA"/>
<path d="M238.118 52.1117L241.263 59.6032C241.747 61.0532 243.44 62.0198 245.375 62.5031C245.859 62.5031 246.343 62.7448 246.827 62.7448H249.488C249.729 62.7448 249.971 62.7448 250.213 62.5031C250.213 62.5031 250.213 62.2615 249.971 62.2615L244.892 48.9701C244.65 48.2451 244.408 47.7618 244.166 47.2785C243.924 47.0368 243.682 46.5535 243.44 46.3118H242.714C240.779 46.3118 239.328 47.0368 238.36 48.2451C237.635 49.2118 237.635 50.6617 238.118 52.1117Z" fill="#A39BAD"/>
<path d="M239.085 51.6283L242.23 59.1198C242.714 60.3281 244.165 61.0531 245.617 61.5364C246.1 61.5364 246.342 61.7781 246.826 61.7781H249.487C250.455 61.7781 250.455 59.8448 249.245 56.2199C248.278 53.32 247.31 51.6283 246.1 48.9701C245.617 48.0034 244.649 47.2784 243.681 47.2784H242.714C239.569 47.2784 238.118 49.2117 239.085 51.6283Z" fill="#D0C7DD"/>
<path d="M15.5762 78.4523C16.06 78.694 16.5438 78.9356 17.0276 78.9356L30.09 84.4939H236.428L241.749 83.7689C244.652 83.2855 247.313 81.3523 248.039 78.4523H15.5762Z" fill="#A39BAD"/>
<path d="M231.105 84.4944H236.427L241.749 83.7694C244.652 83.2861 247.313 81.3528 248.038 78.4528C248.038 78.2111 248.28 77.9695 248.28 77.7278L248.522 77.0028L248.764 76.2779L250.215 69.028L250.699 66.128C250.699 65.8863 250.699 65.403 250.941 65.1614H244.894C240.056 65.1614 235.943 68.303 234.734 72.8946L231.105 84.4944Z" fill="#A39BAD"/>
<path d="M8.80078 68.7865C9.04268 72.6531 9.04267 73.8614 11.4616 76.0364C14.3644 78.6947 29.8458 84.4945 29.8458 84.4945L28.1525 69.7532C26.7011 64.4366 22.1051 60.8117 16.5415 60.8117H9.28457C9.28457 61.7784 8.80078 68.7865 8.80078 68.7865Z" fill="#A39BAD"/>
<path d="M242.958 72.1693C242.716 73.6193 243.2 74.8276 244.168 74.8276C245.135 74.8276 246.103 73.6193 246.345 72.1693C246.587 70.7193 246.103 69.511 245.135 69.511C244.168 69.2694 243.2 70.7193 242.958 72.1693Z" fill="#D0C7DD"/>
<path d="M14.8486 68.0613C15.0905 70.2363 14.6067 71.9279 13.6391 71.9279C12.6715 71.9279 11.7039 70.2363 11.462 68.0613C11.2201 65.8864 11.7039 64.1948 12.6715 64.1948C13.6391 63.9531 14.6067 65.8864 14.8486 68.0613Z" fill="#D0C7DD"/>
<path d="M9.52734 58.3949H10.253C11.4625 58.3949 12.4301 57.6699 12.672 56.4616L16.3004 41.4786C16.5423 40.7536 16.3005 40.0286 15.8167 39.3036C15.3329 38.8203 14.6072 38.337 13.8815 38.337L9.52734 58.3949Z" fill="#A39BAD"/>
<path d="M8.80185 50.1785L13.156 51.1452L11.9465 56.2201C11.7046 56.9451 11.2208 57.4284 10.4951 57.4284H9.52754C8.31805 57.4284 7.35047 56.2201 7.83426 55.2534L8.80185 50.1785Z" fill="#D0C7DD"/>
<path d="M11.2197 40.7532C11.4616 40.0282 12.1873 39.3033 12.913 39.3033H14.1225C15.0901 39.3033 15.8158 40.2699 15.5739 41.2366L13.1549 51.1446L8.80078 50.178L11.2197 40.7532Z" fill="#C1B9CD"/>
<path d="M174.017 31.3284C174.259 34.9533 170.63 34.9534 167.727 35.195C167.485 35.195 167.002 35.195 166.76 35.195L169.904 21.9036C172.081 22.8703 173.775 28.1868 174.017 31.3284Z" fill="#C1B9CD"/>
<g opacity="0.75">
<path opacity="0.75" d="M120.074 7.88708L137.733 30.8449L153.456 31.0866L136.281 8.61208C130.96 8.12875 125.638 7.88708 120.074 7.88708Z" fill="white"/>
<path opacity="0.75" d="M138.217 8.61218L155.15 31.0867H160.229L143.539 8.85382C143.297 8.85382 143.055 8.85382 142.813 8.85382C141.361 8.85382 139.91 8.85384 138.217 8.61218Z" fill="white"/>
</g>
<path d="M180.307 84.4936H229.654L229.17 78.4521L228.686 74.5855C227.96 66.369 220.945 60.0858 212.721 60.0858H196.756C188.289 60.0858 181.516 66.6107 180.79 74.8272L180.549 78.4521L180.307 84.4936Z" fill="#A39BAD"/>
<path d="M73.8719 3.5375C82.5802 3.05417 86.9343 3.29582 95.1588 3.29582C99.9968 3.29582 104.835 3.29584 109.673 3.5375C111.124 3.5375 112.575 4.7458 112.575 6.43742V73.8609C112.575 75.3109 111.366 76.5192 109.915 76.5192H88.6276C87.4181 76.5192 86.2087 75.5525 86.2087 74.3442V74.1026C85.2411 63.9528 76.5328 55.978 66.3731 55.978H63.2285C59.3581 55.978 55.9716 52.8364 55.9716 48.7281V34.4701C55.7297 34.4701 64.6799 4.02082 73.8719 3.5375Z" fill="#CCC3D9"/>
<path d="M45.5717 30.1204L26.4619 29.6371C25.2524 29.6371 24.5267 28.4288 25.2524 27.2204C28.1552 22.3872 31.2998 16.5873 34.4445 11.9957C38.0729 6.43751 40.9757 4.98755 56.2152 4.98755C57.4247 4.98755 58.1504 6.19584 57.6666 7.16249C55.0057 13.204 50.1678 22.1455 47.5069 28.9121C46.7812 29.6371 46.2974 30.1204 45.5717 30.1204Z" fill="#DDD3EA"/>
<path d="M61.777 30.3622L108.463 31.3288C109.189 31.3288 109.914 30.6038 109.914 29.8788V7.64595C109.914 6.43764 109.673 5.95432 108.463 5.95432C105.318 5.95432 103.383 5.95431 100.239 5.71265C98.5453 5.71265 96.852 5.71265 95.1587 5.71265C92.7397 5.71265 90.5627 5.71265 88.6275 5.71265C86.9342 5.71265 85.241 5.71265 83.5477 5.71265C80.403 5.71265 77.5003 5.71266 74.1137 5.95432C73.6299 5.95432 72.9042 6.19599 72.4204 6.67932C68.792 9.09593 64.196 18.2791 60.5675 28.4289C60.3256 29.3955 60.8094 30.3622 61.777 30.3622Z" fill="#DDD3EA"/>
<path d="M33.7168 84.4936H83.0637L82.5799 78.4521L82.0961 74.5855C81.3704 66.369 74.3554 60.0858 66.1309 60.0858H50.1658C41.6994 60.0858 34.6844 66.6107 34.2006 74.8272L33.9587 78.4521L33.7168 84.4936Z" fill="#A39BAD"/>
<path d="M119.347 38.5785L128.297 38.8202C128.781 38.8202 129.023 38.5785 129.023 38.0952V36.4036C129.023 35.9202 128.781 35.6786 128.297 35.6786L119.347 35.4369C118.863 35.4369 118.621 35.6786 118.621 36.1619V37.8535C118.621 38.3368 118.863 38.5785 119.347 38.5785Z" fill="white"/>
<path d="M62.2628 37.1283L71.213 37.37C71.6968 37.37 71.9387 37.1283 71.9387 36.645V34.9533C71.9387 34.47 71.6968 34.2283 71.213 34.2283L62.2628 33.9867C61.779 33.9867 61.5371 34.2283 61.5371 34.7117V36.4033C61.5371 36.8867 62.0209 37.1283 62.2628 37.1283Z" fill="white"/>
<path opacity="0.15" d="M1.0611 54.7698L249.247 72.6528L248.521 76.2777L248.279 77.0026L248.037 77.7276C248.037 77.9693 248.037 78.211 247.796 78.4526C247.07 81.3526 244.409 83.5275 241.506 83.7692L236.185 84.4942H230.863H229.653H180.306H83.064H33.7171H30.0887C30.0887 84.4942 14.3654 78.6943 11.7045 76.036C9.28558 73.8611 9.28558 72.6528 9.04368 68.7862C9.04368 68.7862 9.04368 67.0945 9.28558 65.1612L3.48006 63.9529C1.303 63.4696 -0.148382 61.2947 0.335411 59.3614L1.0611 54.7698Z" fill="#8E8796"/>
<path d="M185.87 78.2106C185.87 78.694 185.87 78.9356 185.87 79.4189H184.902C184.902 79.4189 184.418 79.6606 184.176 80.1439L183.934 80.3856C183.934 81.1106 184.176 81.5939 184.176 82.3189V82.5606C184.176 82.5606 184.176 82.5606 184.418 82.3189C184.66 82.0773 184.902 81.8356 184.902 81.8356L186.353 81.5939C186.353 82.0772 186.595 82.3189 186.595 82.8022L185.87 83.0439H185.628C185.628 83.0439 185.628 83.0439 185.386 83.2855C185.386 83.5272 185.144 83.5272 184.902 83.7689L184.66 84.0105C184.902 84.7355 185.144 85.4605 185.386 86.1855C185.386 86.1855 185.386 85.9438 185.628 85.9438C185.87 85.7022 185.87 85.4605 185.87 85.4605L187.079 84.9772C187.321 85.2188 187.321 85.7022 187.563 85.9438L186.595 86.4272C186.595 86.4272 186.353 86.9105 186.111 87.1521C186.111 87.3938 186.111 87.3938 185.87 87.3938C186.111 88.1188 186.595 88.6021 187.079 89.3271V89.0854C187.079 89.0854 187.079 89.0854 187.079 88.8438C187.079 88.6021 187.321 88.6021 187.321 88.6021L188.53 87.8771C188.772 88.1188 189.014 88.6021 189.256 88.8438L188.53 89.3271C188.53 89.3271 188.289 89.8104 188.289 90.2937C188.289 90.5354 188.289 90.5354 188.289 90.5354C188.772 91.0187 189.256 91.7437 189.74 92.227V91.9854C189.74 91.7437 189.982 91.502 189.982 91.502L190.949 90.5354C191.191 90.7771 191.433 91.0187 191.675 91.2604L190.949 91.9854C190.949 91.9854 190.949 92.4687 190.707 92.952C190.707 93.1937 190.707 93.1937 190.707 93.1937C191.191 93.677 191.917 94.1603 192.401 94.6436V94.402C192.401 94.1603 192.401 93.9186 192.401 93.9186L193.126 92.952C193.368 93.1937 193.61 93.4353 194.094 93.677L193.61 94.402C193.61 94.402 193.61 94.8853 193.61 95.3686C193.61 95.6103 193.61 95.6103 193.61 95.6103C194.336 96.0936 194.82 96.3353 195.545 96.8186V96.5769C195.545 96.3353 195.545 96.0936 195.545 96.0936L196.271 94.8853C196.513 95.127 196.997 95.127 197.239 95.3686L196.755 96.3352V96.5769C196.755 96.8186 196.755 97.0603 196.755 97.3019C196.755 97.5436 196.755 97.5436 196.755 97.5436C197.481 97.7852 198.206 98.0269 198.932 98.2685V98.0269C198.932 97.7852 198.69 97.5436 198.69 97.5436L199.174 96.3352C199.416 96.3352 199.9 96.5769 200.141 96.5769L199.9 97.5436C199.9 97.5436 200.141 98.0269 200.141 98.5102C200.141 98.5102 200.141 98.5102 200.141 98.7519C200.867 98.9935 201.593 98.9936 202.319 99.2352V98.9935C202.077 98.7519 202.077 98.5102 202.077 98.5102L202.319 97.0602C202.802 97.0602 203.044 97.0603 203.528 97.3019V98.2685C203.528 98.2685 203.77 98.7519 204.012 99.2352C204.012 99.4769 204.012 99.4769 204.254 99.4769C204.496 99.4769 204.496 99.4769 204.737 99.4769C205.221 99.4769 205.947 99.4769 206.431 99.4769C206.431 99.4769 206.431 99.2352 206.189 99.2352C205.947 98.9936 205.947 98.7519 205.947 98.7519V97.3019C206.431 97.3019 206.673 97.3019 207.156 97.3019V98.2685C207.156 98.2685 207.398 98.7519 207.882 98.9935L208.124 99.2352C208.85 99.2352 209.575 98.9935 210.301 98.7519C210.301 98.7519 210.059 98.7519 210.059 98.5102C209.817 98.2686 209.575 98.0269 209.575 98.0269L209.334 96.5769C209.817 96.5769 210.059 96.3352 210.543 96.3352L210.785 97.3019C210.785 97.3019 210.785 97.3019 211.027 97.5436C211.269 97.5436 211.269 97.7852 211.511 98.0269L211.752 98.2685C212.478 98.0269 213.204 97.7852 213.93 97.5436C213.93 97.5436 213.688 97.5436 213.688 97.3019C213.446 97.0603 213.204 97.0602 213.204 97.0602L212.72 95.8519C212.962 95.6103 213.446 95.6103 213.688 95.3686L214.171 96.3352C214.171 96.3352 214.655 96.5769 214.897 96.8186C215.139 96.8186 215.139 96.8186 215.139 97.0602C215.865 96.8186 216.349 96.3353 217.074 95.8519H216.832C216.832 95.8519 216.832 95.8519 216.59 95.8519C216.349 95.8519 216.349 95.6103 216.349 95.6103L215.623 94.402C215.865 94.1603 216.349 93.9187 216.59 93.677L217.074 94.402C217.074 94.402 217.558 94.6436 218.042 94.6436C218.284 94.6436 218.284 94.6436 218.284 94.6436C218.767 94.402 219.009 94.1603 219.251 93.677C219.493 93.4353 219.735 93.4353 219.977 93.1937H219.735C219.493 93.1937 219.251 92.952 219.251 92.952L218.284 91.9854C218.526 91.7437 218.767 91.502 219.009 91.2604L219.735 91.9854C219.735 91.9854 220.219 91.9853 220.703 92.227C220.945 92.227 220.945 92.227 220.945 92.227C221.428 91.7437 221.912 91.0187 222.396 90.5354H222.154C221.912 90.5354 221.67 90.5354 221.67 90.5354L219.977 89.3271C220.219 89.0854 220.461 88.8438 220.703 88.3605L221.428 88.8438C221.428 88.8438 221.912 88.8438 222.396 88.8438C222.638 88.8438 222.638 88.8438 222.638 88.8438C223.122 88.1188 223.363 87.6355 223.847 86.9105H223.605C223.364 86.9105 223.122 86.9105 223.122 86.9105L221.912 86.1855C222.154 85.9438 222.154 85.4605 222.396 85.2188L223.364 85.7022H223.605C223.847 85.7022 224.089 85.7022 224.331 85.7022C224.573 85.7022 224.573 85.7022 224.573 85.7022C224.815 84.9772 225.057 84.2522 225.299 83.5272H225.057C224.815 83.5272 224.573 83.7689 224.573 83.7689L223.364 83.2855C223.364 83.0439 223.605 82.5606 223.605 82.3189L224.573 82.5606C224.573 82.5606 225.057 82.3189 225.541 82.3189C225.541 82.3189 225.541 82.3189 225.782 82.3189C226.024 81.5939 226.024 80.8689 226.266 80.1439H226.024C225.782 80.3856 225.541 80.3856 225.541 80.3856L224.089 80.1439C224.089 79.6606 224.089 79.419 224.331 78.9356H225.299C225.299 78.9356 225.782 78.694 226.266 78.4523C226.508 78.4523 226.508 78.4523 226.508 78.2106C226.508 77.969 226.508 77.969 226.508 77.7273C226.508 77.244 226.508 76.519 226.508 76.0357C226.508 76.0357 226.266 76.0357 226.266 76.2774C226.024 76.519 225.782 76.519 225.782 76.519H224.331C224.331 76.0357 224.331 75.794 224.331 75.3107H225.299C225.299 75.3107 225.782 75.069 226.024 74.5857L226.266 74.3441C226.266 73.6191 226.024 72.8941 225.782 72.1691C225.782 72.1691 225.782 72.4108 225.541 72.4108C225.299 72.6524 225.057 72.8941 225.057 72.8941L223.605 73.1358C223.605 72.6525 223.364 72.4108 223.364 71.9275L224.331 71.6858C224.331 71.6858 224.331 71.6858 224.573 71.4442C224.573 71.2025 224.815 71.2025 225.057 70.9608L225.299 70.7192C225.057 69.9942 224.815 69.2692 224.573 68.5442C224.573 68.5442 224.573 68.7859 224.331 68.7859C224.089 69.0275 224.089 69.2692 224.089 69.2692L222.88 69.7525C222.638 69.5108 222.638 69.0275 222.396 68.7859L223.364 68.3025C223.364 68.3025 223.605 67.8192 223.847 67.5776C223.847 67.3359 223.847 67.3359 224.089 67.3359C223.847 66.6109 223.364 66.1276 222.88 65.4026V65.6443C222.88 65.6443 222.88 65.6443 222.88 65.8859C222.88 66.1276 222.638 66.1276 222.638 66.1276L221.428 66.8526C221.186 66.6109 220.945 66.1276 220.703 65.8859L221.428 65.4026C221.428 65.4026 221.67 64.9193 221.67 64.4359C221.67 64.1943 221.67 64.1943 221.67 64.1943C221.186 63.711 220.703 62.986 220.219 62.5026C220.219 62.7443 220.219 62.7443 220.219 62.7443C220.219 62.986 219.977 63.2276 219.977 63.2276L219.009 64.1943C218.767 63.9526 218.526 63.711 218.284 63.4693L219.009 62.7443C219.009 62.7443 219.009 62.261 219.251 61.7777C219.251 61.536 219.251 61.536 219.251 61.536C218.767 61.0527 218.042 60.5694 217.558 60.086V60.3277C217.558 60.5694 217.558 60.811 217.558 60.811L216.832 61.7777C216.59 61.536 216.349 61.2944 215.865 61.0527L216.349 60.3277C216.349 60.3277 216.349 59.8444 216.349 59.3611C216.349 59.1194 216.349 59.1194 216.349 59.1194C215.623 58.6361 215.139 58.3944 214.413 57.9111V58.1528C214.413 58.3944 214.413 58.6361 214.413 58.6361L213.688 59.8444C213.446 59.6027 212.962 59.6027 212.72 59.3611L213.204 58.3944V58.1528C213.204 57.9111 213.204 57.6694 213.204 57.4278C213.204 57.1861 213.204 57.1861 213.204 57.1861C212.478 56.9444 211.752 56.7028 211.027 56.4611V56.7028C211.027 56.9445 211.269 57.1861 211.269 57.1861L210.785 58.3944C210.543 58.3944 210.059 58.1528 209.817 58.1528L210.059 57.1861C210.059 57.1861 209.817 56.7028 209.817 56.2195C209.817 56.2195 209.817 56.2195 209.817 55.9778C209.092 55.7361 208.366 55.7361 207.64 55.4945V55.7362C207.882 55.9778 207.882 56.2195 207.882 56.2195L207.64 57.6694C207.156 57.6694 206.915 57.6694 206.431 57.4278V56.4611C206.431 56.4611 206.189 55.9778 205.947 55.4945C205.947 55.2528 205.947 55.2528 205.705 55.2528C205.463 55.2528 205.463 55.2528 205.221 55.2528C204.737 55.2528 204.012 55.2528 203.528 55.2528C203.528 55.2528 203.528 55.4945 203.77 55.4945C204.012 55.7361 204.012 55.9778 204.012 55.9778V57.4278C203.528 57.4278 203.286 57.4278 202.802 57.4278V56.4611C202.802 56.4611 202.56 55.9778 202.077 55.7362L201.835 55.4945C201.109 55.4945 200.383 55.7361 199.658 55.9778C199.658 55.9778 199.9 55.9778 199.9 56.2195C200.141 56.4611 200.383 56.7028 200.383 56.7028L200.625 58.1528C200.141 58.1528 199.9 58.3944 199.416 58.3944L199.174 57.4278C199.174 57.4278 199.174 57.4278 198.932 57.1861C198.69 57.1861 198.69 56.9445 198.448 56.7028L198.206 56.4611C197.481 56.7028 196.755 56.9444 196.029 57.1861C196.029 57.1861 196.271 57.1861 196.271 57.4278C196.513 57.6694 196.755 57.6694 196.755 57.6694L197.239 58.8777C196.997 59.1194 196.513 59.1194 196.271 59.3611L195.787 58.3944C195.787 58.3944 195.304 58.1528 195.062 57.9111C194.82 57.9111 194.82 57.9111 194.82 57.6694C194.094 57.9111 193.61 58.3944 192.885 58.8777H193.126C193.126 58.8777 193.126 58.8777 193.368 58.8777C193.61 58.8777 193.61 59.1194 193.61 59.1194L194.336 60.3277C194.094 60.5694 193.61 60.811 193.368 61.0527L192.885 60.3277C192.885 60.3277 192.401 60.086 191.917 60.086C191.675 60.086 191.675 60.086 191.675 60.086C191.191 60.5694 190.707 60.811 190.224 61.2943C190.224 61.2943 190.224 61.2944 189.982 61.536H190.224C190.466 61.536 190.707 61.7777 190.707 61.7777L191.675 62.7443C191.433 62.986 191.191 63.2277 190.949 63.4693L190.224 62.7443C190.224 62.7443 189.74 62.7443 189.256 62.5026C189.014 62.5026 189.014 62.5026 189.014 62.5026C188.53 62.986 188.047 63.711 187.563 64.1943H187.805C188.047 64.1943 188.289 64.1943 188.289 64.1943L189.256 64.9193C189.014 65.1609 188.772 65.4026 188.53 65.8859L187.805 65.4026C187.805 65.4026 187.321 65.4026 186.837 65.4026C186.595 65.4026 186.595 65.4026 186.595 65.4026C186.111 66.1276 185.87 66.6109 185.386 67.3359H185.628C185.87 67.3359 186.111 67.3359 186.111 67.3359L187.321 68.0609C187.079 68.3025 187.079 68.7859 186.837 69.0275L185.87 68.5442H185.628C185.386 68.5442 185.144 68.5442 184.902 68.5442C184.66 68.5442 184.66 68.5442 184.66 68.5442C184.418 69.2692 184.176 69.9942 183.934 70.7192H184.176C184.418 70.7192 184.66 70.4775 184.66 70.4775L185.87 70.9608C185.87 71.2025 185.628 71.6858 185.628 71.9275L184.66 71.6858C184.66 71.6858 184.176 71.9275 183.692 71.9275C183.692 71.9275 183.692 71.9275 183.451 71.9275C183.209 72.6525 183.209 73.3774 182.967 74.1024H183.209C183.451 73.8607 183.692 73.8608 183.692 73.8608L186.111 74.8274C186.111 75.3107 186.111 75.5524 185.87 76.0357H184.902C184.902 76.0357 184.418 76.2774 183.934 76.519C183.692 76.519 183.692 76.519 183.692 76.7607C183.692 77.0024 183.692 77.0023 183.692 77.244C183.692 77.7273 183.692 78.4523 183.692 78.9356C183.692 78.9356 183.934 78.9357 183.934 78.694C184.176 78.4523 184.418 78.4523 184.418 78.4523L185.87 78.2106Z" fill="#9891A1"/>
<path d="M220.701 66.6111C220.943 66.8527 221.185 67.336 221.427 67.5777L222.636 66.8527C222.636 66.8527 222.636 66.6111 222.878 66.6111C222.878 66.6111 222.878 66.6111 222.878 66.3694C222.636 65.8861 222.394 65.6444 221.911 65.1611C221.669 65.6444 221.669 66.1277 221.669 66.1277L220.701 66.6111Z" fill="#A49DAE"/>
<path d="M188.287 77.2441C188.529 68.0609 196.27 60.8111 205.462 60.8111C214.654 61.0528 221.911 68.7859 221.911 77.9691C221.669 87.1522 213.928 94.402 204.736 94.402C195.302 94.1604 188.045 86.4272 188.287 77.2441Z" fill="#A49DAE"/>
<path d="M186.353 77.2442C186.595 67.0944 195.061 58.8779 205.463 59.1196C215.622 59.3612 223.847 67.8194 223.605 78.2108C223.363 88.3606 214.897 96.5771 204.495 96.3355C194.335 95.8521 186.111 87.394 186.353 77.2442ZM186.595 77.2442C186.353 87.394 194.335 95.8522 204.495 96.0938C214.655 96.3355 223.121 88.3606 223.363 78.2108C223.605 68.061 215.622 59.6029 205.463 59.3613C195.303 58.8779 186.837 67.0944 186.595 77.2442Z" fill="#A49DAE"/>
<path d="M217.797 91.7439L218.764 92.7105C218.764 92.7105 219.006 92.7105 219.248 92.9522C219.49 92.7105 219.974 92.2272 220.216 91.9856C219.732 91.9856 219.248 91.7439 219.248 91.7439L218.523 91.0189C218.281 91.2606 218.039 91.5022 217.797 91.7439Z" fill="#A49DAE"/>
<path d="M219.977 89.327L220.944 90.052C220.944 90.052 221.186 90.052 221.428 90.052C221.67 89.5687 221.912 89.327 222.396 88.8437C221.912 88.8437 221.428 88.8437 221.428 88.8437L220.702 88.3604C220.46 88.8437 220.218 89.0853 219.977 89.327Z" fill="#A49DAE"/>
<path d="M212.236 95.3686C212.478 95.127 212.962 95.127 213.204 94.8853L213.688 95.8519C213.688 95.8519 214.172 96.0936 214.413 96.3352C213.93 96.5769 213.446 96.8185 212.962 97.0602C212.72 96.8185 212.478 96.8186 212.478 96.8186L212.236 95.3686Z" fill="#A49DAE"/>
<path d="M215.864 94.8855L215.139 93.6772C215.381 93.4355 215.864 93.1938 216.106 92.9521L216.59 93.6772C216.59 93.6772 217.074 93.9188 217.558 93.9188C217.074 94.1605 216.832 94.4021 216.348 94.6438C216.348 94.6438 216.348 94.6438 216.106 94.6438C216.106 95.1271 215.864 94.8855 215.864 94.8855Z" fill="#A49DAE"/>
<path d="M221.912 86.6689L223.122 87.3939C223.122 87.3939 223.363 87.3939 223.605 87.3939C223.847 86.9106 224.089 86.4273 224.331 86.1856C224.089 86.1856 223.847 86.1856 223.605 86.1856C223.363 86.1856 223.363 86.1856 223.363 86.1856L222.396 85.7023C222.154 85.944 222.154 86.1856 221.912 86.6689Z" fill="#A49DAE"/>
<path d="M224.088 75.7937C224.088 76.2771 224.088 76.5187 224.088 77.0021H225.539C225.539 77.0021 225.781 76.7604 226.023 76.7604C226.023 76.2771 226.023 75.7938 226.023 75.3104C225.539 75.5521 225.297 76.0354 225.297 76.0354L224.088 75.7937Z" fill="#A49DAE"/>
<path d="M209.09 96.3351C209.574 96.3351 209.816 96.0934 210.299 96.0934L210.541 97.0601C210.541 97.0601 210.541 97.0601 210.783 97.3018C211.025 97.3018 211.025 97.5434 211.267 97.7851C210.783 98.0267 210.299 98.0267 209.816 98.2684C209.574 98.0267 209.332 97.7851 209.332 97.7851L209.09 96.3351Z" fill="#A49DAE"/>
<path d="M223.121 83.5273L224.331 84.0106C224.331 84.0106 224.572 84.0106 224.814 83.7689C225.056 83.2856 225.056 82.8023 225.298 82.319C224.814 82.5606 224.331 82.5606 224.331 82.5606L223.363 82.319C223.363 82.8023 223.363 83.2856 223.121 83.5273Z" fill="#A49DAE"/>
<path d="M223.361 72.6527C223.361 72.8944 223.603 73.3777 223.603 73.861L225.055 73.6193C225.055 73.6193 225.296 73.3777 225.538 73.136C225.538 72.6527 225.296 72.1694 225.055 71.686C224.813 71.9277 224.813 71.9277 224.571 72.1693C224.329 72.411 224.329 72.411 224.329 72.411L223.361 72.6527Z" fill="#A49DAE"/>
<path d="M222.395 69.5107C222.636 69.7524 222.636 70.2357 222.878 70.4773L224.088 69.994C224.088 69.994 224.33 69.7524 224.33 69.5107C224.088 69.0274 223.846 68.5441 223.604 68.3024C223.362 68.7857 223.12 69.0274 223.12 69.0274L222.395 69.5107Z" fill="#A49DAE"/>
<path d="M223.846 80.3853L225.297 80.6269C225.297 80.6269 225.539 80.6269 225.781 80.3853C225.781 79.902 225.781 79.4186 226.023 78.9353C225.539 79.177 225.055 79.4186 225.055 79.4186H224.088C224.088 79.6603 224.088 79.902 223.846 80.3853Z" fill="#A49DAE"/>
<path d="M187.562 88.3602L188.772 87.6353C189.014 87.8769 189.256 88.3602 189.498 88.6019L188.772 89.0852C188.772 89.0852 188.53 89.5685 188.53 90.0519C188.288 89.5685 188.046 89.3269 187.804 88.8436C187.804 88.8436 187.804 88.8435 187.804 88.6019C187.563 88.6019 187.562 88.3602 187.562 88.3602Z" fill="#A49DAE"/>
<path d="M187.318 84.7355C187.56 84.9771 187.56 85.4604 187.802 85.7021L186.834 86.1854C186.834 86.1854 186.593 86.6687 186.351 86.9104C186.109 86.427 185.867 85.9437 185.625 85.4604C185.867 85.2188 185.867 84.9771 185.867 84.9771L187.318 84.7355Z" fill="#A49DAE"/>
<path d="M205.703 96.577C206.187 96.577 206.429 96.577 206.913 96.577V97.5436C206.913 97.5436 207.155 98.027 207.638 98.2686C207.155 98.2686 206.671 98.2686 206.187 98.2686C205.945 98.027 205.945 97.7853 205.945 97.7853L205.703 96.577Z" fill="#A49DAE"/>
<path d="M190.948 90.293C191.19 90.5347 191.432 90.7764 191.673 91.018L190.948 91.743C190.948 91.743 190.948 92.2263 190.706 92.7097C190.464 92.468 189.98 91.9847 189.738 91.743C189.738 91.5014 189.98 91.2597 189.98 91.2597L190.948 90.293Z" fill="#A49DAE"/>
<path d="M184.658 78.2108H186.109C186.109 78.6941 186.109 78.9357 186.109 79.4191H185.142C185.142 79.4191 184.658 79.6607 184.416 80.1441C184.416 79.6607 184.416 79.1774 184.416 78.6941C184.416 78.4524 184.658 78.2108 184.658 78.2108Z" fill="#A49DAE"/>
<path d="M186.351 81.5939C186.351 82.0772 186.593 82.3189 186.593 82.8022L185.625 83.0438C185.625 83.0438 185.625 83.0438 185.384 83.2855C185.384 83.5272 185.142 83.5272 184.9 83.7688C184.658 83.2855 184.658 82.8022 184.416 82.3189C184.658 82.0772 184.9 81.8355 184.9 81.8355L186.351 81.5939Z" fill="#A49DAE"/>
<path d="M199.173 95.8519C199.415 95.8519 199.899 96.0936 200.141 96.0936L199.899 97.0602C199.899 97.0602 200.141 97.5435 200.141 98.0269C199.657 98.0269 199.173 97.7852 198.689 97.5435C198.689 97.3019 198.447 97.0602 198.447 97.0602L199.173 95.8519Z" fill="#A49DAE"/>
<path d="M202.316 96.577C202.8 96.577 203.042 96.577 203.526 96.8187V97.7853C203.526 97.7853 203.768 98.2686 204.01 98.7519C203.526 98.7519 203.042 98.7519 202.558 98.5103C202.316 98.2686 202.316 98.027 202.316 98.027V96.577Z" fill="#A49DAE"/>
<path d="M196.026 94.4015C196.268 94.6432 196.752 94.6431 196.994 94.8848L196.51 95.8514V96.0931C196.51 96.3348 196.51 96.5765 196.51 96.8181C196.026 96.5765 195.543 96.3348 195.301 96.0931C195.301 95.8515 195.301 95.6098 195.301 95.6098L196.026 94.4015Z" fill="#A49DAE"/>
<path d="M193.368 92.7103C193.61 92.952 193.852 93.1936 194.336 93.4353L193.852 94.1603C193.852 94.1603 193.852 94.6436 193.852 95.1269C193.368 94.8852 193.126 94.6436 192.643 94.1603C192.643 93.9186 192.643 93.677 192.643 93.677L193.368 92.7103Z" fill="#A49DAE"/>
<path d="M192.4 60.811C192.884 61.0527 193.368 61.0527 193.368 61.0527L193.852 61.7777C194.094 61.5361 194.577 61.2944 194.819 61.0527L194.094 59.8444C194.094 59.8444 193.852 59.8444 193.852 59.6027C193.852 59.6027 193.852 59.6027 193.61 59.6027C193.368 60.3277 192.884 60.5694 192.4 60.811Z" fill="#A49DAE"/>
<path d="M206.672 57.6696V58.6363C207.155 58.6363 207.397 58.6362 207.881 58.8779L208.123 57.4279C208.123 57.4279 208.123 57.1863 207.881 56.9446C207.397 56.9446 206.913 56.9446 206.43 56.7029C206.43 57.1863 206.672 57.6696 206.672 57.6696Z" fill="#A49DAE"/>
<path d="M212.961 60.3279C213.203 60.5695 213.687 60.5695 213.929 60.8112L214.654 59.6029C214.654 59.6029 214.654 59.3612 214.654 59.1196C214.17 58.8779 213.687 58.6363 213.445 58.3946C213.445 58.6363 213.445 58.8779 213.445 59.1196C213.445 59.3612 213.445 59.3613 213.445 59.3613L212.961 60.3279Z" fill="#A49DAE"/>
<path d="M210.058 58.1531L209.816 59.1198C210.3 59.1198 210.542 59.3615 210.784 59.3615L211.267 58.1531C211.267 58.1531 211.267 57.9114 211.026 57.6698C210.542 57.4281 210.058 57.4281 209.574 57.1865C210.058 57.6698 210.058 58.1531 210.058 58.1531Z" fill="#A49DAE"/>
<path d="M198.93 57.6698C199.172 57.9114 199.172 57.9115 199.413 58.1531C199.655 58.3948 199.655 58.3948 199.655 58.3948L199.897 59.3615C200.139 59.3615 200.623 59.1198 201.107 59.1198L200.865 57.6698C200.865 57.6698 200.623 57.4281 200.381 57.1865C199.897 57.4281 199.413 57.4281 198.93 57.6698Z" fill="#A49DAE"/>
<path d="M189.981 65.8861C189.74 66.1277 189.498 66.3694 189.256 66.8527L188.53 66.3694C188.53 66.3694 188.046 66.3694 187.562 66.3694C187.804 65.886 188.046 65.6444 188.53 65.1611C188.772 65.1611 189.014 65.1611 189.014 65.1611L189.981 65.8861Z" fill="#A49DAE"/>
<path d="M186.835 71.6854C186.835 71.9271 186.593 72.4105 186.593 72.6521L185.626 72.4104C185.626 72.4104 185.142 72.6521 184.658 72.6521C184.658 72.1688 184.9 71.6855 185.142 71.2021C185.384 71.2021 185.626 70.9604 185.626 70.9604L186.835 71.6854Z" fill="#A49DAE"/>
<path d="M202.557 56.9446C202.799 57.4279 203.282 57.6696 203.282 57.6696V58.6363C203.766 58.6363 204.008 58.6363 204.492 58.6363V57.1863C204.492 57.1863 204.25 56.9446 204.25 56.7029C203.524 56.7029 203.04 56.703 202.557 56.9446Z" fill="#A49DAE"/>
<path d="M195.545 58.8779C196.029 59.1196 196.271 59.3613 196.271 59.3613L196.754 60.3279C196.996 60.0862 197.48 60.0863 197.722 59.8446L197.238 58.6363C197.238 58.6363 196.996 58.3946 196.754 58.3946C196.513 58.3946 196.029 58.6362 195.545 58.8779Z" fill="#A49DAE"/>
<path d="M188.288 68.5444C188.046 68.786 188.046 69.2694 187.804 69.5111L186.837 69.0277H186.595C186.353 69.0277 186.111 69.0277 185.869 69.0277C186.111 68.5444 186.353 68.0611 186.595 67.8194C186.837 67.8194 187.079 67.8194 187.079 67.8194L188.288 68.5444Z" fill="#A49DAE"/>
<path d="M186.111 74.8276C186.111 75.311 186.111 75.5526 185.869 76.0359H184.901C184.901 76.0359 184.417 76.2776 183.934 76.5192C183.934 76.0359 183.934 75.5526 184.175 75.0693C184.417 74.8277 184.659 74.8276 184.659 74.8276H186.111Z" fill="#A49DAE"/>
<path d="M215.863 62.0197C216.105 62.2614 216.589 62.503 216.831 62.7447L217.557 61.7781C217.557 61.7781 217.557 61.5364 217.557 61.2947C217.073 61.053 216.831 60.8114 216.347 60.3281C216.347 60.8114 216.347 61.2947 216.347 61.2947L215.863 62.0197Z" fill="#A49DAE"/>
<path d="M192.399 63.4696C192.158 63.7113 191.916 63.9529 191.674 64.1946L190.948 63.4696C190.948 63.4696 190.464 63.4696 189.98 63.2279C190.222 62.9863 190.706 62.503 190.948 62.2613C191.19 62.2613 191.432 62.5029 191.432 62.5029L192.399 63.4696Z" fill="#A49DAE"/>
<path d="M218.525 63.9529C218.767 64.1946 219.009 64.4362 219.251 64.6779L220.219 63.7112C220.219 63.7112 220.219 63.4696 220.461 63.2279C220.219 62.9863 219.735 62.503 219.493 62.2613C219.493 62.7446 219.251 63.2279 219.251 63.2279L218.525 63.9529Z" fill="#A49DAE"/>
<path opacity="0.1" d="M218.525 63.9529C218.767 64.1946 219.009 64.4362 219.251 64.6779L220.219 63.7112C220.219 63.7112 220.219 63.4696 220.461 63.2279C220.219 62.9863 219.735 62.503 219.493 62.2613C219.493 62.7446 219.251 63.2279 219.251 63.2279L218.525 63.9529Z" fill="#9892A2"/>
<g opacity="0.15">
<path opacity="0.15" d="M184.657 82.319C184.657 82.319 184.416 82.319 184.657 82.319C184.416 82.319 184.416 82.319 184.657 82.319C184.416 82.0779 184.416 82.0779 184.657 82.319Z" fill="#9B94A4"/>
</g>
<path d="M189.254 77.4854C189.254 86.1852 196.269 93.1934 204.977 93.1934C213.685 93.1934 220.7 86.1852 220.7 77.4854C220.7 68.7856 213.685 61.7775 204.977 61.7775C196.269 61.7775 189.254 68.7856 189.254 77.4854Z" fill="#FEFEFE"/>
<path d="M191.916 77.4858C191.916 84.7356 197.722 90.5355 204.978 90.5355C212.235 90.5355 218.041 84.7356 218.041 77.4858C218.041 70.2359 212.235 64.436 204.978 64.436C197.963 64.6777 191.916 70.4776 191.916 77.4858Z" fill="#A49DAE"/>
<path d="M204.254 79.6606L205.705 75.3107L192.159 71.9274L191.434 74.5857L204.254 79.6606Z" fill="#E1D7EF"/>
<path d="M206.916 78.9357L203.288 76.2774L195.547 87.8771L197.966 89.8104L206.916 78.9357Z" fill="#E1D7EF"/>
<path d="M206.916 76.2774L203.287 78.9357L211.995 89.8104L214.414 87.8771L206.916 76.2774Z" fill="#E1D7EF"/>
<path d="M204.254 75.311L205.705 79.6609L218.768 74.586L217.8 71.9277L204.254 75.311Z" fill="#E1D7EF"/>
<path d="M202.801 77.4857H207.397L206.429 63.7111H203.526L202.801 77.4857Z" fill="#E1D7EF"/>
<path d="M204.979 82.3193C207.65 82.3193 209.816 80.1554 209.816 77.4861C209.816 74.8167 207.65 72.6528 204.979 72.6528C202.307 72.6528 200.141 74.8167 200.141 77.4861C200.141 80.1554 202.307 82.3193 204.979 82.3193Z" fill="#FEFEFE"/>
<path d="M39.2811 78.2107C39.2811 78.694 39.2811 78.9357 39.2811 79.419H38.3135C38.3135 79.419 37.8297 79.6607 37.5878 80.144L37.3459 80.3857C37.3459 81.1107 37.5878 81.594 37.5878 82.319V82.5606C37.5878 82.5606 37.5878 82.5606 37.8297 82.319C38.0716 82.0773 38.3135 81.8356 38.3135 81.8356L39.7649 81.594C39.7649 82.0773 40.0068 82.319 40.0068 82.8023L39.2811 83.0439H39.0392C39.0392 83.0439 39.0392 83.044 38.7973 83.2856C38.7973 83.5273 38.5554 83.5273 38.3135 83.7689L38.0716 84.0106C38.3135 84.7356 38.5554 85.4606 38.7973 86.1855C38.7973 86.1855 38.7973 85.9439 39.0392 85.9439C39.2811 85.7022 39.2811 85.4606 39.2811 85.4606L40.4906 84.9772C40.7325 85.2189 40.7325 85.7022 40.9744 85.9439L40.0068 86.4272C40.0068 86.4272 39.7649 86.9105 39.523 87.1522C39.523 87.3939 39.523 87.3938 39.2811 87.3938C39.523 88.1188 40.0068 88.6022 40.4906 89.3271V89.0855C40.4906 89.0855 40.4906 89.0855 40.4906 88.8438C40.4906 88.6022 40.7325 88.6022 40.7325 88.6022L41.9419 87.8772C42.1838 88.1188 42.4257 88.6022 42.6676 88.8438L41.9419 89.3271C41.9419 89.3271 41.7 89.8105 41.7 90.2938C41.7 90.5354 41.7 90.5354 41.7 90.5354C42.1838 91.0188 42.6676 91.7437 43.1514 92.2271V91.9854C43.1514 91.7438 43.3933 91.5021 43.3933 91.5021L44.3609 90.5354C44.6028 90.7771 44.8447 91.0188 45.0866 91.2604L44.3609 91.9854C44.3609 91.9854 44.3609 92.4687 44.119 92.9521C44.119 93.1937 44.119 93.1937 44.119 93.1937C44.6028 93.6771 45.3285 94.1604 45.8123 94.6437V94.402C45.8123 94.1604 45.8123 93.9187 45.8123 93.9187L46.538 92.9521C46.7799 93.1937 47.0218 93.4354 47.5056 93.6771L47.0218 94.402C47.0218 94.402 47.0218 94.8853 47.0218 95.3687C47.0218 95.6103 47.0218 95.6103 47.0218 95.6103C47.7475 96.0937 48.2313 96.3353 48.9569 96.8187V96.577C48.9569 96.3353 48.9569 96.0937 48.9569 96.0937L49.6826 94.8854C49.9245 95.127 50.4083 95.127 50.6502 95.3687L50.1664 96.3353V96.577C50.1664 96.8186 50.1664 97.0603 50.1664 97.302C50.1664 97.5436 50.1664 97.5436 50.1664 97.5436C50.8921 97.7853 51.6178 98.0269 52.3435 98.2686V98.027C52.3435 97.7853 52.1016 97.5436 52.1016 97.5436L52.5854 96.3353C52.8273 96.3353 53.3111 96.577 53.553 96.577L53.3111 97.5436C53.3111 97.5436 53.553 98.027 53.553 98.5103C53.553 98.5103 53.553 98.5103 53.553 98.7519C54.2787 98.9936 55.0044 98.9936 55.73 99.2353V98.9936C55.4882 98.7519 55.4882 98.5103 55.4882 98.5103L55.73 97.0603C56.2138 97.0603 56.4557 97.0603 56.9395 97.302V98.2686C56.9395 98.2686 57.1814 98.7519 57.4233 99.2353C57.4233 99.4769 57.4233 99.4769 57.6652 99.4769C57.9071 99.4769 57.9071 99.4769 58.149 99.4769C58.6328 99.4769 59.3585 99.4769 59.8423 99.4769C59.8423 99.4769 59.8423 99.2353 59.6004 99.2353C59.3585 98.9936 59.3585 98.7519 59.3585 98.7519V97.302C59.8423 97.302 60.0842 97.302 60.568 97.302V98.2686C60.568 98.2686 60.8099 98.7519 61.2937 98.9936L61.5356 99.2353C62.2613 99.2353 62.9869 98.9936 63.7126 98.7519C63.7126 98.7519 63.4707 98.7519 63.4707 98.5103C63.2288 98.2686 62.9869 98.027 62.9869 98.027L62.745 96.577C63.2288 96.577 63.4707 96.3353 63.9545 96.3353L64.1964 97.302C64.1964 97.302 64.1964 97.3019 64.4383 97.5436C64.6802 97.5436 64.6802 97.7853 64.9221 98.027L65.164 98.2686C65.8897 98.0269 66.6154 97.7853 67.3411 97.5436C67.3411 97.5436 67.0992 97.5436 67.0992 97.302C66.8573 97.0603 66.6154 97.0603 66.6154 97.0603L66.1316 95.852C66.3735 95.6103 66.8573 95.6103 67.0992 95.3687L67.583 96.3353C67.583 96.3353 68.0668 96.577 68.3087 96.8187C68.5506 96.8187 68.5506 96.8186 68.5506 97.0603C69.2763 96.8186 69.76 96.3353 70.4857 95.852H70.2438C70.2438 95.852 70.2438 95.852 70.0019 95.852C69.76 95.852 69.76 95.6103 69.76 95.6103L69.0344 94.402C69.2763 94.1604 69.76 93.9187 70.0019 93.6771L70.4857 94.402C70.4857 94.402 70.9695 94.6437 71.4533 94.6437C71.6952 94.6437 71.6952 94.6437 71.6952 94.6437C72.179 94.402 72.4209 94.1604 72.6628 93.6771C72.9047 93.4354 73.1466 93.4354 73.3885 93.1937H73.1466C72.9047 93.1937 72.6628 92.9521 72.6628 92.9521L71.2114 91.7438C71.4533 91.5021 71.6952 91.2604 71.9371 91.0188L72.6628 91.7438C72.6628 91.7438 73.1466 91.7438 73.6304 91.9854C73.8723 91.9854 73.8723 91.9854 73.8723 91.9854C74.3561 91.5021 74.8399 90.7771 75.3237 90.2938H75.0818C74.8399 90.2938 74.598 90.2938 74.598 90.2938L73.3885 89.3271C73.6304 89.0855 73.8723 88.8438 74.1142 88.3605L74.8399 88.8438C74.8399 88.8438 75.3237 88.8438 75.8075 88.8438C76.0494 88.8438 76.0494 88.8438 76.0494 88.8438C76.5331 88.1188 76.775 87.6355 77.2588 86.9105H77.0169C76.775 86.9105 76.5332 86.9105 76.5332 86.9105L75.3237 86.1855C75.5656 85.9439 75.5656 85.4606 75.8075 85.2189L76.775 85.7022H77.0169C77.2588 85.7022 77.5007 85.7022 77.7426 85.7022C77.9845 85.7022 77.9845 85.7022 77.9845 85.7022C78.2264 84.9772 78.4683 84.2523 78.7102 83.5273H78.4683C78.2264 83.5273 77.9845 83.7689 77.9845 83.7689L76.775 83.2856C76.775 83.044 77.0169 82.5606 77.0169 82.319L77.9845 82.5606C77.9845 82.5606 78.4683 82.319 78.9521 82.319C78.9521 82.319 78.9521 82.319 79.194 82.319C79.4359 81.594 79.4359 80.869 79.6778 80.144H79.4359C79.194 80.3857 78.9521 80.3857 78.9521 80.3857H77.2588C77.2588 79.9024 77.2588 79.6607 77.5007 79.1774H78.4683C78.4683 79.1774 78.9521 78.9357 79.4359 78.6941C79.6778 78.6941 79.6778 78.6941 79.6778 78.4524C79.6778 78.2107 79.6778 78.2107 79.6778 77.9691C79.6778 77.4858 79.6778 76.7608 79.6778 76.2775C79.6778 76.2775 79.4359 76.2774 79.4359 76.5191C79.194 76.7608 78.9521 76.7608 78.9521 76.7608H77.5007C77.5007 76.2775 77.5007 76.0358 77.5007 75.5525H78.4683C78.4683 75.5525 78.9521 75.3108 79.194 74.8275L79.4359 74.5858C79.4359 73.8608 79.194 73.1359 78.9521 72.4109C78.9521 72.4109 78.9521 72.6525 78.7102 72.6525C78.4683 72.8942 78.2264 73.1359 78.2264 73.1359L76.775 73.3775C76.775 72.8942 76.5332 72.6525 76.5332 72.1692L77.5007 71.9276C77.5007 71.9276 77.5007 71.9275 77.7426 71.6859C77.7426 71.4442 77.9845 71.4442 78.2264 71.2026L78.4683 70.9609C78.2264 70.2359 77.9845 69.5109 77.7426 68.786C77.7426 68.786 77.7426 69.0276 77.5007 69.0276C77.2588 69.2693 77.2588 69.5109 77.2588 69.5109L76.0494 69.9943C75.8075 69.7526 75.8075 69.2693 75.5656 69.0276L76.5332 68.5443C76.5332 68.5443 76.775 68.061 77.0169 67.8193C77.0169 67.5777 77.0169 67.5776 77.2588 67.5776C77.0169 66.8527 76.5331 66.3693 76.0494 65.6443V65.886C76.0494 65.886 76.0494 65.886 76.0494 66.1277C76.0494 66.3693 75.8075 66.3693 75.8075 66.3693L74.598 67.5776C74.3561 67.336 74.1142 66.8527 73.8723 66.611L74.598 66.1277C74.598 66.1277 74.8399 65.6444 74.8399 65.161C74.8399 64.9194 74.8399 64.9194 74.8399 64.9194C74.3561 64.436 73.8723 63.7111 73.3885 63.2277C73.3885 63.4694 73.3885 63.4694 73.3885 63.4694C73.3885 63.7111 73.1466 63.9527 73.1466 63.9527L72.179 64.9194C71.9371 64.6777 71.6952 64.4361 71.4533 64.1944L72.179 63.4694C72.179 63.4694 72.179 62.9861 72.4209 62.5027C72.4209 62.2611 72.4209 62.2611 72.4209 62.2611C71.9371 61.7778 71.2114 61.2944 70.7276 60.8111V61.0528C70.7276 61.2945 70.7276 61.5361 70.7276 61.5361L70.0019 62.5027C69.76 62.2611 69.5182 62.0195 69.0344 61.7778L69.5182 61.0528C69.5182 61.0528 69.5182 60.5695 69.5182 60.0861C69.5182 59.8445 69.5182 59.8445 69.5182 59.8445C68.7925 59.3612 68.3087 59.1195 67.583 58.6362V58.8778C67.583 59.1195 67.583 59.3612 67.583 59.3612L66.8573 60.5695C66.6154 60.3278 66.1316 60.3278 65.8897 60.0861L66.3735 59.1195V58.8778C66.3735 58.6362 66.3735 58.3945 66.3735 58.1529C66.3735 57.9112 66.3735 57.9112 66.3735 57.9112C65.6478 57.6695 64.9221 57.4279 64.1964 57.1862V57.4279C64.1964 57.6695 64.4383 57.9112 64.4383 57.9112L63.9545 59.1195C63.7126 59.1195 63.2288 58.8778 62.9869 58.8778L63.2288 57.9112C63.2288 57.9112 62.9869 57.4279 62.9869 56.9446C62.9869 56.9446 62.9869 56.9446 62.9869 56.7029C62.2613 56.4612 61.5356 56.4612 60.8099 56.2196V56.4612C61.0518 56.7029 61.0518 56.9446 61.0518 56.9446L60.8099 58.3945C60.3261 58.3945 60.0842 58.3945 59.6004 58.1529V57.1862C59.6004 57.1862 59.3585 56.7029 59.1166 56.2196C59.1166 55.9779 59.1166 55.9779 58.8747 55.9779C58.6328 55.9779 58.6328 55.9779 58.3909 55.9779C57.9071 55.9779 57.1814 55.9779 56.6976 55.9779C56.6976 55.9779 56.6976 56.2196 56.9395 56.2196C57.1814 56.4612 57.1814 56.7029 57.1814 56.7029V58.1529C56.6976 58.1529 56.4557 58.1529 55.9719 58.1529V57.1862C55.9719 57.1862 55.73 56.7029 55.2463 56.4612L55.0044 56.2196C54.2787 56.2196 53.553 56.4612 52.8273 56.7029C52.8273 56.7029 53.0692 56.7029 53.0692 56.9446C53.3111 57.1862 53.553 57.4279 53.553 57.4279L53.7949 58.8778C53.3111 58.8778 53.0692 59.1195 52.5854 59.1195L52.3435 58.1529C52.3435 58.1529 52.3435 58.1529 52.1016 57.9112C51.8597 57.9112 51.8597 57.6695 51.6178 57.4279L51.3759 57.1862C50.6502 57.4279 49.9245 57.6695 49.1988 57.9112C49.1988 57.9112 49.4407 57.9112 49.4407 58.1529C49.6826 58.3945 49.9245 58.3945 49.9245 58.3945L50.4083 59.6028C50.1664 59.8445 49.6826 59.8445 49.4407 60.0861L48.9569 59.1195C48.9569 59.1195 48.4732 58.8779 48.2313 58.6362C47.9894 58.6362 47.9894 58.6362 47.9894 58.3945C47.2637 58.6362 46.7799 59.1195 46.0542 59.6028H46.2961C46.2961 59.6028 46.2961 59.6028 46.538 59.6028C46.7799 59.6028 46.7799 59.8445 46.7799 59.8445L47.5056 61.0528C47.2637 61.2945 46.7799 61.5361 46.538 61.7778L46.0542 61.0528C46.0542 61.0528 45.5704 60.8111 45.0866 60.8111C44.8447 60.8111 44.8447 60.8111 44.8447 60.8111C44.3609 61.2944 43.8771 61.5361 43.3933 62.0194C43.3933 62.0194 43.3933 62.0194 43.1514 62.2611H43.3933C43.6352 62.2611 43.8771 62.5027 43.8771 62.5027L44.8447 63.4694C44.6028 63.7111 44.3609 63.9527 44.119 64.1944L43.3933 63.4694C43.3933 63.4694 42.9095 63.4694 42.4257 63.2277C42.1838 63.2277 42.1838 63.2277 42.1838 63.2277C41.7 63.7111 41.2163 64.436 40.7325 64.9194H40.9744C41.2163 64.9194 41.4582 64.9194 41.4582 64.9194L42.4257 65.6443C42.1838 65.886 41.9419 66.1277 41.7 66.611L40.9744 66.1277C40.9744 66.1277 40.4906 66.1277 40.0068 66.1277C39.7649 66.1277 39.7649 66.1277 39.7649 66.1277C39.2811 66.8526 39.0392 67.336 38.5554 68.061H38.7973C39.0392 68.061 39.2811 68.061 39.2811 68.061L40.4906 68.786C40.2487 69.0276 40.2487 69.5109 40.0068 69.7526L39.0392 69.2693H38.7973C38.5554 69.2693 38.3135 69.2693 38.0716 69.2693C37.8297 69.2693 37.8297 69.2693 37.8297 69.2693C37.5878 69.9942 37.3459 70.7193 37.104 71.4442H37.3459C37.5878 71.4442 37.8297 71.2026 37.8297 71.2026L39.0392 71.6859C39.0392 71.9275 38.7973 72.4109 38.7973 72.6525L37.8297 72.4109C37.8297 72.4109 37.3459 72.6525 36.8621 72.6525C36.8621 72.6525 36.8621 72.6525 36.6202 72.6525C36.3783 73.3775 36.3783 74.1025 36.1364 74.8275H36.3783C36.6202 74.5858 36.8621 74.5858 36.8621 74.5858L38.3135 74.8275C38.3135 75.3108 38.3135 75.5525 38.0716 76.0358H37.104C37.104 76.0358 36.6202 76.2774 36.1364 76.5191C35.8945 76.5191 35.8945 76.5191 35.8945 76.7608C35.8945 77.0024 35.8945 77.0024 35.8945 77.2441C35.8945 77.7274 35.8945 78.4524 35.8945 78.9357C35.8945 78.9357 36.1364 78.9357 36.1364 78.6941C36.3783 78.4524 36.6202 78.4524 36.6202 78.4524L39.2811 78.2107Z" fill="#9891A1"/>
<path d="M74.1152 66.6114C74.3571 66.853 74.599 67.3364 74.8409 67.578L76.0504 66.853C76.0504 66.853 76.0504 66.6114 76.2923 66.6114C76.2923 66.6114 76.2923 66.6114 76.2923 66.3697C76.0504 65.8864 75.8085 65.6447 75.3247 65.1614C75.0828 65.6447 75.0828 66.128 75.0828 66.128L74.1152 66.6114Z" fill="#A49DAE"/>
<path d="M41.7012 77.2441C41.9431 68.0609 49.6838 60.8111 58.8758 60.8111C68.0679 61.0528 75.3248 68.7859 75.3248 77.9691C75.0829 87.1522 67.3422 94.402 58.1502 94.402C48.7162 94.1604 41.4593 86.4272 41.7012 77.2441Z" fill="#A49DAE"/>
<path d="M39.7669 77.2445C40.0088 67.0947 48.4752 58.8782 58.8768 59.1198C69.0364 59.3615 77.2609 67.8196 77.019 78.2111C76.7771 88.3609 68.3107 96.5774 57.9092 96.3357C47.7495 95.8524 39.525 87.3942 39.7669 77.2445ZM40.0088 77.2445C39.7669 87.3942 47.7495 95.8524 57.9092 96.0941C68.0688 96.3357 76.5352 88.3609 76.7771 78.2111C77.019 68.0613 69.0364 59.6032 58.8768 59.3615C48.7171 58.8782 40.2507 67.0947 40.0088 77.2445Z" fill="#A49DAE"/>
<path d="M71.2109 91.7445L72.1785 92.7111C72.1785 92.7111 72.4204 92.7111 72.6623 92.9528C72.9042 92.7111 73.388 92.2278 73.6299 91.9861C73.1461 91.9861 72.6623 91.7445 72.6623 91.7445L71.9366 91.0195C71.6947 91.2611 71.4528 91.5028 71.2109 91.7445Z" fill="#A49DAE"/>
<path d="M73.3887 89.3273L74.3563 90.0523C74.3563 90.0523 74.5982 90.0523 74.8401 90.0523C75.0819 89.5689 75.3238 89.3273 75.8076 88.844C75.3238 88.844 74.8401 88.844 74.8401 88.844L74.1144 88.3607C73.8725 88.844 73.6306 89.0856 73.3887 89.3273Z" fill="#A49DAE"/>
<path d="M65.6484 95.3692C65.8903 95.1275 66.3741 95.1275 66.616 94.8859L67.0998 95.8525C67.0998 95.8525 67.5836 96.0941 67.8255 96.3358C67.3417 96.5775 66.8579 96.8191 66.3741 97.0608C66.1322 96.8191 65.8903 96.8191 65.8903 96.8191L65.6484 95.3692Z" fill="#A49DAE"/>
<path d="M69.2784 94.8857L68.5527 93.6774C68.7946 93.4357 69.2784 93.1941 69.5203 92.9524L70.0041 93.6774C70.0041 93.6774 70.4879 93.919 70.9717 93.919C70.4879 94.1607 70.246 94.4024 69.7622 94.644C69.7622 94.644 69.7622 94.644 69.5203 94.644C69.5203 95.1274 69.2784 94.8857 69.2784 94.8857Z" fill="#A49DAE"/>
<path d="M75.3242 86.6692L76.5337 87.3942C76.5337 87.3942 76.7756 87.3942 77.0175 87.3942C77.2594 86.9109 77.5013 86.4276 77.7432 86.1859C77.5013 86.1859 77.2594 86.1859 77.0175 86.1859C76.7756 86.1859 76.7756 86.1859 76.7756 86.1859L75.808 85.7026C75.5661 85.9443 75.5661 86.1859 75.3242 86.6692Z" fill="#A49DAE"/>
<path d="M77.5 75.794C77.5 76.2773 77.5 76.519 77.5 77.0023H78.9514C78.9514 77.0023 79.1933 76.7607 79.4352 76.7607C79.4352 76.2773 79.4352 75.794 79.4352 75.3107C78.9514 75.5523 78.7095 76.0357 78.7095 76.0357L77.5 75.794Z" fill="#A49DAE"/>
<path d="M62.5039 96.3356C62.9877 96.3356 63.2296 96.094 63.7134 96.094L63.9553 97.0606C63.9553 97.0606 63.9553 97.0606 64.1972 97.3023C64.4391 97.3023 64.4391 97.544 64.681 97.7856C64.1972 98.0273 63.7134 98.0273 63.2296 98.269C62.9877 98.0273 62.7458 97.7856 62.7458 97.7856L62.5039 96.3356Z" fill="#A49DAE"/>
<path d="M76.5312 83.5275L77.7407 84.0108C77.7407 84.0108 77.9826 84.0108 78.2245 83.7691C78.4664 83.2858 78.4664 82.8025 78.7083 82.3192C78.2245 82.5609 77.7407 82.5609 77.7407 82.5609L76.7731 82.3192C76.7731 82.8025 76.7731 83.2858 76.5312 83.5275Z" fill="#A49DAE"/>
<path d="M76.7754 72.653C76.7754 72.8947 77.0173 73.378 77.0173 73.8613L78.4687 73.6196C78.4687 73.6196 78.7106 73.378 78.9525 73.1363C78.9525 72.653 78.7106 72.1697 78.4687 71.6863C78.2268 71.928 78.2268 71.928 77.9849 72.1697C77.743 72.4113 77.743 72.4113 77.743 72.4113L76.7754 72.653Z" fill="#A49DAE"/>
<path d="M75.8086 69.511C76.0505 69.7527 76.0505 70.236 76.2924 70.4777L77.5019 69.9943C77.5019 69.9943 77.7438 69.7527 77.7438 69.511C77.5019 69.0277 77.26 68.5443 77.0181 68.3027C76.7762 68.786 76.5343 69.0277 76.5343 69.0277L75.8086 69.511Z" fill="#A49DAE"/>
<path d="M77.2598 80.3856L78.7111 80.6272C78.7111 80.6272 78.953 80.6272 79.1949 80.3856C79.1949 79.9023 79.1949 79.4189 79.4368 78.9356C78.953 79.1773 78.4692 79.4189 78.4692 79.4189H77.5017C77.5017 79.6606 77.5017 79.9023 77.2598 80.3856Z" fill="#A49DAE"/>
<path d="M40.9746 88.3611L42.1841 87.6361C42.426 87.8778 42.6679 88.3611 42.9098 88.6027L42.1841 89.086C42.1841 89.086 41.9422 89.5694 41.9422 90.0527C41.7003 89.5694 41.4584 89.3277 41.2165 88.8444C41.2165 88.8444 41.2165 88.8444 41.2165 88.6027C40.9746 88.6027 40.9746 88.3611 40.9746 88.3611Z" fill="#A49DAE"/>
<path d="M40.7323 84.7357C40.9742 84.9774 40.9742 85.4607 41.2161 85.7023L40.2485 86.1856C40.2485 86.1856 40.0066 86.6689 39.7648 86.9106C39.5229 86.4273 39.281 85.944 39.0391 85.4607C39.281 85.219 39.281 84.9774 39.281 84.9774L40.7323 84.7357Z" fill="#A49DAE"/>
<path d="M59.1172 96.5773C59.601 96.5773 59.8429 96.5773 60.3267 96.5773V97.5439C60.3267 97.5439 60.5686 98.0272 61.0524 98.2689C60.5686 98.2689 60.0848 98.2689 59.601 98.2689C59.3591 98.0272 59.3591 97.7856 59.3591 97.7856L59.1172 96.5773Z" fill="#A49DAE"/>
<path d="M44.1196 90.2936C44.3615 90.5352 44.6034 90.7769 44.8453 91.0186L44.1196 91.7436C44.1196 91.7436 44.1196 92.2269 43.8777 92.7102C43.6358 92.4686 43.1521 91.9852 42.9102 91.7436C42.9102 91.5019 43.1521 91.2603 43.1521 91.2603L44.1196 90.2936Z" fill="#A49DAE"/>
<path d="M38.072 78.2111H39.5234C39.5234 78.6944 39.5234 78.9361 39.5234 79.4194H38.5558C38.5558 79.4194 38.072 79.661 37.8301 80.1444C37.8301 79.661 37.8301 79.1777 37.8301 78.6944C37.8301 78.4528 38.072 78.2111 38.072 78.2111Z" fill="#A49DAE"/>
<path d="M39.7653 81.5944C39.7653 82.0777 40.0072 82.3194 40.0072 82.8027L39.0396 83.0444C39.0396 83.0444 39.0396 83.0444 38.7977 83.286C38.7977 83.5277 38.5558 83.5277 38.3139 83.7693C38.072 83.286 38.072 82.8027 37.8301 82.3194C38.072 82.0777 38.3139 81.8361 38.3139 81.8361L39.7653 81.5944Z" fill="#A49DAE"/>
<path d="M52.5851 95.8525C52.827 95.8525 53.3108 96.0942 53.5527 96.0942L53.3108 97.0608C53.3108 97.0608 53.5527 97.5442 53.5527 98.0275C53.0689 98.0275 52.5851 97.7858 52.1013 97.5441C52.1013 97.3025 51.8594 97.0608 51.8594 97.0608L52.5851 95.8525Z" fill="#A49DAE"/>
<path d="M55.7305 96.5773C56.2143 96.5773 56.4562 96.5773 56.94 96.8189V97.7855C56.94 97.7855 57.1818 98.2688 57.4237 98.7522C56.94 98.7522 56.4562 98.7522 55.9724 98.5105C55.7305 98.2689 55.7305 98.0272 55.7305 98.0272V96.5773Z" fill="#A49DAE"/>
<path d="M49.4405 94.4018C49.6824 94.6435 50.1662 94.6435 50.4081 94.8851L49.9243 95.8518V96.0934C49.9243 96.3351 49.9243 96.5768 49.9243 96.8184C49.4405 96.5768 48.9567 96.3351 48.7148 96.0934C48.7148 95.8518 48.7148 95.6101 48.7148 95.6101L49.4405 94.4018Z" fill="#A49DAE"/>
<path d="M46.5382 92.7106C46.7801 92.9523 47.022 93.194 47.5058 93.4356L47.022 94.1606C47.022 94.1606 47.022 94.6439 47.022 95.1272C46.5382 94.8855 46.2963 94.6439 45.8125 94.1606C45.8125 93.9189 45.8125 93.6773 45.8125 93.6773L46.5382 92.7106Z" fill="#A49DAE"/>
<path d="M45.8125 60.8113C46.2963 61.0529 46.7801 61.053 46.7801 61.053L47.2639 61.778C47.5058 61.5363 47.9896 61.2946 48.2315 61.053L47.5058 59.8446C47.5058 59.8446 47.2639 59.8446 47.2639 59.603C47.2639 59.603 47.2639 59.603 47.022 59.603C46.7801 60.328 46.2963 60.5696 45.8125 60.8113Z" fill="#A49DAE"/>
<path d="M60.0837 57.6701V58.6367C60.5675 58.6367 60.8094 58.6367 61.2932 58.8784L61.5351 57.4284C61.5351 57.4284 61.5351 57.1868 61.2932 56.9451C60.8094 56.9451 60.3256 56.9451 59.8418 56.7034C59.8418 57.1868 60.0837 57.6701 60.0837 57.6701Z" fill="#A49DAE"/>
<path d="M66.375 60.3282C66.6169 60.5698 67.1007 60.5698 67.3426 60.8115L68.0683 59.6032C68.0683 59.6032 68.0683 59.3615 68.0683 59.1199C67.5845 58.8782 67.1007 58.6366 66.8588 58.3949C66.8588 58.6366 66.8588 58.8782 66.8588 59.1199C66.8588 59.3615 66.8588 59.3616 66.8588 59.3616L66.375 60.3282Z" fill="#A49DAE"/>
<path d="M63.4721 58.1534L63.2302 59.1201C63.714 59.1201 63.9559 59.3618 64.1978 59.3618L64.6816 58.1534C64.6816 58.1534 64.6816 57.9118 64.4397 57.6701C63.9559 57.4284 63.4721 57.4284 62.9883 57.1868C63.4721 57.6701 63.4721 58.1534 63.4721 58.1534Z" fill="#A49DAE"/>
<path d="M52.3438 57.6701C52.5856 57.9118 52.5856 57.9118 52.8275 58.1534C53.0694 58.3951 53.0694 58.3951 53.0694 58.3951L53.3113 59.3618C53.5532 59.3618 54.037 59.1201 54.5208 59.1201L54.2789 57.6701C54.2789 57.6701 54.037 57.4284 53.7951 57.1868C53.3113 57.4284 52.8275 57.4284 52.3438 57.6701Z" fill="#A49DAE"/>
<path d="M43.3936 65.8864C43.1517 66.128 42.9098 66.3697 42.6679 66.853L41.9422 66.3697C41.9422 66.3697 41.4584 66.3697 40.9746 66.3697C41.2165 65.8864 41.4584 65.6447 41.9422 65.1614C42.1841 65.1614 42.426 65.1614 42.426 65.1614L43.3936 65.8864Z" fill="#A49DAE"/>
<path d="M40.2513 71.6857C40.2513 71.9274 40.0094 72.4107 40.0094 72.6524L39.0418 72.4107C39.0418 72.4107 38.558 72.6524 38.0742 72.6524C38.0742 72.169 38.3161 71.6857 38.558 71.2024C38.7999 71.2024 39.0418 70.9607 39.0418 70.9607L40.2513 71.6857Z" fill="#A49DAE"/>
<path d="M55.9727 56.9451C56.2146 57.4284 56.6983 57.6701 56.6983 57.6701V58.6367C57.1821 58.6367 57.424 58.6367 57.9078 58.6367V57.1868C57.9078 57.1868 57.6659 56.9451 57.6659 56.7034C56.9402 56.7034 56.4564 56.7034 55.9727 56.9451Z" fill="#A49DAE"/>
<path d="M48.959 58.8782C49.4428 59.1199 49.6847 59.3616 49.6847 59.3616L50.1685 60.3282C50.4104 60.0866 50.8942 60.0866 51.1361 59.8449L50.6523 58.6366C50.6523 58.6366 50.4104 58.3949 50.1685 58.3949C49.9266 58.3949 49.4428 58.6366 48.959 58.8782Z" fill="#A49DAE"/>
<path d="M41.7022 68.5441C41.4603 68.7857 41.4603 69.2691 41.2184 69.5107L40.2508 69.0274H40.0089C39.767 69.0274 39.5251 69.0274 39.2832 69.0274C39.5251 68.5441 39.767 68.0608 40.0089 67.8191C40.2508 67.8191 40.4927 67.8191 40.4927 67.8191L41.7022 68.5441Z" fill="#A49DAE"/>
<path d="M39.5208 74.8279C39.5208 75.3113 39.5208 75.5529 39.2789 76.0362H38.3113C38.3113 76.0362 37.8275 76.2779 37.3438 76.5195C37.3438 76.0362 37.3438 75.5529 37.5856 75.0696C37.8275 74.828 38.0694 74.8279 38.0694 74.8279H39.5208Z" fill="#A49DAE"/>
<path d="M69.2773 62.0202C69.5192 62.2619 70.003 62.5036 70.2449 62.7452L70.9706 61.7786C70.9706 61.7786 70.9706 61.5369 70.9706 61.2952C70.4868 61.0536 70.2449 60.8119 69.7611 60.3286C69.7611 60.8119 69.7611 61.2952 69.7611 61.2952L69.2773 62.0202Z" fill="#A49DAE"/>
<path d="M45.5694 63.4702C45.3275 63.7118 45.0856 63.9535 44.8437 64.1952L44.118 63.4702C44.118 63.4702 43.6342 63.4701 43.1504 63.2285C43.3923 62.9868 43.8761 62.5035 44.118 62.2618C44.3599 62.2618 44.6018 62.5035 44.6018 62.5035L45.5694 63.4702Z" fill="#A49DAE"/>
<path d="M71.9375 63.9535C72.1794 64.1951 72.4213 64.4368 72.6632 64.6784L73.6308 63.7118C73.6308 63.7118 73.6308 63.4701 73.8727 63.2285C73.6308 62.9868 73.147 62.5035 72.9051 62.2618C72.9051 62.7452 72.6632 63.2285 72.6632 63.2285L71.9375 63.9535Z" fill="#A49DAE"/>
<path opacity="0.1" d="M71.9375 63.9535C72.1794 64.1951 72.4213 64.4368 72.6632 64.6784L73.6308 63.7118C73.6308 63.7118 73.6308 63.4701 73.8727 63.2285C73.6308 62.9868 73.147 62.5035 72.9051 62.2618C72.9051 62.7452 72.6632 63.2285 72.6632 63.2285L71.9375 63.9535Z" fill="#9892A2"/>
<g opacity="0.15">
<path opacity="0.15" d="M38.0695 82.3187C38.0695 82.3187 37.8284 82.3187 38.0695 82.3187C37.8284 82.3187 37.8284 82.3187 38.0695 82.3187C37.8284 82.0776 37.8284 82.0776 38.0695 82.3187Z" fill="#9B94A4"/>
</g>
<path d="M42.668 77.4857C42.668 86.1855 49.683 93.1936 58.3912 93.1936C67.0995 93.1936 74.1145 86.1855 74.1145 77.4857C74.1145 68.7859 67.0995 61.7777 58.3912 61.7777C49.683 61.7777 42.668 68.7859 42.668 77.4857Z" fill="#FEFEFE"/>
<path d="M45.3301 77.486C45.3301 84.7359 51.1356 90.5357 58.3925 90.5357C65.6494 90.5357 71.4549 84.7359 71.4549 77.486C71.4549 70.2362 65.6494 64.4363 58.3925 64.4363C51.1356 64.6779 45.3301 70.4778 45.3301 77.486Z" fill="#A49DAE"/>
<path d="M57.6659 79.6607L59.1173 75.3107L45.5711 71.9275L44.6035 74.5857L57.6659 79.6607Z" fill="#E1D7EF"/>
<path d="M60.3281 78.9355L56.6997 76.2772L48.959 87.877L51.3779 89.8103L60.3281 78.9355Z" fill="#E1D7EF"/>
<path d="M60.3257 76.2775L56.6973 78.9357L65.4055 89.8105L67.8245 87.8772L60.3257 76.2775Z" fill="#E1D7EF"/>
<path d="M57.668 75.3107L59.1193 79.6607L72.1818 74.5857L71.2142 71.9275L57.668 75.3107Z" fill="#E1D7EF"/>
<path d="M56.2168 77.4858H60.8128L59.8452 63.7111H56.9425L56.2168 77.4858Z" fill="#E1D7EF"/>
<path d="M53.7949 77.4861C53.7949 80.1444 55.972 82.3194 58.6329 82.3194C61.2937 82.3194 63.4708 80.1444 63.4708 77.4861C63.4708 74.8279 61.2937 72.6529 58.6329 72.6529C55.7301 72.8946 53.7949 75.0695 53.7949 77.4861Z" fill="#FEFEFE"/>
<path d="M58.3904 57.428H49.1983C39.5224 57.428 31.298 64.9196 30.5723 74.586C31.0561 63.9529 35.6521 52.1115 58.3904 57.428Z" fill="#CCC3D9"/>
<path d="M206.189 57.428H196.997C187.321 57.428 179.097 64.9196 178.371 74.586C178.855 63.9529 183.451 52.1115 206.189 57.428Z" fill="#CCC3D9"/>
<g opacity="0.75">
<path opacity="0.75" d="M70.7266 10.3044L85.4823 29.6373L101.206 29.879L84.0309 7.16284H83.5471C80.4024 7.16284 77.4997 7.16286 74.1131 7.40452C73.8712 7.40452 73.6293 7.40451 73.1455 7.88783C72.4198 8.37115 71.6941 9.09614 70.7266 10.3044Z" fill="white"/>
<path opacity="0.75" d="M85.9648 7.1629L103.139 29.879H108.219L91.0447 7.1629C90.5609 7.1629 90.0771 7.1629 89.5933 7.1629H88.3838C87.4162 7.1629 86.6905 7.1629 85.9648 7.1629Z" fill="white"/>
</g>
<g opacity="0.75">
<path opacity="0.75" d="M31.5391 19.0043L39.0379 28.6707L45.811 28.9124C45.811 28.9124 46.0529 28.9124 46.0529 28.6707C47.0204 26.4958 47.988 24.0792 49.1975 21.6626L39.2798 8.85455C37.5865 9.8212 36.6189 11.2712 35.4094 12.9628C34.1999 14.6544 32.7485 16.8293 31.5391 19.0043Z" fill="white"/>
<path opacity="0.75" d="M40.7305 8.12923L49.9225 20.2123C50.6482 18.7623 51.132 17.554 51.8577 16.1041L45.0846 7.1626C43.1494 7.40426 41.94 7.64591 40.7305 8.12923Z" fill="white"/>
</g>
</svg>
