<svg width="247" height="66" viewBox="0 0 247 66" fill="none" xmlns="http://www.w3.org/2000/svg">
<path d="M3.97323 39.5665H4.45702C4.94083 39.5665 5.42465 38.8415 5.42465 37.8749L6.15033 32.075C6.15033 31.1084 5.90846 30.1417 5.42465 29.9001H5.18274C4.69893 29.9001 4.21514 30.6251 4.21514 31.5917L3.48943 37.3916C3.24753 38.5999 3.48942 39.5665 3.97323 39.5665Z" fill="#C1B8CD"/>
<path d="M241.997 41.4996L243.69 41.258C244.658 41.258 245.626 40.2913 245.626 39.083L246.351 31.1082C246.351 29.8999 245.868 28.9333 244.658 28.6916L243.69 28.45L241.997 41.4996Z" fill="#D0C7DD"/>
<path d="M241.272 41.9825L243.691 41.7408L245.143 28.2078L242.24 27.9661L241.272 41.9825Z" fill="#9C95A6"/>
<path d="M241.756 49.9576H244.417C245.143 49.9576 245.626 49.4743 245.868 48.7493L246.594 44.3994C246.836 43.6744 246.11 42.7077 245.143 42.7077H241.514L240.789 48.5076C240.547 49.2326 241.03 49.9576 241.756 49.9576Z" fill="#E1D7EF"/>
<path d="M12.6795 50.6826L38.5624 52.3742H40.0138L43.1585 52.6159H221.194L236.192 50.6826C239.336 50.1993 241.997 47.7827 242.481 44.3995L244.174 28.4498C244.658 24.3416 241.755 23.6166 237.643 23.3749L170.154 19.9917C167.735 19.75 165.316 19.025 163.139 17.3334L143.304 2.10877C141.852 1.14213 140.401 0.417114 138.708 0.417114H80.4105C74.8469 0.417114 69.2832 2.59208 65.171 6.70032L56.4628 15.1585C55.4952 16.1251 54.0438 16.8501 52.5924 17.0917L9.29296 26.0332C7.11589 26.5165 5.66449 28.2082 5.4226 30.3831L4.21312 40.2912C3.72932 45.8494 7.35777 50.441 12.6795 50.6826Z" fill="#A69FB0"/>
<path opacity="0.2" d="M173.784 22.6495L237.161 25.7911C238.612 25.7911 242.483 26.0328 241.999 29.1744L240.306 44.6407C241.273 26.9994 239.338 27.9661 231.839 27.4828L173.784 22.6495Z" fill="#EDE3FC"/>
<path opacity="0.2" d="M6.14844 41.0163L7.35792 31.1082C7.59982 29.8999 8.32551 28.9333 9.77689 28.4499L52.5926 19.0251C52.8345 19.0251 53.3183 19.2668 53.3183 19.2668C11.4702 29.1749 9.53499 28.4499 6.14844 41.0163Z" fill="#EDE3FC"/>
<path d="M138.225 3.07513C139.434 3.07513 140.644 3.55846 141.611 4.28344L161.447 19.5081C162.414 20.2331 163.14 20.7164 164.108 21.1997L166.768 32.0745L164.108 51.1657H111.374L113.309 31.3495L111.374 3.31681H138.225V3.07513Z" fill="#9C95A6"/>
<path d="M113.794 5.00861H138.467C139.193 5.00861 140.161 5.25027 140.644 5.7336L160.48 20.9583C160.722 20.9583 160.722 21.1999 160.964 21.1999H115.003L113.794 5.00861Z" fill="#DDD3EA"/>
<path d="M74.3645 5.97506C75.574 4.04177 77.751 3.07513 80.17 3.07513H109.923L111.858 31.1079L109.923 50.9241H78.7186C77.9929 42.4659 71.9455 35.4578 63.9629 32.7995V23.3747C63.9629 21.683 64.4467 20.2331 65.4143 19.0248L74.3645 5.97506Z" fill="#9C95A6"/>
<path d="M75.8143 7.18355C76.7819 5.73358 78.2332 5.00861 79.9265 5.00861H107.745L108.954 21.4416H65.8965L75.8143 7.18355Z" fill="#DDD3EA"/>
<path d="M124.919 24.0997H116.211V26.9996H124.919V24.0997Z" fill="#E1D7EF"/>
<path d="M74.6048 24.0997H65.8965V26.9996H74.6048V24.0997Z" fill="#E1D7EF"/>
<path d="M4.21343 40.7742V41.9826H9.53509C12.1959 41.9826 14.373 44.1575 14.373 46.8158L2.76204 46.3325C1.55256 46.3325 0.10118 45.1242 0.343076 43.9158C0.343076 43.6742 0.343076 43.4325 0.343076 43.1909C0.584972 41.7409 1.55257 40.7742 3.00395 40.7742H4.21343Z" fill="#E1D7EF"/>
<path d="M236.677 48.7495H243.692C244.417 48.7495 244.901 48.2661 244.901 47.7828L245.385 45.8495C245.627 45.1245 244.901 44.1579 244.176 44.1579H237.161C236.435 44.1579 235.951 44.6412 235.951 45.1245L235.467 47.0578C235.225 47.7828 235.951 48.7495 236.677 48.7495Z" fill="#E1D7EF"/>
<path d="M152.98 22.1668L157.093 24.1001L157.334 21.9251L153.706 18.5419L152.98 22.1668Z" fill="#A69FB0"/>
<path d="M151.77 15.8835H152.012C152.98 16.1252 153.947 16.8502 154.189 17.8168L154.673 19.9918C155.156 22.1667 153.221 24.3417 151.044 24.1H150.561L151.77 15.8835Z" fill="#A69FB0"/>
<path d="M181.524 52.8579H217.083L216.116 47.2997C215.39 43.6747 213.213 41.0165 210.31 39.3248C208.859 38.5998 206.924 38.1165 205.23 38.1165H194.587C192.168 38.1165 189.991 38.8415 188.056 40.0498C185.395 41.7415 183.218 44.6414 182.734 48.0247L181.524 52.8579Z" fill="#A49DAE"/>
<path d="M38.3213 52.6162H39.7726H40.9821L42.9173 52.8579H73.6381L72.6705 47.2997C71.9449 43.9164 69.7678 41.0165 66.865 39.3248C65.4137 38.5998 63.4785 38.1165 61.5433 38.1165H50.8999C48.4809 38.1165 46.3039 38.8415 44.3687 40.0498C41.4659 41.7415 39.5307 44.6414 39.0469 48.2663L38.3213 52.6162Z" fill="#A49DAE"/>
<g opacity="0.75">
<path opacity="0.75" d="M130.482 5.73438L142.093 20.959H132.901L121.29 5.73438H130.482Z" fill="white"/>
<path opacity="0.75" d="M134.593 5.73395L145.962 20.9586H143.06L131.69 5.73395H134.593Z" fill="white"/>
</g>
<g opacity="0.75">
<path opacity="0.75" d="M90.5709 5.73438L101.94 20.959H92.9898L81.3789 5.73438H90.5709Z" fill="white"/>
<path opacity="0.75" d="M94.6856 5.73395L106.055 20.9586H103.152L91.541 5.73395H94.6856Z" fill="white"/>
</g>
<path opacity="0.2" d="M0.341797 43.1911C0.341797 43.4327 0.341797 43.6744 0.341797 43.916C0.341797 45.1243 1.55128 46.3326 2.76076 46.3326L5.42164 46.5743C6.87302 48.9909 9.53387 50.6826 12.4366 50.6826L38.3196 52.3742H39.7709L42.9156 52.6159H73.6365H181.28H216.839H220.952L235.949 50.6826C237.642 50.4409 239.336 49.7159 240.303 48.2659H240.545C240.545 48.9909 241.029 49.4743 241.513 49.4743H244.174C244.899 49.4743 245.383 48.9909 245.625 48.2659L246.351 43.916C246.351 43.6744 246.351 43.6744 246.351 43.4327L3.72834 32.7996L3.24455 36.9079C3.00265 38.1162 3.48645 39.0828 3.97025 39.0828H4.21216V40.0495H3.24455C1.79317 40.7745 0.583694 41.7411 0.341797 43.1911Z" fill="#8E8796"/>
<path d="M189.506 49.9574C189.506 55.274 193.86 59.6239 199.182 59.6239C204.503 59.6239 208.858 55.274 208.858 49.9574C208.858 44.6409 204.503 40.291 199.182 40.291C193.86 40.291 189.506 44.6409 189.506 49.9574Z" fill="#E1D7EF"/>
<path d="M183.942 49.9579C183.942 50.9246 183.942 51.8912 184.184 52.8579C185.636 59.8661 191.683 65.1826 199.182 65.1826C206.681 65.1826 212.728 59.8661 214.179 52.8579C214.421 51.8912 214.421 50.9246 214.421 49.9579C214.421 45.8497 212.728 41.9831 210.067 39.3248C208.616 38.5998 206.681 38.1165 204.987 38.1165H194.344C191.925 38.1165 189.748 38.8415 187.813 40.0498C185.394 42.7081 183.942 46.333 183.942 49.9579ZM199.182 59.3827C195.07 59.3827 191.441 56.7245 190.232 52.8579C189.99 51.8912 189.748 50.9246 189.748 49.9579C189.748 44.883 193.86 40.5331 199.182 40.5331C204.262 40.5331 208.616 44.6414 208.616 49.9579C208.616 50.9246 208.374 51.8912 208.132 52.8579C206.923 56.7245 203.536 59.3827 199.182 59.3827Z" fill="#9891A1"/>
<path d="M192.167 49.9576C192.167 53.8242 195.312 56.9658 199.182 56.9658C203.052 56.9658 206.197 53.8242 206.197 49.9576C206.197 46.091 203.052 42.9495 199.182 42.9495C195.312 42.9495 192.167 46.091 192.167 49.9576Z" fill="white"/>
<path d="M195.067 49.9574C195.067 52.374 197.003 54.3074 199.421 54.3074C201.84 54.3074 203.776 52.374 203.776 49.9574C203.776 47.5408 201.84 45.6075 199.421 45.6075C197.003 45.8491 195.067 47.7824 195.067 49.9574Z" fill="#E1D7EF"/>
<path opacity="0.5" d="M203.051 42.2241C204.503 42.9491 205.712 44.1574 206.68 45.3657L199.423 49.7156L203.051 42.2241Z" fill="white"/>
<path opacity="0.5" d="M199.181 49.9578L195.31 57.6909C193.859 56.9659 192.649 55.7576 191.682 54.3077L199.181 49.9578Z" fill="white"/>
<path d="M46.3027 49.9574C46.3027 55.274 50.6569 59.6239 55.9786 59.6239C61.3003 59.6239 65.6544 55.274 65.6544 49.9574C65.6544 44.6409 61.3003 40.291 55.9786 40.291C50.6569 40.291 46.3027 44.6409 46.3027 49.9574Z" fill="#E1D7EF"/>
<path d="M40.9805 49.9579C40.9805 50.9246 40.9805 51.8912 41.2224 52.6162C42.4319 59.6244 48.7212 65.1826 56.2199 65.1826C63.7187 65.1826 69.7661 59.8661 71.2174 52.8579C71.4593 51.8912 71.4593 50.9246 71.4593 49.9579C71.4593 45.8497 69.7661 41.9831 67.1052 39.3248C65.6539 38.5998 63.7187 38.1165 61.7835 38.1165H51.1401C48.7212 38.1165 46.5441 38.8415 44.6089 40.0498C42.1899 42.7081 40.9805 46.0913 40.9805 49.9579ZM56.2199 59.3827C52.1077 59.3827 48.4792 56.7245 47.2698 52.8579C47.0279 51.8912 46.786 50.9246 46.786 49.9579C46.786 44.883 50.8982 40.5331 56.2199 40.5331C61.2997 40.5331 65.6539 44.6414 65.6539 49.9579C65.6539 50.9246 65.4119 51.8912 65.17 52.8579C63.9606 56.7245 60.3322 59.3827 56.2199 59.3827Z" fill="#9891A1"/>
<path d="M48.9639 49.9576C48.9639 53.8242 52.1085 56.9658 55.9788 56.9658C59.8491 56.9658 62.9937 53.8242 62.9937 49.9576C62.9937 46.091 59.8491 42.9495 55.9788 42.9495C52.1085 42.9495 48.9639 46.091 48.9639 49.9576Z" fill="white"/>
<path d="M51.8662 49.9574C51.8662 52.374 53.8014 54.3074 56.2204 54.3074C58.6394 54.3074 60.5745 52.374 60.5745 49.9574C60.5745 47.5408 58.6394 45.6075 56.2204 45.6075C53.8014 45.8491 51.8662 47.7824 51.8662 49.9574Z" fill="#E1D7EF"/>
<path opacity="0.5" d="M59.8481 42.2241C61.2995 42.9491 62.509 44.1574 63.4766 45.3657L56.2197 49.7156L59.8481 42.2241Z" fill="white"/>
<path opacity="0.5" d="M56.2204 49.9578L52.3501 57.6909C50.8987 56.9659 49.6893 55.7576 48.7217 54.3077L56.2204 49.9578Z" fill="white"/>
</svg>
