<svg width="169" height="108" viewBox="0 0 169 108" fill="none" xmlns="http://www.w3.org/2000/svg">
<g filter="url(#filter0_d)">
<path d="M149.405 0.506348H19.4054C11.1581 0.506348 4.45786 7.16438 4.40566 15.4114L4.09554 64.4114C4.04287 72.7326 10.7739 79.5063 19.0952 79.5063H105L125 99.5063L145 79.5063H149.095C157.342 79.5063 164.042 72.8483 164.094 64.6013L164.404 15.6013C164.457 7.28008 157.726 0.506348 149.405 0.506348Z" fill="white"/>
<path d="M25.9609 29.7407L22.9688 34.5063H21.3984L24.6016 29.5142C23.763 29.2485 23.1536 28.8475 22.7734 28.311C22.3932 27.7694 22.2031 27.0871 22.2031 26.2642C22.2031 25.2433 22.5547 24.4595 23.2578 23.9126C23.9661 23.3605 25.0365 23.0845 26.4688 23.0845H29.6094V34.5063H28.2812V29.7407H25.9609ZM28.2812 24.2329H26.5078C25.5547 24.2329 24.8307 24.397 24.3359 24.7251C23.8411 25.0532 23.5938 25.5871 23.5938 26.3267C23.5938 27.8423 24.5807 28.6001 26.5547 28.6001H28.2812V24.2329ZM43.6641 28.0923C43.6641 28.6496 43.5026 29.0741 43.1797 29.3657C42.862 29.6522 42.4141 29.8449 41.8359 29.9438V30.0142C42.5651 30.1131 43.0964 30.3267 43.4297 30.6548C43.7682 30.9829 43.9375 31.436 43.9375 32.0142C43.9375 32.811 43.6432 33.4256 43.0547 33.8579C42.4714 34.2902 41.6172 34.5063 40.4922 34.5063H36.7188V25.9438H40.4766C42.6016 25.9438 43.6641 26.66 43.6641 28.0923ZM42.6406 31.9282C42.6406 31.4647 42.4635 31.1287 42.1094 30.9204C41.7604 30.7069 41.1797 30.6001 40.3672 30.6001H38.0156V33.4204H40.3984C41.8932 33.4204 42.6406 32.923 42.6406 31.9282ZM42.3984 28.2173C42.3984 27.8006 42.237 27.5063 41.9141 27.3345C41.5964 27.1574 41.112 27.0688 40.4609 27.0688H38.0156V29.4829H40.2109C41.013 29.4829 41.5781 29.384 41.9062 29.186C42.2344 28.9881 42.3984 28.6652 42.3984 28.2173ZM53.2188 30.2173C53.2188 31.6131 52.8672 32.7043 52.1641 33.4907C51.4609 34.272 50.4896 34.6626 49.25 34.6626C48.4844 34.6626 47.8047 34.4829 47.2109 34.1235C46.6172 33.7642 46.1589 33.2485 45.8359 32.5767C45.513 31.9048 45.3516 31.1183 45.3516 30.2173C45.3516 28.8215 45.7005 27.7355 46.3984 26.9595C47.0964 26.1782 48.0651 25.7876 49.3047 25.7876C50.5026 25.7876 51.4531 26.186 52.1562 26.9829C52.8646 27.7798 53.2188 28.8579 53.2188 30.2173ZM46.6953 30.2173C46.6953 31.311 46.9141 32.1444 47.3516 32.7173C47.7891 33.2902 48.4323 33.5767 49.2812 33.5767C50.1302 33.5767 50.7734 33.2928 51.2109 32.7251C51.6536 32.1522 51.875 31.3162 51.875 30.2173C51.875 29.1287 51.6536 28.3032 51.2109 27.7407C50.7734 27.173 50.125 26.8892 49.2656 26.8892C48.4167 26.8892 47.776 27.1678 47.3438 27.7251C46.9115 28.2824 46.6953 29.1131 46.6953 30.2173ZM62.8906 30.2173C62.8906 31.6131 62.5391 32.7043 61.8359 33.4907C61.1328 34.272 60.1615 34.6626 58.9219 34.6626C58.1562 34.6626 57.4766 34.4829 56.8828 34.1235C56.2891 33.7642 55.8307 33.2485 55.5078 32.5767C55.1849 31.9048 55.0234 31.1183 55.0234 30.2173C55.0234 28.8215 55.3724 27.7355 56.0703 26.9595C56.7682 26.1782 57.737 25.7876 58.9766 25.7876C60.1745 25.7876 61.125 26.186 61.8281 26.9829C62.5365 27.7798 62.8906 28.8579 62.8906 30.2173ZM56.3672 30.2173C56.3672 31.311 56.5859 32.1444 57.0234 32.7173C57.4609 33.2902 58.1042 33.5767 58.9531 33.5767C59.8021 33.5767 60.4453 33.2928 60.8828 32.7251C61.3255 32.1522 61.5469 31.3162 61.5469 30.2173C61.5469 29.1287 61.3255 28.3032 60.8828 27.7407C60.4453 27.173 59.7969 26.8892 58.9375 26.8892C58.0885 26.8892 57.4479 27.1678 57.0156 27.7251C56.5833 28.2824 56.3672 29.1131 56.3672 30.2173ZM64.7266 29.3735C64.7266 27.4985 65.0026 26.0376 65.5547 24.9907C66.1068 23.9386 66.9818 23.2824 68.1797 23.022C69.6693 22.7043 70.9818 22.4465 72.1172 22.2485L72.3594 23.3892C70.5521 23.6912 69.2604 23.9308 68.4844 24.1079C67.7292 24.2798 67.1615 24.686 66.7812 25.3267C66.4062 25.9673 66.2005 26.8397 66.1641 27.9438H66.2578C66.5807 27.5063 66.9974 27.1626 67.5078 26.9126C68.0182 26.6626 68.5521 26.5376 69.1094 26.5376C70.1615 26.5376 70.9818 26.8787 71.5703 27.561C72.1589 28.2433 72.4531 29.1886 72.4531 30.397C72.4531 31.7355 72.112 32.7824 71.4297 33.5376C70.7474 34.2876 69.7969 34.6626 68.5781 34.6626C67.375 34.6626 66.4323 34.2017 65.75 33.2798C65.0677 32.3579 64.7266 31.0558 64.7266 29.3735ZM68.6953 33.5767C70.2839 33.5767 71.0781 32.5636 71.0781 30.5376C71.0781 28.6053 70.3568 27.6392 68.9141 27.6392C68.5182 27.6392 68.1354 27.7225 67.7656 27.8892C67.401 28.0506 67.0651 28.2668 66.7578 28.5376C66.4557 28.8084 66.2214 29.0871 66.0547 29.3735C66.0547 30.7433 66.2708 31.7876 66.7031 32.5063C67.1354 33.2199 67.7995 33.5767 68.6953 33.5767ZM81.1016 33.3892H84.8984V25.9595H86.1953V33.3892H87.4219V37.4517H86.1094V34.5063H74.7188V25.9595H76.0156V33.3892H79.8047V25.9595H81.1016V33.3892ZM92.6953 34.6626C91.4297 34.6626 90.4297 34.2772 89.6953 33.5063C88.9661 32.7355 88.6016 31.6652 88.6016 30.2954C88.6016 28.9152 88.9401 27.8188 89.6172 27.0063C90.2995 26.1938 91.2135 25.7876 92.3594 25.7876C93.4323 25.7876 94.2812 26.1418 94.9062 26.8501C95.5312 27.5532 95.8438 28.4829 95.8438 29.6392V30.4595H89.9453C89.9714 31.4647 90.224 32.2277 90.7031 32.7485C91.1875 33.2694 91.8672 33.5298 92.7422 33.5298C93.6641 33.5298 94.5755 33.3371 95.4766 32.9517V34.1079C95.0182 34.3058 94.5833 34.4465 94.1719 34.5298C93.7656 34.6183 93.2734 34.6626 92.6953 34.6626ZM92.3438 26.8735C91.6562 26.8735 91.1068 27.0975 90.6953 27.5454C90.2891 27.9933 90.0495 28.6131 89.9766 29.4048H94.4531C94.4531 28.5871 94.2708 27.9621 93.9062 27.5298C93.5417 27.0923 93.0208 26.8735 92.3438 26.8735ZM97.3438 30.811V29.6235H101.18V30.811H97.3438ZM108.992 27.0532H106.211V34.5063H104.914V27.0532H102.164V25.9438H108.992V27.0532ZM118.078 30.2173C118.078 31.6131 117.727 32.7043 117.023 33.4907C116.32 34.272 115.349 34.6626 114.109 34.6626C113.344 34.6626 112.664 34.4829 112.07 34.1235C111.477 33.7642 111.018 33.2485 110.695 32.5767C110.372 31.9048 110.211 31.1183 110.211 30.2173C110.211 28.8215 110.56 27.7355 111.258 26.9595C111.956 26.1782 112.924 25.7876 114.164 25.7876C115.362 25.7876 116.312 26.186 117.016 26.9829C117.724 27.7798 118.078 28.8579 118.078 30.2173ZM111.555 30.2173C111.555 31.311 111.773 32.1444 112.211 32.7173C112.648 33.2902 113.292 33.5767 114.141 33.5767C114.99 33.5767 115.633 33.2928 116.07 32.7251C116.513 32.1522 116.734 31.3162 116.734 30.2173C116.734 29.1287 116.513 28.3032 116.07 27.7407C115.633 27.173 114.984 26.8892 114.125 26.8892C113.276 26.8892 112.635 27.1678 112.203 27.7251C111.771 28.2824 111.555 29.1131 111.555 30.2173ZM125.812 25.9438V29.5298H130.609V25.9438H131.906V34.5063H130.609V30.647H125.812V34.5063H124.516V25.9438H125.812ZM138.273 34.6626C137.008 34.6626 136.008 34.2772 135.273 33.5063C134.544 32.7355 134.18 31.6652 134.18 30.2954C134.18 28.9152 134.518 27.8188 135.195 27.0063C135.878 26.1938 136.792 25.7876 137.938 25.7876C139.01 25.7876 139.859 26.1418 140.484 26.8501C141.109 27.5532 141.422 28.4829 141.422 29.6392V30.4595H135.523C135.549 31.4647 135.802 32.2277 136.281 32.7485C136.766 33.2694 137.445 33.5298 138.32 33.5298C139.242 33.5298 140.154 33.3371 141.055 32.9517V34.1079C140.596 34.3058 140.161 34.4465 139.75 34.5298C139.344 34.6183 138.852 34.6626 138.273 34.6626ZM137.922 26.8735C137.234 26.8735 136.685 27.0975 136.273 27.5454C135.867 27.9933 135.628 28.6131 135.555 29.4048H140.031C140.031 28.5871 139.849 27.9621 139.484 27.5298C139.12 27.0923 138.599 26.8735 137.922 26.8735ZM24.0078 51.4985C25.6276 51.4985 26.4375 51.0506 26.4375 50.1548C26.4375 49.311 25.7812 48.8892 24.4688 48.8892C24.0677 48.8892 23.7031 48.9256 23.375 48.9985C23.0469 49.0715 22.6172 49.2173 22.0859 49.436L21.625 48.3813C22.5104 47.9855 23.4766 47.7876 24.5234 47.7876C25.5078 47.7876 26.2839 47.9907 26.8516 48.397C27.4193 48.798 27.7031 49.3475 27.7031 50.0454C27.7031 51.0037 27.1693 51.6313 26.1016 51.9282V51.9907C26.7578 52.1834 27.237 52.4595 27.5391 52.8188C27.8411 53.173 27.9922 53.6183 27.9922 54.1548C27.9922 54.9465 27.6719 55.5636 27.0312 56.0063C26.3958 56.4438 25.5156 56.6626 24.3906 56.6626C23.1562 56.6626 22.2031 56.4777 21.5312 56.1079V54.9204C22.4844 55.3683 23.4479 55.5923 24.4219 55.5923C25.1719 55.5923 25.737 55.4647 26.1172 55.2095C26.5026 54.9491 26.6953 54.5767 26.6953 54.0923C26.6953 53.0975 25.8854 52.6001 24.2656 52.6001H23.0781V51.4985H24.0078ZM35.375 56.5063L35.1172 55.2876H35.0547C34.6276 55.8241 34.2005 56.1886 33.7734 56.3813C33.3516 56.5688 32.8229 56.6626 32.1875 56.6626C31.3385 56.6626 30.6719 56.4438 30.1875 56.0063C29.7083 55.5688 29.4688 54.9465 29.4688 54.1392C29.4688 52.41 30.8516 51.5037 33.6172 51.4204L35.0703 51.3735V50.8423C35.0703 50.1704 34.9245 49.6756 34.6328 49.3579C34.3464 49.035 33.8854 48.8735 33.25 48.8735C32.5365 48.8735 31.7292 49.0923 30.8281 49.5298L30.4297 48.5376C30.8516 48.3084 31.3125 48.1287 31.8125 47.9985C32.3177 47.8683 32.8229 47.8032 33.3281 47.8032C34.349 47.8032 35.1042 48.0298 35.5938 48.4829C36.0885 48.936 36.3359 49.6626 36.3359 50.6626V56.5063H35.375ZM32.4453 55.5923C33.2526 55.5923 33.8854 55.3709 34.3438 54.9282C34.8073 54.4855 35.0391 53.8657 35.0391 53.0688V52.2954L33.7422 52.3501C32.7109 52.3866 31.9661 52.548 31.5078 52.8345C31.0547 53.1157 30.8281 53.5558 30.8281 54.1548C30.8281 54.6235 30.9688 54.9803 31.25 55.2251C31.5365 55.4699 31.9349 55.5923 32.4453 55.5923ZM50.1172 50.0923C50.1172 50.6496 49.9557 51.0741 49.6328 51.3657C49.3151 51.6522 48.8672 51.8449 48.2891 51.9438V52.0142C49.0182 52.1131 49.5495 52.3267 49.8828 52.6548C50.2214 52.9829 50.3906 53.436 50.3906 54.0142C50.3906 54.811 50.0964 55.4256 49.5078 55.8579C48.9245 56.2902 48.0703 56.5063 46.9453 56.5063H43.1719V47.9438H46.9297C49.0547 47.9438 50.1172 48.66 50.1172 50.0923ZM49.0938 53.9282C49.0938 53.4647 48.9167 53.1287 48.5625 52.9204C48.2135 52.7069 47.6328 52.6001 46.8203 52.6001H44.4688V55.4204H46.8516C48.3464 55.4204 49.0938 54.923 49.0938 53.9282ZM48.8516 50.2173C48.8516 49.8006 48.6901 49.5063 48.3672 49.3345C48.0495 49.1574 47.5651 49.0688 46.9141 49.0688H44.4688V51.4829H46.6641C47.4661 51.4829 48.0312 51.384 48.3594 51.186C48.6875 50.9881 48.8516 50.6652 48.8516 50.2173ZM57.5469 56.5063L57.2891 55.2876H57.2266C56.7995 55.8241 56.3724 56.1886 55.9453 56.3813C55.5234 56.5688 54.9948 56.6626 54.3594 56.6626C53.5104 56.6626 52.8438 56.4438 52.3594 56.0063C51.8802 55.5688 51.6406 54.9465 51.6406 54.1392C51.6406 52.41 53.0234 51.5037 55.7891 51.4204L57.2422 51.3735V50.8423C57.2422 50.1704 57.0964 49.6756 56.8047 49.3579C56.5182 49.035 56.0573 48.8735 55.4219 48.8735C54.7083 48.8735 53.901 49.0923 53 49.5298L52.6016 48.5376C53.0234 48.3084 53.4844 48.1287 53.9844 47.9985C54.4896 47.8683 54.9948 47.8032 55.5 47.8032C56.5208 47.8032 57.276 48.0298 57.7656 48.4829C58.2604 48.936 58.5078 49.6626 58.5078 50.6626V56.5063H57.5469ZM54.6172 55.5923C55.4245 55.5923 56.0573 55.3709 56.5156 54.9282C56.9792 54.4855 57.2109 53.8657 57.2109 53.0688V52.2954L55.9141 52.3501C54.8828 52.3866 54.138 52.548 53.6797 52.8345C53.2266 53.1157 53 53.5558 53 54.1548C53 54.6235 53.1406 54.9803 53.4219 55.2251C53.7083 55.4699 54.1068 55.5923 54.6172 55.5923ZM65.6328 55.2563L65.875 54.5298L66.2109 53.6079L68.5312 47.9595H70.1797V56.5063H69.0312V49.436L68.875 49.8892L68.4219 51.0845L66.2109 56.5063H65.125L62.9141 51.0688C62.638 50.3709 62.4479 49.8267 62.3438 49.436V56.5063H61.1875V47.9595H62.7734L65.0156 53.3892C65.2396 53.9621 65.4453 54.5845 65.6328 55.2563ZM74.1719 47.9438V53.3735L74.1172 54.7954L74.0938 55.2407L78.7266 47.9438H80.3438V56.5063H79.1328V51.272L79.1562 50.2407L79.1953 49.2251L74.5703 56.5063H72.9531V47.9438H74.1719ZM84.2656 53.3579H83.4453L83.0469 45.0845H84.6641L84.2656 53.3579ZM82.9062 55.6782C82.9062 54.9699 83.2188 54.6157 83.8438 54.6157C84.1458 54.6157 84.3776 54.7069 84.5391 54.8892C84.7057 55.0715 84.7891 55.3345 84.7891 55.6782C84.7891 56.0116 84.7057 56.272 84.5391 56.4595C84.3724 56.6418 84.1406 56.7329 83.8438 56.7329C83.5729 56.7329 83.349 56.6522 83.1719 56.4907C82.9948 56.3241 82.9062 56.0532 82.9062 55.6782Z" fill="#1E0606"/>
</g>
<defs>
<filter id="filter0_d" x="0.0957031" y="0.506348" width="168.31" height="107" filterUnits="userSpaceOnUse" color-interpolation-filters="sRGB">
<feFlood flood-opacity="0" result="BackgroundImageFix"/>
<feColorMatrix in="SourceAlpha" type="matrix" values="0 0 0 0 0 0 0 0 0 0 0 0 0 0 0 0 0 0 127 0"/>
<feOffset dy="4"/>
<feGaussianBlur stdDeviation="2"/>
<feColorMatrix type="matrix" values="0 0 0 0 0 0 0 0 0 0 0 0 0 0 0 0 0 0 0.25 0"/>
<feBlend mode="normal" in2="BackgroundImageFix" result="effect1_dropShadow"/>
<feBlend mode="normal" in="SourceGraphic" in2="effect1_dropShadow" result="shape"/>
</filter>
</defs>
</svg>
