<svg width="168" height="86" viewBox="0 0 168 86" fill="none" xmlns="http://www.w3.org/2000/svg">
<g filter="url(#filter0_d)">
<path d="M149 0.781006H19C10.7157 0.781006 4 7.49674 4 15.781V42.781C4 51.0653 10.7157 57.781 19 57.781H28L48 77.781L68 57.781H149C157.284 57.781 164 51.0653 164 42.781V15.781C164 7.49674 157.284 0.781006 149 0.781006Z" fill="white"/>
<path d="M24.6484 24.3826C23.7526 24.3826 22.8828 24.5805 22.0391 24.9763L21.4766 23.8513C22.3724 23.4138 23.4349 23.1951 24.6641 23.1951C25.7943 23.1951 26.7656 23.4242 27.5781 23.8826C28.3958 24.3409 29.0156 24.9945 29.4375 25.8435C29.8594 26.6925 30.0703 27.6925 30.0703 28.8435C30.0703 30.8018 29.5964 32.307 28.6484 33.3591C27.7005 34.4112 26.3359 34.9373 24.5547 34.9373C23.3724 34.9373 22.375 34.7888 21.5625 34.4919V33.3279C21.9948 33.4373 22.4349 33.5362 22.8828 33.6248C23.3307 33.7133 23.8125 33.7576 24.3281 33.7576C25.7396 33.7576 26.8047 33.3826 27.5234 32.6326C28.2422 31.8774 28.6224 30.7914 28.6641 29.3748H23.0469V28.1873H28.6484C28.5339 26.9945 28.1224 26.0623 27.4141 25.3904C26.7109 24.7185 25.7891 24.3826 24.6484 24.3826ZM33.6719 26.2185V31.6482L33.6172 33.0701L33.5938 33.5154L38.2266 26.2185H39.8438V34.781H38.6328V29.5466L38.6562 28.5154L38.6953 27.4998L34.0703 34.781H32.4531V26.2185H33.6719ZM36.1172 25.0857C35.1536 25.0857 34.4505 24.9008 34.0078 24.531C33.5651 24.156 33.3177 23.5414 33.2656 22.6873H34.4844C34.5312 23.2289 34.6719 23.6065 34.9062 23.8201C35.1458 24.0336 35.5599 24.1404 36.1484 24.1404C36.6849 24.1404 37.0807 24.0258 37.3359 23.7966C37.5964 23.5675 37.7552 23.1977 37.8125 22.6873H39.0391C38.9766 23.5102 38.7135 24.1169 38.25 24.5076C37.7865 24.893 37.0755 25.0857 36.1172 25.0857ZM43.9531 32.9216L44.0703 33.1013C43.9349 33.6222 43.7396 34.2263 43.4844 34.9138C43.2292 35.6065 42.9635 36.2498 42.6875 36.8435H41.7109C41.8516 36.3018 42.0052 35.6326 42.1719 34.8357C42.3438 34.0388 42.4635 33.4008 42.5312 32.9216H43.9531ZM56.4453 27.3279H53.6641V34.781H52.3672V27.3279H49.6172V26.2185H56.4453V27.3279ZM63.4062 34.781L63.1484 33.5623H63.0859C62.6589 34.0987 62.2318 34.4633 61.8047 34.656C61.3828 34.8435 60.8542 34.9373 60.2188 34.9373C59.3698 34.9373 58.7031 34.7185 58.2188 34.281C57.7396 33.8435 57.5 33.2211 57.5 32.4138C57.5 30.6847 58.8828 29.7784 61.6484 29.6951L63.1016 29.6482V29.1169C63.1016 28.4451 62.9557 27.9503 62.6641 27.6326C62.3776 27.3097 61.9167 27.1482 61.2812 27.1482C60.5677 27.1482 59.7604 27.3669 58.8594 27.8044L58.4609 26.8123C58.8828 26.5831 59.3438 26.4034 59.8438 26.2732C60.349 26.143 60.8542 26.0779 61.3594 26.0779C62.3802 26.0779 63.1354 26.3044 63.625 26.7576C64.1198 27.2107 64.3672 27.9373 64.3672 28.9373V34.781H63.4062ZM60.4766 33.8669C61.2839 33.8669 61.9167 33.6456 62.375 33.2029C62.8385 32.7602 63.0703 32.1404 63.0703 31.3435V30.5701L61.7734 30.6248C60.7422 30.6612 59.9974 30.8227 59.5391 31.1091C59.0859 31.3904 58.8594 31.8305 58.8594 32.4294C58.8594 32.8982 59 33.255 59.2812 33.4998C59.5677 33.7445 59.9661 33.8669 60.4766 33.8669ZM72.0391 26.2185H73.4609L69.7656 30.3513L73.7656 34.781H72.25L68.3438 30.4451V34.781H67.0469V26.2185H68.3438V30.3826L72.0391 26.2185ZM78.7812 34.9373C77.5417 34.9373 76.5807 34.557 75.8984 33.7966C75.2214 33.031 74.8828 31.9503 74.8828 30.5544C74.8828 29.1222 75.2266 28.0154 75.9141 27.2341C76.6068 26.4529 77.5911 26.0623 78.8672 26.0623C79.2786 26.0623 79.6901 26.1065 80.1016 26.1951C80.513 26.2836 80.8359 26.3878 81.0703 26.5076L80.6719 27.6091C80.3854 27.4945 80.0729 27.4008 79.7344 27.3279C79.3958 27.2498 79.0964 27.2107 78.8359 27.2107C77.0964 27.2107 76.2266 28.3201 76.2266 30.5388C76.2266 31.5909 76.4375 32.3982 76.8594 32.9607C77.2865 33.5232 77.9167 33.8044 78.75 33.8044C79.4635 33.8044 80.1953 33.6508 80.9453 33.3435V34.4919C80.3724 34.7888 79.651 34.9373 78.7812 34.9373ZM84.2031 26.2185V31.6482L84.1484 33.0701L84.125 33.5154L88.7578 26.2185H90.375V34.781H89.1641V29.5466L89.1875 28.5154L89.2266 27.4998L84.6016 34.781H82.9844V26.2185H84.2031ZM94.4844 32.9216L94.6016 33.1013C94.4661 33.6222 94.2708 34.2263 94.0156 34.9138C93.7604 35.6065 93.4948 36.2498 93.2188 36.8435H92.2422C92.3828 36.3018 92.5365 35.6326 92.7031 34.8357C92.875 34.0388 92.9948 33.4008 93.0625 32.9216H94.4844ZM106.977 27.3279H104.195V34.781H102.898V27.3279H100.148V26.2185H106.977V27.3279ZM113.938 34.781L113.68 33.5623H113.617C113.19 34.0987 112.763 34.4633 112.336 34.656C111.914 34.8435 111.385 34.9373 110.75 34.9373C109.901 34.9373 109.234 34.7185 108.75 34.281C108.271 33.8435 108.031 33.2211 108.031 32.4138C108.031 30.6847 109.414 29.7784 112.18 29.6951L113.633 29.6482V29.1169C113.633 28.4451 113.487 27.9503 113.195 27.6326C112.909 27.3097 112.448 27.1482 111.812 27.1482C111.099 27.1482 110.292 27.3669 109.391 27.8044L108.992 26.8123C109.414 26.5831 109.875 26.4034 110.375 26.2732C110.88 26.143 111.385 26.0779 111.891 26.0779C112.911 26.0779 113.667 26.3044 114.156 26.7576C114.651 27.2107 114.898 27.9373 114.898 28.9373V34.781H113.938ZM111.008 33.8669C111.815 33.8669 112.448 33.6456 112.906 33.2029C113.37 32.7602 113.602 32.1404 113.602 31.3435V30.5701L112.305 30.6248C111.273 30.6612 110.529 30.8227 110.07 31.1091C109.617 31.3904 109.391 31.8305 109.391 32.4294C109.391 32.8982 109.531 33.255 109.812 33.4998C110.099 33.7445 110.497 33.8669 111.008 33.8669ZM122.57 26.2185H123.992L120.297 30.3513L124.297 34.781H122.781L118.875 30.4451V34.781H117.578V26.2185H118.875V30.3826L122.57 26.2185ZM129.312 34.9373C128.073 34.9373 127.112 34.557 126.43 33.7966C125.753 33.031 125.414 31.9503 125.414 30.5544C125.414 29.1222 125.758 28.0154 126.445 27.2341C127.138 26.4529 128.122 26.0623 129.398 26.0623C129.81 26.0623 130.221 26.1065 130.633 26.1951C131.044 26.2836 131.367 26.3878 131.602 26.5076L131.203 27.6091C130.917 27.4945 130.604 27.4008 130.266 27.3279C129.927 27.2498 129.628 27.2107 129.367 27.2107C127.628 27.2107 126.758 28.3201 126.758 30.5388C126.758 31.5909 126.969 32.3982 127.391 32.9607C127.818 33.5232 128.448 33.8044 129.281 33.8044C129.995 33.8044 130.727 33.6508 131.477 33.3435V34.4919C130.904 34.7888 130.182 34.9373 129.312 34.9373ZM134.734 26.2185V31.6482L134.68 33.0701L134.656 33.5154L139.289 26.2185H140.906V34.781H139.695V29.5466L139.719 28.5154L139.758 27.4998L135.133 34.781H133.516V26.2185H134.734ZM144.828 31.6326H144.008L143.609 23.3591H145.227L144.828 31.6326ZM143.469 33.9529C143.469 33.2445 143.781 32.8904 144.406 32.8904C144.708 32.8904 144.94 32.9815 145.102 33.1638C145.268 33.3461 145.352 33.6091 145.352 33.9529C145.352 34.2862 145.268 34.5466 145.102 34.7341C144.935 34.9164 144.703 35.0076 144.406 35.0076C144.135 35.0076 143.911 34.9268 143.734 34.7654C143.557 34.5987 143.469 34.3279 143.469 33.9529Z" fill="#1E0606"/>
</g>
<defs>
<filter id="filter0_d" x="0" y="0.781006" width="168" height="85" filterUnits="userSpaceOnUse" color-interpolation-filters="sRGB">
<feFlood flood-opacity="0" result="BackgroundImageFix"/>
<feColorMatrix in="SourceAlpha" type="matrix" values="0 0 0 0 0 0 0 0 0 0 0 0 0 0 0 0 0 0 127 0"/>
<feOffset dy="4"/>
<feGaussianBlur stdDeviation="2"/>
<feColorMatrix type="matrix" values="0 0 0 0 0 0 0 0 0 0 0 0 0 0 0 0 0 0 0.25 0"/>
<feBlend mode="normal" in2="BackgroundImageFix" result="effect1_dropShadow"/>
<feBlend mode="normal" in="SourceGraphic" in2="effect1_dropShadow" result="shape"/>
</filter>
</defs>
</svg>
