<svg width="169" height="108" viewBox="0 0 169 108" fill="none" xmlns="http://www.w3.org/2000/svg">
<g filter="url(#filter0_d)">
<path d="M149.405 0.316895H19.4054C11.1581 0.316895 4.45786 6.97493 4.40566 15.222L4.09554 64.222C4.04287 72.5432 10.7739 79.3169 19.0952 79.3169H105L125 99.3169L145 79.3169H149.095C157.342 79.3169 164.042 72.6589 164.094 64.4118L164.404 15.4118C164.457 7.09063 157.726 0.316895 149.405 0.316895Z" fill="white"/>
<path d="M31.5781 37.2935H30.3125V34.3169H22.375V37.2935H21.1094V33.1138H21.9922C22.7943 31.7648 23.4792 30.1242 24.0469 28.1919C24.6198 26.2596 24.9375 24.494 25 22.895H30.1328V33.1138H31.5781V37.2935ZM28.8047 33.1138V24.0903H26.2031C26.1094 25.3507 25.7943 26.8664 25.2578 28.6372C24.7214 30.4028 24.0964 31.895 23.3828 33.1138H28.8047ZM37.2188 25.77H38.4141V29.9185L41.9531 25.77H43.375L39.7969 29.9185L43.6797 34.3169H42.1797L38.4141 29.981V34.3169H37.2188V29.981L33.4609 34.3169H31.9688L35.8438 29.9185L32.2734 25.77H33.6953L37.2188 29.9185V25.77ZM48.7109 34.4731C47.4453 34.4731 46.4453 34.0877 45.7109 33.3169C44.9818 32.5461 44.6172 31.4757 44.6172 30.106C44.6172 28.7257 44.9557 27.6294 45.6328 26.8169C46.3151 26.0044 47.2292 25.5981 48.375 25.5981C49.4479 25.5981 50.2969 25.9523 50.9219 26.6606C51.5469 27.3638 51.8594 28.2935 51.8594 29.4497V30.27H45.9609C45.987 31.2752 46.2396 32.0382 46.7188 32.5591C47.2031 33.0799 47.8828 33.3403 48.7578 33.3403C49.6797 33.3403 50.5911 33.1476 51.4922 32.7622V33.9185C51.0339 34.1164 50.599 34.257 50.1875 34.3403C49.7812 34.4289 49.2891 34.4731 48.7109 34.4731ZM48.3594 26.6841C47.6719 26.6841 47.1224 26.908 46.7109 27.356C46.3047 27.8039 46.0651 28.4237 45.9922 29.2153H50.4688C50.4688 28.3976 50.2865 27.7726 49.9219 27.3403C49.5573 26.9028 49.0365 26.6841 48.3594 26.6841ZM57.5 34.4731C56.2604 34.4731 55.2995 34.0929 54.6172 33.3325C53.9401 32.5669 53.6016 31.4862 53.6016 30.0903C53.6016 28.658 53.9453 27.5513 54.6328 26.77C55.3255 25.9888 56.3099 25.5981 57.5859 25.5981C57.9974 25.5981 58.4089 25.6424 58.8203 25.731C59.2318 25.8195 59.5547 25.9237 59.7891 26.0435L59.3906 27.145C59.1042 27.0304 58.7917 26.9367 58.4531 26.8638C58.1146 26.7856 57.8151 26.7466 57.5547 26.7466C55.8151 26.7466 54.9453 27.856 54.9453 30.0747C54.9453 31.1268 55.1562 31.9341 55.5781 32.4966C56.0052 33.0591 56.6354 33.3403 57.4688 33.3403C58.1823 33.3403 58.9141 33.1867 59.6641 32.8794V34.0278C59.0911 34.3247 58.3698 34.4731 57.5 34.4731ZM62.9219 25.7544V31.1841L62.8672 32.606L62.8438 33.0513L67.4766 25.7544H69.0938V34.3169H67.8828V29.0825L67.9062 28.0513L67.9453 27.0356L63.3203 34.3169H61.7031V25.7544H62.9219ZM73.2031 32.4575L73.3203 32.6372C73.1849 33.158 72.9896 33.7622 72.7344 34.4497C72.4792 35.1424 72.2135 35.7856 71.9375 36.3794H70.9609C71.1016 35.8377 71.2552 35.1685 71.4219 34.3716C71.5938 33.5747 71.7135 32.9367 71.7812 32.4575H73.2031ZM83.3438 34.4731C82.1042 34.4731 81.1432 34.0929 80.4609 33.3325C79.7839 32.5669 79.4453 31.4862 79.4453 30.0903C79.4453 28.658 79.7891 27.5513 80.4766 26.77C81.1693 25.9888 82.1536 25.5981 83.4297 25.5981C83.8411 25.5981 84.2526 25.6424 84.6641 25.731C85.0755 25.8195 85.3984 25.9237 85.6328 26.0435L85.2344 27.145C84.9479 27.0304 84.6354 26.9367 84.2969 26.8638C83.9583 26.7856 83.6589 26.7466 83.3984 26.7466C81.6589 26.7466 80.7891 27.856 80.7891 30.0747C80.7891 31.1268 81 31.9341 81.4219 32.4966C81.849 33.0591 82.4792 33.3403 83.3125 33.3403C84.026 33.3403 84.7578 33.1867 85.5078 32.8794V34.0278C84.9349 34.3247 84.2135 34.4731 83.3438 34.4731ZM91.9922 33.0669L92.2344 32.3403L92.5703 31.4185L94.8906 25.77H96.5391V34.3169H95.3906V27.2466L95.2344 27.6997L94.7812 28.895L92.5703 34.3169H91.4844L89.2734 28.8794C88.9974 28.1815 88.8073 27.6372 88.7031 27.2466V34.3169H87.5469V25.77H89.1328L91.375 31.1997C91.599 31.7726 91.8047 32.395 91.9922 33.0669ZM106.703 30.0278C106.703 31.4237 106.352 32.5148 105.648 33.3013C104.945 34.0825 103.974 34.4731 102.734 34.4731C101.969 34.4731 101.289 34.2935 100.695 33.9341C100.102 33.5747 99.6432 33.0591 99.3203 32.3872C98.9974 31.7153 98.8359 30.9289 98.8359 30.0278C98.8359 28.632 99.1849 27.5461 99.8828 26.77C100.581 25.9888 101.549 25.5981 102.789 25.5981C103.987 25.5981 104.938 25.9966 105.641 26.7935C106.349 27.5903 106.703 28.6685 106.703 30.0278ZM100.18 30.0278C100.18 31.1216 100.398 31.9549 100.836 32.5278C101.273 33.1007 101.917 33.3872 102.766 33.3872C103.615 33.3872 104.258 33.1034 104.695 32.5356C105.138 31.9627 105.359 31.1268 105.359 30.0278C105.359 28.9393 105.138 28.1138 104.695 27.5513C104.258 26.9836 103.609 26.6997 102.75 26.6997C101.901 26.6997 101.26 26.9784 100.828 27.5356C100.396 28.0929 100.18 28.9237 100.18 30.0278ZM114.758 26.8638H111.977V34.3169H110.68V26.8638H107.93V25.7544H114.758V26.8638ZM120.438 34.4731C119.88 34.4731 119.37 34.3716 118.906 34.1685C118.448 33.9601 118.062 33.6424 117.75 33.2153H117.656C117.719 33.7153 117.75 34.1893 117.75 34.6372V38.1606H116.453V25.7544H117.508L117.688 26.9263H117.75C118.083 26.4575 118.471 26.119 118.914 25.9106C119.357 25.7023 119.865 25.5981 120.438 25.5981C121.573 25.5981 122.448 25.9862 123.062 26.7622C123.682 27.5382 123.992 28.6268 123.992 30.0278C123.992 31.4341 123.677 32.5278 123.047 33.3091C122.422 34.0851 121.552 34.4731 120.438 34.4731ZM120.25 26.6997C119.375 26.6997 118.742 26.9419 118.352 27.4263C117.961 27.9106 117.76 28.6815 117.75 29.7388V30.0278C117.75 31.231 117.951 32.0929 118.352 32.6138C118.753 33.1294 119.396 33.3872 120.281 33.3872C121.021 33.3872 121.599 33.0877 122.016 32.4888C122.438 31.8898 122.648 31.0643 122.648 30.0122C122.648 28.9445 122.438 28.1268 122.016 27.5591C121.599 26.9862 121.01 26.6997 120.25 26.6997ZM127.484 25.7544V31.1841L127.43 32.606L127.406 33.0513L132.039 25.7544H133.656V34.3169H132.445V29.0825L132.469 28.0513L132.508 27.0356L127.883 34.3169H126.266V25.7544H127.484ZM137.766 32.4575L137.883 32.6372C137.747 33.158 137.552 33.7622 137.297 34.4497C137.042 35.1424 136.776 35.7856 136.5 36.3794H135.523C135.664 35.8377 135.818 35.1685 135.984 34.3716C136.156 33.5747 136.276 32.9367 136.344 32.4575H137.766ZM28.1484 48.8638H25.3672V56.3169H24.0703V48.8638H21.3203V47.7544H28.1484V48.8638ZM35.1094 56.3169L34.8516 55.0981H34.7891C34.362 55.6346 33.9349 55.9992 33.5078 56.1919C33.0859 56.3794 32.5573 56.4731 31.9219 56.4731C31.0729 56.4731 30.4062 56.2544 29.9219 55.8169C29.4427 55.3794 29.2031 54.757 29.2031 53.9497C29.2031 52.2205 30.5859 51.3143 33.3516 51.231L34.8047 51.1841V50.6528C34.8047 49.981 34.6589 49.4862 34.3672 49.1685C34.0807 48.8455 33.6198 48.6841 32.9844 48.6841C32.2708 48.6841 31.4635 48.9028 30.5625 49.3403L30.1641 48.3481C30.5859 48.119 31.0469 47.9393 31.5469 47.8091C32.0521 47.6789 32.5573 47.6138 33.0625 47.6138C34.0833 47.6138 34.8385 47.8403 35.3281 48.2935C35.8229 48.7466 36.0703 49.4731 36.0703 50.4731V56.3169H35.1094ZM32.1797 55.4028C32.987 55.4028 33.6198 55.1815 34.0781 54.7388C34.5417 54.2961 34.7734 53.6763 34.7734 52.8794V52.106L33.4766 52.1606C32.4453 52.1971 31.7005 52.3586 31.2422 52.645C30.7891 52.9263 30.5625 53.3664 30.5625 53.9653C30.5625 54.4341 30.7031 54.7909 30.9844 55.0356C31.2708 55.2804 31.6693 55.4028 32.1797 55.4028ZM43.7422 47.7544H45.1641L41.4688 51.8872L45.4688 56.3169H43.9531L40.0469 51.981V56.3169H38.75V47.7544H40.0469V51.9185L43.7422 47.7544ZM50.4844 56.4731C49.2448 56.4731 48.2839 56.0929 47.6016 55.3325C46.9245 54.5669 46.5859 53.4862 46.5859 52.0903C46.5859 50.658 46.9297 49.5513 47.6172 48.77C48.3099 47.9888 49.2943 47.5981 50.5703 47.5981C50.9818 47.5981 51.3932 47.6424 51.8047 47.731C52.2161 47.8195 52.5391 47.9237 52.7734 48.0435L52.375 49.145C52.0885 49.0304 51.776 48.9367 51.4375 48.8638C51.099 48.7856 50.7995 48.7466 50.5391 48.7466C48.7995 48.7466 47.9297 49.856 47.9297 52.0747C47.9297 53.1268 48.1406 53.9341 48.5625 54.4966C48.9896 55.0591 49.6198 55.3403 50.4531 55.3403C51.1667 55.3403 51.8984 55.1867 52.6484 54.8794V56.0278C52.0755 56.3247 51.3542 56.4731 50.4844 56.4731ZM55.9062 47.7544V53.1841L55.8516 54.606L55.8281 55.0513L60.4609 47.7544H62.0781V56.3169H60.8672V51.0825L60.8906 50.0513L60.9297 49.0356L56.3047 56.3169H54.6875V47.7544H55.9062ZM72.6016 56.4731C71.3359 56.4731 70.3359 56.0877 69.6016 55.3169C68.8724 54.5461 68.5078 53.4757 68.5078 52.106C68.5078 50.7257 68.8464 49.6294 69.5234 48.8169C70.2057 48.0044 71.1198 47.5981 72.2656 47.5981C73.3385 47.5981 74.1875 47.9523 74.8125 48.6606C75.4375 49.3638 75.75 50.2935 75.75 51.4497V52.27H69.8516C69.8776 53.2752 70.1302 54.0382 70.6094 54.5591C71.0938 55.0799 71.7734 55.3403 72.6484 55.3403C73.5703 55.3403 74.4818 55.1476 75.3828 54.7622V55.9185C74.9245 56.1164 74.4896 56.257 74.0781 56.3403C73.6719 56.4289 73.1797 56.4731 72.6016 56.4731ZM72.25 48.6841C71.5625 48.6841 71.013 48.908 70.6016 49.356C70.1953 49.8039 69.9557 50.4237 69.8828 51.2153H74.3594C74.3594 50.3976 74.1771 49.7726 73.8125 49.3403C73.4479 48.9028 72.9271 48.6841 72.25 48.6841ZM85.4062 59.2778H84.1484V56.3169H78.1641V59.2778H76.9141V55.1997H77.5859C78.2839 54.2518 78.8307 53.1398 79.2266 51.8638C79.6224 50.5877 79.8281 49.2179 79.8438 47.7544H84.1797V55.1997H85.4062V59.2778ZM82.9297 55.1997V48.7778H81.0078C80.9401 49.9341 80.7161 51.106 80.3359 52.2935C79.9609 53.4757 79.4922 54.4445 78.9297 55.1997H82.9297ZM90.7422 56.4731C89.4766 56.4731 88.4766 56.0877 87.7422 55.3169C87.013 54.5461 86.6484 53.4757 86.6484 52.106C86.6484 50.7257 86.987 49.6294 87.6641 48.8169C88.3464 48.0044 89.2604 47.5981 90.4062 47.5981C91.4792 47.5981 92.3281 47.9523 92.9531 48.6606C93.5781 49.3638 93.8906 50.2935 93.8906 51.4497V52.27H87.9922C88.0182 53.2752 88.2708 54.0382 88.75 54.5591C89.2344 55.0799 89.9141 55.3403 90.7891 55.3403C91.7109 55.3403 92.6224 55.1476 93.5234 54.7622V55.9185C93.0651 56.1164 92.6302 56.257 92.2188 56.3403C91.8125 56.4289 91.3203 56.4731 90.7422 56.4731ZM90.3906 48.6841C89.7031 48.6841 89.1536 48.908 88.7422 49.356C88.3359 49.8039 88.0964 50.4237 88.0234 51.2153H92.5C92.5 50.3976 92.3177 49.7726 91.9531 49.3403C91.5885 48.9028 91.0677 48.6841 90.3906 48.6841ZM101.883 48.8638H99.1016V56.3169H97.8047V48.8638H95.0547V47.7544H101.883V48.8638ZM104.75 53.1685H103.93L103.531 44.895H105.148L104.75 53.1685ZM103.391 55.4888C103.391 54.7804 103.703 54.4263 104.328 54.4263C104.63 54.4263 104.862 54.5174 105.023 54.6997C105.19 54.882 105.273 55.145 105.273 55.4888C105.273 55.8221 105.19 56.0825 105.023 56.27C104.857 56.4523 104.625 56.5435 104.328 56.5435C104.057 56.5435 103.833 56.4627 103.656 56.3013C103.479 56.1346 103.391 55.8638 103.391 55.4888Z" fill="#1E0606"/>
</g>
<defs>
<filter id="filter0_d" x="0.0957031" y="0.316895" width="168.31" height="107" filterUnits="userSpaceOnUse" color-interpolation-filters="sRGB">
<feFlood flood-opacity="0" result="BackgroundImageFix"/>
<feColorMatrix in="SourceAlpha" type="matrix" values="0 0 0 0 0 0 0 0 0 0 0 0 0 0 0 0 0 0 127 0"/>
<feOffset dy="4"/>
<feGaussianBlur stdDeviation="2"/>
<feColorMatrix type="matrix" values="0 0 0 0 0 0 0 0 0 0 0 0 0 0 0 0 0 0 0.25 0"/>
<feBlend mode="normal" in2="BackgroundImageFix" result="effect1_dropShadow"/>
<feBlend mode="normal" in="SourceGraphic" in2="effect1_dropShadow" result="shape"/>
</filter>
</defs>
</svg>
