<svg width="1342" height="135" viewBox="0 0 1342 135" fill="none" xmlns="http://www.w3.org/2000/svg">
<path d="M1146.83 29.4827C1146.83 45.674 1133.52 58.9654 1117.32 58.9654C1101.11 58.9654 1087.81 45.674 1087.81 29.4827C1087.81 13.2914 1101.11 0 1117.32 0C1133.52 0 1146.83 13.2914 1146.83 29.4827Z" fill="#F4EBFF"/>
<path d="M1334.3 70.0817C1332.61 70.0817 1330.91 70.8067 1329.7 71.7733C1327.77 67.6651 1321.72 64.7651 1314.7 64.7651C1310.35 64.7651 1306.24 65.9734 1303.34 67.6651C1301.4 64.0401 1297.77 61.6235 1293.42 61.6235C1290.27 61.6235 1287.61 62.8318 1285.68 64.7651C1281.56 58.7236 1273.34 54.6153 1263.66 54.6153C1256.89 54.6153 1250.84 56.5486 1246.49 59.9319C1242.86 50.0238 1233.19 42.7739 1222.06 42.7739C1210.93 42.7739 1201.26 49.7821 1197.63 59.6902C1195.69 58.7236 1193.76 58.2403 1191.58 58.2403C1183.6 58.2403 1177.07 64.7651 1177.07 72.7399C1177.07 74.1899 1177.31 75.3982 1177.55 76.6065H1197.14H1205.61H1239.96H1247.22H1283.26H1288.1H1299.95H1304.55H1328.25H1330.67H1341.8V76.3649C1341.07 72.9816 1338.17 70.0817 1334.3 70.0817Z" fill="#F4EBFF"/>
<path d="M1020.32 61.8653C1018.14 61.8653 1015.97 62.8319 1014.51 64.0402C1013.3 54.3738 1005.08 46.6406 994.921 46.6406C986.212 46.6406 978.955 52.4405 976.295 60.1737C973.876 56.0654 969.521 53.4071 964.442 53.4071C957.91 53.4071 952.589 57.9987 951.137 63.7986C949.686 62.5903 947.993 61.8653 946.057 61.8653C941.461 61.8653 937.833 65.4902 937.833 70.0818C937.833 71.0484 938.075 72.0151 938.317 72.74H952.347H954.04H976.778H977.262H1012.34H1013.79H1029.03C1029.27 72.0151 1029.51 71.0484 1029.51 70.0818C1029.03 65.7319 1025.16 61.8653 1020.32 61.8653Z" fill="#F4EBFF"/>
<path d="M82.4867 28.0325C80.3097 28.0325 78.1326 28.9992 76.6812 30.2075C75.4717 20.541 67.2473 12.8079 57.0876 12.8079C48.3793 12.8079 41.1224 18.6077 38.4616 26.3409C36.0426 22.2326 31.6885 19.5744 26.6086 19.5744C20.0774 19.5744 14.7557 24.1659 13.3043 29.9658C11.8529 28.7575 10.1597 28.0325 8.22449 28.0325C3.62845 28.0325 0 31.6574 0 36.249C0 37.2157 0.241898 38.1823 0.483795 38.9073H14.5138H16.2071H38.9454H39.4291H74.5042H75.9555H91.195C91.4369 38.1823 91.6788 37.2157 91.6788 36.249C91.195 31.8991 87.3247 28.0325 82.4867 28.0325Z" fill="#F4EBFF"/>
<path d="M453.796 77.3314C451.861 77.3314 449.926 78.0564 448.717 79.2647C446.54 74.6731 439.766 71.5315 431.542 71.5315C426.462 71.5315 421.866 72.7398 418.721 74.9148C416.544 70.8065 412.432 67.9066 407.352 67.9066C403.966 67.9066 400.821 69.3566 398.402 71.5315C393.806 64.765 384.372 60.1735 373.487 60.1735C365.988 60.1735 358.973 62.3484 353.893 66.215C349.781 54.8569 338.896 46.8821 326.075 46.8821C313.496 46.8821 302.611 54.8569 298.257 65.9733C296.08 65.0067 293.903 64.5234 291.242 64.5234C282.05 64.5234 274.793 72.0149 274.793 80.9563C274.793 82.4063 275.035 83.8563 275.519 85.3062H297.773H307.207H346.152H354.377H395.016H400.337H413.642H418.721H445.572H448.233H460.811V85.0646C461.295 80.7147 457.909 77.3314 453.796 77.3314Z" fill="#F4EBFF"/>
<path d="M837.929 126.147C835.752 126.147 833.817 127.114 832.365 128.322C829.946 123.489 822.689 119.864 813.981 119.864C808.418 119.864 803.58 121.314 800.193 123.489C797.774 119.139 793.178 115.997 787.856 115.997C784.228 115.997 780.841 117.447 778.181 119.864C773.343 112.614 763.183 107.539 751.33 107.539C743.105 107.539 735.607 109.956 730.285 114.064C725.689 101.739 714.078 93.0397 700.29 93.0397C686.502 93.0397 674.891 101.739 670.295 113.823C668.118 112.856 665.457 112.131 662.796 112.131C652.878 112.131 644.896 120.106 644.896 130.014C644.896 131.705 645.137 133.155 645.621 134.847H669.569H679.729H721.819H730.527H774.552H780.358H794.871H800.435H829.463H832.365H845.912V134.605C846.153 129.772 842.525 126.147 837.929 126.147Z" fill="#F4EBFF"/>
<path d="M681.18 35.7658C679.486 35.7658 678.035 36.4907 676.826 37.4574C674.89 33.5908 669.327 30.9325 662.554 30.9325C658.441 30.9325 654.571 31.8992 651.91 33.8325C650.217 30.4492 646.588 28.0326 642.476 28.0326C639.573 28.0326 636.913 29.2409 634.977 30.9325C631.107 25.3743 623.366 21.2661 614.174 21.2661C607.885 21.2661 602.079 23.1994 597.725 26.341C594.339 16.9162 585.147 10.1497 574.503 10.1497C563.86 10.1497 554.91 16.9162 551.281 26.341C549.588 25.616 547.653 25.1327 545.476 25.1327C537.735 25.1327 531.688 31.4159 531.688 38.9074C531.688 40.1157 531.929 41.324 532.171 42.5323H550.797H558.78H591.436H598.209H632.317H636.913H648.04H652.394H674.89H677.067H687.469V42.2906C687.469 38.6657 684.566 35.7658 681.18 35.7658Z" fill="#F4EBFF"/>
</svg>
