<svg width="215" height="563" viewBox="0 0 215 563" fill="none" xmlns="http://www.w3.org/2000/svg">
<path d="M162.431 554.1C162.431 558.692 157.593 562.317 151.546 562.317H65.9146C59.8672 562.317 55.0293 558.692 55.0293 554.1C55.0293 549.509 59.8672 545.884 65.9146 545.884H151.546C157.593 545.884 162.431 549.509 162.431 554.1Z" fill="#EADFF8"/>
<path d="M112.846 456.47H103.412V158.743C103.412 127.569 91.3174 98.3275 69.3049 76.0947L40.2773 46.8537L46.8085 40.3288L75.836 69.5698C99.5419 93.4943 112.604 125.152 112.604 158.743V456.47H112.846Z" fill="#3C3C3B"/>
<path d="M112.844 456.47H103.41V158.743C103.41 125.152 116.473 93.4943 140.178 69.5698L169.206 40.3288L175.737 46.8537L146.71 76.0947C124.697 98.0859 112.602 127.569 112.602 158.743V456.47H112.844Z" fill="#3C3C3B"/>
<path d="M55.0315 44.4365L44.388 55.0696C41.0014 58.4528 35.6797 58.4528 32.5351 55.0696L2.53991 25.3452C-0.846638 21.962 -0.846638 16.6454 2.53991 13.5038L13.1833 2.87073C16.5699 -0.512532 21.8916 -0.512532 25.0363 2.87073L55.0315 32.8367C58.418 35.9783 58.418 41.2949 55.0315 44.4365Z" fill="#3C3C3B"/>
<path d="M44.872 45.6456L38.5827 51.9288C36.6475 53.8621 33.0191 53.3788 30.3582 50.7205L6.89435 27.2793C4.2335 24.621 3.74971 20.9961 5.68488 19.0628L11.9742 12.7796C13.9093 10.8463 17.5378 11.3296 20.1986 13.9879L43.6625 37.4291C46.3234 40.0874 46.8071 43.7123 44.872 45.6456Z" fill="#FFF5C4"/>
<path d="M159.29 44.4369L169.933 55.07C173.32 58.4532 178.642 58.4532 181.786 55.07L211.781 25.104C215.168 21.7207 215.168 16.4042 211.781 13.2626L201.138 2.62947C197.752 -0.753785 192.43 -0.753785 189.285 2.62947L159.29 32.5955C155.903 35.9787 155.903 41.2953 159.29 44.4369Z" fill="#3C3C3B"/>
<path d="M169.449 45.6455L175.738 51.9288C177.673 53.862 181.302 53.3787 183.962 50.7204L207.426 27.2793C210.087 24.621 210.571 20.9961 208.636 19.0628L202.347 12.7796C200.411 10.8463 196.783 11.3296 194.122 13.9879L170.658 37.4291C167.997 40.0873 167.513 43.7122 169.449 45.6455Z" fill="#FFF5C4"/>
<path d="M126.148 539.601H90.3477L95.9113 414.662C96.1532 410.553 99.2979 407.412 103.41 407.412H112.844C116.956 407.412 120.101 410.553 120.343 414.662L126.148 539.601Z" fill="#3C3C3B"/>
<path d="M137.032 552.651H79.4609V547.093C79.4609 542.984 82.8475 539.601 86.9597 539.601H129.534C133.646 539.601 137.032 542.984 137.032 547.093V552.651Z" fill="#3C3C3B"/>
</svg>
