<svg width="151" height="396" viewBox="0 0 151 396" fill="none" xmlns="http://www.w3.org/2000/svg">
<path opacity="0.2" d="M114.298 389.706C114.298 392.848 110.911 395.506 106.557 395.506H46.3247C42.2124 395.506 38.584 392.848 38.584 389.706C38.584 386.565 41.9705 383.907 46.3247 383.907H106.557C110.911 383.907 114.298 386.565 114.298 389.706Z" fill="#9892A2"/>
<path d="M79.4643 321.075H72.9331V112.038C72.9331 90.0464 64.4667 69.5052 48.9853 54.0389L28.666 33.4976L33.2621 28.9061L53.5814 49.4473C70.2722 66.1219 79.4643 88.3548 79.4643 112.038V321.075Z" fill="#A59DAF"/>
<path d="M79.4628 321.075H72.9316V112.038C72.9316 88.3548 82.1237 66.1219 98.8145 49.4473L119.134 28.9061L123.73 33.4976L103.411 54.0389C87.9292 69.5052 79.4628 90.0464 79.4628 112.038V321.075Z" fill="#A59DAF"/>
<path d="M38.8243 32.0478L31.3256 39.5393C28.9066 41.9559 25.2782 41.9559 22.8592 39.5393L1.81422 18.5148C-0.604741 16.0982 -0.604741 12.4733 1.81422 10.0566L9.31299 2.56515C11.7319 0.148532 15.3604 0.148532 17.7794 2.56515L38.8243 23.5897C41.2433 25.7646 41.2433 29.6312 38.8243 32.0478Z" fill="#A59DAF"/>
<path d="M31.8106 32.7731L27.4564 37.123C26.005 38.5729 23.5861 38.0896 21.6509 36.1563L5.20194 19.7233C3.50866 18.0317 3.02488 15.3734 4.23436 13.9235L8.58847 9.57354C10.0399 8.12358 12.4588 8.6069 14.394 10.5402L30.843 26.9732C32.7782 28.6648 33.0201 31.3231 31.8106 32.7731Z" fill="white"/>
<path d="M111.877 32.0481L119.376 39.5396C121.795 41.9562 125.423 41.9562 127.842 39.5396L148.887 18.515C151.306 16.0984 151.306 12.4735 148.887 10.0569L141.388 2.56539C138.969 0.148776 135.341 0.148776 132.922 2.56539L111.877 23.5899C109.7 25.7649 109.7 29.6315 111.877 32.0481Z" fill="#A59DAF"/>
<path d="M119.135 32.7731L123.489 37.123C124.94 38.5729 127.359 38.0896 129.295 36.1563L145.744 19.7233C147.437 18.0317 147.921 15.3734 146.711 13.9235L142.357 9.57354C140.906 8.12358 138.487 8.6069 136.551 10.5402L120.102 26.9732C118.167 28.6648 117.684 31.3231 119.135 32.7731Z" fill="white"/>
<path d="M88.6553 379.557H63.498L67.3684 291.834C67.6103 288.934 69.7873 286.759 72.6901 286.759H79.4632C82.366 286.759 84.5431 288.934 84.785 291.834L88.6553 379.557Z" fill="#A59DAF"/>
<path d="M96.3947 388.499H55.998V384.632C55.998 381.732 58.417 379.315 61.3198 379.315H91.073C93.9758 379.315 96.3947 381.732 96.3947 384.632V388.499Z" fill="#A59DAF"/>
</svg>
