<svg width="205" height="354" viewBox="0 0 205 354" fill="none" xmlns="http://www.w3.org/2000/svg">
<path d="M130.626 165.946C131.351 167.154 131.11 169.329 131.11 170.779C130.626 174.887 129.658 177.062 128.207 180.445C126.513 184.312 117.805 179.479 117.563 178.754C117.321 178.029 117.563 177.062 118.289 176.579C119.982 175.37 122.401 177.545 123.853 176.095C124.336 175.612 124.336 174.887 124.578 174.162C124.82 172.47 124.336 170.296 122.885 169.571C121.917 169.087 120.466 169.329 119.257 169.329C116.112 169.571 111.758 166.671 110.548 163.771C109.339 160.871 111.758 158.212 114.177 156.279C115.144 155.313 116.596 154.829 118.047 155.071C118.773 155.313 129.658 164.496 130.626 165.946Z" fill="#FFAE80"/>
<path d="M13.0605 349.85C13.0605 350.091 13.0605 350.575 13.0605 350.816H37.9759V350.333C37.9759 350.091 37.9759 350.091 37.9759 349.85V349.608C37.734 348.4 37.4921 347.192 37.2502 346.225C36.0407 342.358 33.1379 341.15 29.7514 340.667C28.5419 340.425 27.3324 340.425 25.8811 340.425H24.9135C19.108 340.425 14.27 340.908 13.3024 346.95C13.0605 348.158 13.0605 348.883 13.0605 349.85Z" fill="#212121"/>
<path d="M12.8184 349.85L13.0603 351.058V353.716H37.9756L37.7337 351.058V350.575V350.091V349.85H12.8184Z" fill="#1D1715"/>
<path d="M65.7957 348.4C65.7957 348.883 65.7957 349.366 65.7957 349.85V350.816H105.951C105.951 350.333 105.951 350.091 105.709 349.85C104.499 344.05 97.2423 341.15 89.2597 339.942C82.9704 338.975 76.4391 339.217 71.3593 339.942C69.666 340.183 68.2147 340.425 67.0052 340.908C66.5214 341.15 65.3119 341.392 65.7957 348.4Z" fill="#1D1715"/>
<path d="M65.7969 349.849V350.816L66.0388 353.716H106.194L105.952 350.816V349.849H65.7969Z" fill="#16191E"/>
<path d="M11.1278 345.017C11.1278 345.983 11.8535 346.708 13.3049 347.192C15.482 347.916 19.1104 348.158 22.9808 348.158C23.7065 348.158 24.4321 348.158 25.1578 347.916C29.2701 347.675 33.6242 346.95 37.0108 346.225C38.2203 345.983 39.1878 345.742 39.9135 345.5L42.0906 284.843V282.426L43.0582 254.877L51.0408 201.711V200.503L59.749 253.427L59.9909 254.394C59.9909 267.202 59.5071 280.735 59.2652 294.268C59.0233 315.292 59.5072 335.35 63.8613 349.125C64.1032 348.883 64.3451 348.883 64.587 348.883C64.8289 348.641 65.3127 348.641 65.5546 348.4C67.4897 347.675 69.6668 346.95 72.0858 346.466C77.8913 344.775 84.6644 343.325 89.5023 339.942V339.7L87.0833 256.085L84.4225 209.928L83.9387 203.161L83.213 188.903V188.42L82.7292 179.479L82.0035 168.12L81.7616 162.562V160.387L81.5197 156.762L81.2778 153.138L81.0359 148.788H13.063C12.8211 150.479 12.8211 151.929 12.8211 153.621C12.8211 154.829 12.8211 155.796 12.8211 157.004C12.8211 161.112 13.063 164.979 13.3049 168.845C13.3049 169.57 13.5468 170.054 13.5468 170.779C14.0306 174.645 14.7563 178.512 15.482 182.137C15.7239 183.345 15.9658 184.312 16.2077 185.52C16.6915 187.212 17.1753 188.903 17.659 190.595C17.659 191.803 17.4172 193.012 17.4172 194.462C17.4172 196.153 17.1753 197.603 17.1753 199.295L16.9334 206.061C16.9334 208.236 16.6915 210.411 16.6915 212.345C15.9658 226.361 15.482 239.894 15.482 250.044C15.482 251.01 15.482 251.977 15.482 252.944C15.482 256.81 15.2401 262.852 14.7563 270.343C12.8211 294.751 8.95078 332.934 11.1278 345.017Z" fill="#5E4A4C"/>
<path opacity="0.3" d="M13.3047 170.779C13.7885 174.646 14.5142 178.512 15.2399 182.137C15.4818 183.345 15.7237 184.312 15.9656 185.52C16.4494 187.212 16.9331 188.904 17.4169 190.595C17.175 193.495 17.175 196.395 16.9331 199.053L16.6912 205.82C16.6912 207.995 16.4493 210.17 16.4493 212.103C22.9806 211.62 30.9631 211.62 39.4295 211.861C42.5742 217.903 42.0904 225.395 41.3647 232.403C41.1228 235.303 40.8809 238.444 39.6714 241.103C38.4619 243.761 36.5267 246.419 33.8659 247.386C36.7686 250.044 38.4619 253.911 39.1876 257.535C39.9133 261.402 39.9133 265.269 40.3971 269.135C40.639 274.452 41.3647 279.768 42.0904 284.843V282.427L43.058 254.877L51.0405 201.712V200.503L59.7488 253.427L59.9907 254.394C59.9907 267.202 59.5069 280.977 59.265 294.268C59.265 294.51 59.265 294.751 59.265 294.993C59.7488 289.918 60.2326 284.843 60.4745 279.527C60.4745 277.11 60.7164 274.693 61.4421 272.519C61.9259 271.069 62.6516 269.619 63.1354 268.169C64.8286 262.852 64.3448 256.811 67.2476 251.977C67.4895 251.494 67.7314 251.011 67.7314 250.527C67.7314 250.044 67.4895 249.319 67.4895 248.836C63.1354 237.236 61.684 224.428 62.8935 212.103C71.1179 212.103 78.6167 211.378 84.6641 209.928L84.1803 203.162L83.2128 188.42L82.729 179.479L82.0033 168.121C69.9085 167.879 57.5717 169.812 45.4769 170.296C34.5916 171.262 23.9481 170.779 13.3047 170.779Z" fill="#1D1D1B"/>
<path d="M41.1211 46.323L47.8942 45.3563L48.8618 51.8812L41.6049 51.6396L41.1211 46.323Z" fill="#EBB677"/>
<path d="M21.2857 52.123L20.0762 30.8568C29.2683 30.6151 41.3631 29.8902 43.5402 29.4069C43.5402 29.4069 44.5078 44.8732 45.4754 51.398C49.5876 68.3143 29.5102 70.7309 21.2857 52.123Z" fill="#FFAE80"/>
<path d="M17.4157 34.7238C15.2386 30.8573 14.9967 28.924 14.0291 24.5741C11.6102 4.03288 23.705 4.99951 31.4457 3.7912C40.3959 2.82456 49.8299 7.65777 52.2488 21.1908C52.0069 22.6408 51.5231 23.8491 51.5231 23.8491L55.6354 31.0989C56.361 32.3072 55.8773 33.7572 54.4259 34.2405L52.4907 34.9655C52.7326 36.4154 53.7002 42.2153 53.7002 42.2153C54.184 45.5986 53.4583 51.3984 48.6204 51.6401C46.6852 51.3984 42.0892 48.2569 39.6702 35.9321C36.5255 36.1738 19.109 37.6238 17.4157 34.7238Z" fill="#FFAE80"/>
<path d="M21.046 43.665C45.4776 46.3233 39.1883 35.2068 39.4302 32.7902C39.4302 32.0653 43.3005 32.0652 43.3005 31.3403C43.0586 18.7739 37.9788 11.0407 48.1385 11.0407C51.7669 9.83241 52.2507 -2.49231 29.0286 1.61594C18.869 3.54923 11.6121 10.3157 11.3702 20.7072C10.8864 30.8569 16.6919 42.215 21.046 43.665Z" fill="black"/>
<path d="M34.1064 31.0989C34.5902 34.2405 37.2511 37.6238 38.9443 37.3821C40.6376 37.1405 40.1538 34.4822 39.67 31.0989C39.4281 28.9239 38.9444 26.024 37.2511 25.5406C35.5578 25.5406 33.3807 26.5073 34.1064 31.0989Z" fill="#FFAE80"/>
<path d="M0 76.2893C0 76.7727 0 77.256 0 77.7393V77.981L1.20948 93.689V94.1723C1.20948 94.1723 7.25691 150.238 5.07984 185.762C4.83795 190.837 9.19207 195.187 14.5138 194.462C15.4814 194.462 16.2071 194.22 17.1747 194.22C26.3667 193.495 38.9454 194.462 51.524 195.912C55.1524 196.395 59.0228 196.878 62.6512 197.362C71.3595 198.57 79.584 192.287 80.0678 183.345V183.104C80.0678 182.862 80.0678 182.62 80.0678 182.379C80.7935 176.095 81.0354 169.571 81.0354 162.562V160.388C81.0354 158.454 81.0354 156.763 81.0354 154.829C81.0354 152.654 80.7935 150.479 80.7935 148.546C80.7935 147.096 80.5516 145.405 80.5516 143.955C80.3097 142.021 80.3097 140.33 80.0678 138.638C80.0678 137.913 79.8259 136.946 79.8259 136.221C79.8259 135.255 79.584 134.288 79.584 133.321C79.584 132.355 79.3421 131.63 79.3421 130.663C79.3421 129.697 79.1002 128.972 79.1002 128.005V127.763C79.1002 127.038 78.8583 126.313 78.8583 125.347C78.8583 124.38 78.6164 123.655 78.6164 122.688C78.1326 118.097 77.4069 113.747 76.9231 109.397C76.1974 104.564 75.4718 99.9722 74.7461 95.8639C74.2623 93.689 74.0204 91.514 73.5366 89.5807C72.8109 85.9558 72.3271 82.8142 71.6014 79.9143C71.1176 77.0143 70.6338 74.8394 70.15 73.1477C69.6662 70.7311 69.1824 69.2812 69.1824 69.2812C66.7635 64.9313 67.4892 61.548 62.8931 59.1314C62.8931 59.1314 62.6512 59.1314 62.4093 58.8897C61.9255 58.6481 61.1998 58.4064 60.4742 58.1647H60.2323C55.3944 56.7148 46.2023 53.8148 46.2023 53.8148H45.7185H45.4766L22.4964 55.2648L18.1422 55.5064L7.7407 61.548C3.14467 64.6896 0 70.2478 0 76.2893Z" fill="#EA4A49"/>
<path d="M43.0568 49.948C36.7675 48.7397 22.7375 49.7063 20.5605 50.673L18.8672 55.5062C20.5605 58.4061 35.3161 58.1644 46.6853 53.8146L46.2015 52.6063C45.7177 51.398 44.5082 50.1897 43.0568 49.948Z" fill="#C21E1D"/>
<path opacity="0.3" d="M57.8125 80.3977C61.199 103.356 64.3437 126.555 69.9073 149.03C72.8101 160.629 76.1966 171.746 80.3088 182.62C81.0345 184.795 82.0021 186.97 82.9697 189.387V188.904L82.4859 179.962L81.7602 168.604L81.5183 163.046V160.871C81.5183 158.938 81.5183 157.246 81.5183 155.313C81.5183 153.138 81.2764 150.963 81.2764 149.03C81.2764 147.58 81.0345 145.888 81.0345 144.438C80.7926 142.505 80.7926 140.813 80.5507 139.121C80.5507 138.396 80.3088 137.43 80.3088 136.705C80.3088 135.738 80.067 134.771 80.067 133.805C80.067 132.838 79.8251 132.113 79.8251 131.147C79.8251 130.18 79.5832 129.455 79.5832 128.488V128.247C69.9073 113.747 65.5532 96.1057 57.8125 80.3977Z" fill="#456F96"/>
<path d="M50.7985 60.8232C50.0729 61.7898 49.831 62.7565 49.3472 63.7231C48.3796 67.5897 48.6215 72.6646 50.3148 76.2895C50.3148 76.2895 50.3148 76.2895 50.3148 76.5312C51.7661 80.1561 53.4594 83.5394 54.9108 87.1643C55.8784 89.3392 56.846 91.5142 57.8136 93.9308C59.2649 97.0724 60.4744 100.456 61.9258 103.597C63.861 107.947 65.7961 112.055 67.7313 116.164C69.9084 120.514 80.0681 132.113 89.7439 143.471C90.4696 144.196 91.1953 145.163 91.6791 145.888C96.2751 151.205 103.29 161.113 106.435 164.979L122.642 154.829C111.998 139.605 87.083 104.322 87.083 104.322C87.083 104.322 82.2451 89.0976 79.8261 82.0894C79.5842 81.6061 79.5843 81.1227 79.3424 80.6394C78.1329 77.0145 77.1653 73.6313 75.7139 70.4897C75.2301 69.2813 74.5044 68.073 73.7787 66.8647C73.7787 66.8647 73.7787 66.623 73.5368 66.3814C73.0531 65.8981 72.8112 65.1731 72.3274 64.6898C72.3274 64.6898 72.3274 64.4481 72.0855 64.4481C69.1827 61.0649 65.0705 58.8899 60.7163 57.9232C56.6041 57.1982 52.9756 57.9233 50.7985 60.8232Z" fill="#EA4A49"/>
<path opacity="0.3" d="M37.2532 142.746C34.8342 131.388 30.2382 120.513 27.3354 109.155C24.4326 97.7972 23.9489 85.2308 29.7544 75.0811C28.303 88.8558 33.6247 102.147 37.0113 115.68C40.8816 131.63 41.8492 148.546 39.6722 164.737C39.1884 157.488 38.7046 149.996 37.2532 142.746Z" fill="#456F96"/>
<path d="M134.738 215.244L132.803 215.727L161.347 332.208L185.294 326.408C194.728 324.233 200.292 315.05 198.115 306.109L194.728 292.334L183.359 246.177L182.633 243.035C177.554 222.252 156.267 209.928 134.738 215.244Z" fill="#5589B9"/>
<path d="M124.093 171.987C124.818 174.645 123.125 177.062 120.464 177.787C117.803 178.512 115.143 176.82 114.659 174.404C113.933 171.745 115.626 169.329 118.287 168.604C120.948 167.879 123.367 169.57 124.093 171.987Z" fill="#4D4D4D"/>
<path d="M158.687 345.258L164.008 344.05L121.918 172.954C121.435 171.504 119.983 170.537 118.532 170.779C117.08 171.262 116.113 172.712 116.597 174.162L158.687 345.258Z" fill="#1D1715"/>
<path d="M181.909 309.25L170.54 311.909C166.911 312.875 163.041 310.7 162.073 307.076L153.849 273.968C152.881 270.343 155.3 266.718 158.929 265.751L170.298 263.093C173.926 262.127 177.797 264.301 178.764 267.926L186.989 301.034C188.198 304.659 185.779 308.284 181.909 309.25Z" fill="#4072A1"/>
<path d="M196.18 263.576L204.405 296.684C205.372 300.309 202.953 303.934 199.325 304.901L198.115 305.142L186.746 258.985L187.956 258.743C191.342 257.777 195.213 259.952 196.18 263.576Z" fill="#4072A1"/>
<path d="M179.97 271.276L155.062 277.362L156.787 284.405L181.694 278.318L179.97 271.276Z" fill="#ECF0F1"/>
<path d="M196.896 267.325L188.906 269.276L190.629 276.318L198.618 274.368L196.896 267.325Z" fill="#ECF0F1"/>
<path d="M170.78 342.358C171.989 347.191 168.844 352.266 163.765 353.474C158.685 354.683 153.605 351.783 152.396 346.95C151.186 342.116 154.331 337.042 159.411 335.833C164.49 334.383 169.57 337.283 170.78 342.358Z" fill="#1D1715"/>
<path d="M166.185 343.324C166.669 345.741 165.218 348.157 162.799 348.882C160.38 349.607 157.719 347.916 157.235 345.499C156.751 343.083 158.203 340.666 160.622 339.941C163.041 339.458 165.46 340.908 166.185 343.324Z" fill="#F6F6F6"/>
</svg>
