<svg width="887" height="267" viewBox="0 0 887 267" fill="none" xmlns="http://www.w3.org/2000/svg">
<path d="M345.248 101.762L330.492 104.662C320.332 98.8619 326.138 102.245 318.881 97.8952L296.385 106.353L313.801 135.836H364.841L360.487 124.961L351.537 124.72L348.393 121.095L349.36 108.045L345.248 101.762Z" fill="black"/>
<path d="M427.494 82.9123L428.22 90.4038L428.946 98.8619L429.429 104.178C434.993 110.22 442.008 99.8286 446.362 95.962L446.846 81.704L427.494 82.9123Z" fill="#FFAE80"/>
<path opacity="0.4" d="M428.217 90.4039L428.942 98.8621C434.264 96.6872 437.893 92.5789 439.102 88.229L428.217 90.4039Z" fill="#FFAE80"/>
<path d="M453.133 73.0049C452.166 76.6298 448.537 80.2547 447.57 82.913C446.844 85.3296 435.475 90.6461 431.605 92.0961C428.218 93.3044 423.622 92.8211 421.929 90.1628C420.477 87.9879 420.719 85.8129 422.171 77.8381H420.477C419.51 77.3548 419.026 76.1464 419.752 75.1798L420.961 73.0049L422.413 70.8299L422.896 70.1049C422.896 70.1049 422.654 69.1383 422.413 67.93C422.413 67.6883 422.413 67.4466 422.654 67.4466C422.896 66.48 423.138 65.755 423.38 64.7884C424.106 62.8551 425.073 61.1635 426.041 59.9552C429.428 55.3636 434.507 53.9136 439.587 54.6386C445.393 55.6052 455.552 56.5719 453.133 73.0049Z" fill="#FFAE80"/>
<path opacity="0.4" d="M439.345 66.7215L438.861 69.1381L420.961 73.2463L422.412 71.0714L422.896 70.3464C422.896 70.3464 422.654 69.3798 422.412 68.1714C422.412 67.9298 422.412 67.6881 422.654 67.6881L439.345 66.7215Z" fill="#FFAE80"/>
<path d="M446.603 86.5378C435.234 87.0211 443.7 75.4214 443.7 75.4214C443.7 75.4214 442.974 72.5215 441.765 73.4881C440.072 73.2465 439.588 72.5215 437.895 72.0382C439.83 64.0634 442.974 55.8469 429.67 56.3302C430.154 53.4303 434.992 51.9803 441.039 52.947C449.264 54.1553 455.553 60.1968 454.827 68.6549C454.586 73.2465 454.585 76.1464 446.603 86.5378Z" fill="#2F2E29"/>
<path d="M452.408 128.345C450.957 137.045 451.199 144.053 450.957 150.578H413.221C413.221 149.853 413.221 149.128 413.221 148.645C413.221 145.503 413.463 142.603 413.463 140.186C413.463 139.945 413.463 139.461 413.463 139.22C413.463 137.77 413.463 136.32 413.705 135.353C413.705 133.662 413.946 132.695 413.946 132.695C413.946 132.453 413.946 132.212 413.946 131.728C414.43 127.862 415.398 123.995 416.607 120.612C420.961 107.32 428.944 98.8622 428.944 98.8622C428.944 98.8622 445.877 93.0624 446.361 93.5457C454.101 98.6206 455.311 106.112 455.069 108.77C454.585 117.229 453.376 122.062 452.408 128.345Z" fill="#5E4A4C"/>
<path d="M445.391 76.8713C444.907 79.5295 442.246 81.9461 440.553 81.7045C438.86 81.4628 439.343 79.2879 439.827 76.8713C440.069 75.1796 440.069 72.763 442.004 72.5213C443.697 72.2797 445.874 73.2463 445.391 76.8713Z" fill="#FFAE80"/>
<path opacity="0.5" d="M436.443 135.353L431.121 150.819H413.221C413.221 150.094 413.221 149.369 413.221 148.886C413.221 145.744 413.463 142.844 413.463 140.428C413.463 140.186 413.463 139.703 413.463 139.461C413.463 138.011 413.463 136.561 413.705 135.594C413.705 133.903 413.946 132.936 413.946 132.936C413.946 132.695 413.946 132.453 413.946 131.97C414.43 128.103 415.398 124.236 416.607 120.853L424.106 110.945L441.523 120.611L439.104 127.62L436.443 135.353Z" fill="#5589B9"/>
<path d="M439.348 123.753L405.724 142.119L393.871 126.17L428.946 105.87C433.542 103.212 442.976 101.037 446.363 107.079C446.363 107.32 451.926 117.228 439.348 123.753Z" fill="#5E4A4C"/>
<path d="M416.848 141.394L416.365 141.878C416.123 142.119 416.123 142.119 415.881 142.119C415.397 142.361 414.671 142.844 414.188 143.086C410.559 144.536 406.447 144.053 403.06 141.878L401.367 140.911L377.903 128.345L368.711 123.995L370.162 111.67L385.644 116.745L406.931 123.511L410.075 124.478L412.978 125.445C415.639 126.17 417.816 128.103 419.025 130.278C419.993 132.211 420.477 134.628 419.751 137.045C419.026 138.978 418.058 140.428 416.848 141.394Z" fill="#5E4A4C"/>
<path d="M446.119 139.461H481.194L491.112 87.7456H473.211C463.294 87.7456 454.585 94.7538 452.892 104.662L446.119 139.461Z" fill="black"/>
<path d="M365.568 113.846L360.246 105.146L351.296 101.762L356.134 108.771L351.054 110.704L347.184 104.662L347.425 117.229L354.441 123.27L364.358 124.962L365.568 113.846Z" fill="#FFAE80"/>
<path d="M360.487 115.537L356.133 118.437L339.926 93.7874C339.2 92.5791 339.442 90.8875 340.651 90.1625C341.861 89.4375 343.554 89.6792 344.28 90.8875L360.487 115.537Z" fill="black"/>
<path d="M416.123 67.4464C416.849 67.9297 454.826 65.9964 454.826 65.9964C454.826 65.9964 456.278 56.5716 452.649 54.6383C436.684 44.9719 418.784 60.9215 417.332 62.8548C415.639 65.0298 419.51 65.2714 419.51 65.2714C419.51 65.2714 415.397 67.2047 416.123 67.4464Z" fill="black"/>
<path d="M483.613 0.506348H493.772C495.708 0.506348 497.401 1.9563 497.643 3.88959L501.997 37.7221H475.146L479.501 3.88959C479.984 1.9563 481.678 0.506348 483.613 0.506348Z" fill="#F9B233"/>
<path d="M872.824 173.777L871.131 174.019C869.438 174.26 867.986 171.602 867.502 167.977L865.325 146.953C864.842 143.086 866.051 139.703 867.986 139.461H869.196C870.889 139.461 872.341 141.878 872.824 145.261L875.485 166.044C875.969 169.911 874.76 173.535 872.824 173.777Z" fill="#E94E1B"/>
<path d="M16.0267 180.302L9.97929 179.819C6.10894 179.577 2.96427 176.194 2.72238 172.086L0.0614916 143.086C-0.422303 138.978 1.99668 135.111 5.62513 134.386L9.4955 133.42L16.0267 180.302Z" fill="#FFC55E"/>
<path d="M18.4459 181.752L9.7377 181.027L4.41602 131.97L15.3013 131.728L18.4459 181.752Z" fill="black"/>
<path d="M17.2367 210.51L7.56079 210.751C5.14181 210.751 2.96472 209.06 2.48093 206.643L0.0619526 190.693C-0.421842 187.794 1.99713 185.135 4.8999 185.135H17.9624L20.8651 206.16C21.3489 208.335 19.6557 210.51 17.2367 210.51Z" fill="#DAD1D1"/>
<path d="M872.099 177.644L868.229 141.878C867.503 134.387 861.698 128.104 854.199 126.654L698.66 94.271C693.58 93.3044 688.742 90.6461 684.872 87.0212L653.909 56.8135C639.395 42.5555 619.801 34.5807 599.24 34.5807H389.274C383.227 34.5807 377.421 36.514 372.583 40.3805L301.224 95.2377C293.967 100.796 285.5 103.937 276.308 104.421L33.2024 116.504C18.4467 117.229 7.56135 119.887 9.49652 134.628L15.5439 192.386C16.9953 203.985 26.1874 213.168 37.7984 214.618L91.7413 221.627H732.283L743.894 220.902L748.732 220.66L841.62 214.135C860.246 212.443 874.035 196.01 872.099 177.644ZM472.003 105.871H313.56L382.259 52.9469C384.194 51.497 386.613 50.5303 389.274 50.5303H475.873L472.003 105.871Z" fill="#F9B233"/>
<path opacity="0.75" d="M261.309 112.396L33.4425 123.754C28.3627 123.995 14.3327 124.479 16.2678 136.078L22.3153 191.419C18.4449 128.104 25.9437 131.729 52.7942 129.795L261.309 112.396Z" fill="#F6F6F6"/>
<path opacity="0.75" d="M864.842 178.369L860.972 142.603C860.488 138.012 857.101 134.387 852.747 133.42L698.417 99.8292C697.934 99.8292 695.515 101.038 695.515 101.038C845.732 136.078 852.747 133.42 864.842 178.369Z" fill="#F6F6F6"/>
<path d="M478.292 143.086L478.534 139.22L485.307 41.8303H389.032C384.678 41.8303 380.082 43.2803 376.696 45.9386L305.336 100.796C302.191 103.212 299.047 105.146 295.66 106.837L287.678 138.978L285.984 145.503L291.548 185.377L295.66 214.135H485.549L482.646 185.377L478.292 143.086ZM472.003 105.871H313.561L382.259 52.9467C384.194 51.4967 386.613 50.5301 389.274 50.5301H475.873L472.003 105.871Z" fill="white"/>
<path d="M389.274 48.8381C386.371 48.8381 383.468 49.8048 381.291 51.4964L309.932 106.354C309.448 106.837 308.964 107.079 308.238 107.562H473.696L477.808 48.8381H389.274ZM472.002 105.87H313.56L382.259 52.9464C384.194 51.4964 386.613 50.5298 389.274 50.5298H475.873L472.002 105.87Z" fill="#F9B233"/>
<path d="M485.547 143.086L489.901 185.619L492.804 214.376H605.044C606.011 203.985 609.156 194.319 613.994 185.619C623.186 168.461 638.909 155.411 658.261 149.611V139.22L658.503 115.537C658.503 109.737 656.81 104.179 653.423 99.5873L620.041 52.7051C615.203 46.1802 607.705 41.8303 599.48 41.8303H492.562L485.789 139.22L485.547 143.086Z" fill="white"/>
<path d="M613.996 56.813C610.367 51.9797 605.045 49.0798 599.24 48.8381H499.095L494.982 107.803L649.554 107.562L613.996 56.813Z" fill="#1D1715"/>
<path d="M468.858 117.954H437.17V128.104H468.858V117.954Z" fill="black"/>
<path d="M649.796 117.954H618.107V128.104H649.796V117.954Z" fill="black"/>
<path d="M871.858 177.402L872.342 181.994H852.99C843.072 181.994 835.09 189.969 835.09 199.877V200.118L877.18 198.185C882.018 197.943 886.372 194.318 885.888 189.485C885.888 188.519 885.646 187.552 885.646 186.585C885.162 181.51 880.808 177.644 875.728 177.644H871.858V177.402Z" fill="#DAD1D1"/>
<path d="M35.1391 206.16H9.73994C7.56287 206.16 5.62771 204.711 5.14391 202.536L3.69252 195.527C2.96683 192.627 5.38582 189.728 8.28858 189.728H33.6877C35.8648 189.728 37.8 191.178 38.2838 193.352L39.7351 200.361C40.4608 203.261 38.2837 206.16 35.1391 206.16Z" fill="#DAD1D1"/>
<path d="M233.735 221.385H106.014L109.642 201.327C110.852 194.802 113.512 189.002 117.141 183.927C120.769 179.094 125.365 175.227 130.687 172.569C136.251 169.669 142.54 167.977 149.313 167.977H187.775C196.483 167.977 204.466 170.636 211.239 174.986C213.416 176.435 215.351 177.885 217.044 179.577C223.817 185.86 228.655 194.318 230.59 203.985L233.735 221.385Z" fill="black"/>
<path d="M748.732 220.177L743.894 220.418L739.057 220.66L732.041 221.143H621.253L624.156 204.469L624.881 201.085C627.058 188.519 635.041 178.127 645.684 172.569C650.522 169.911 656.086 168.219 661.892 167.978C662.617 167.978 663.585 167.978 664.31 167.978H702.772C711.238 167.978 719.221 170.394 725.994 174.744C736.154 181.027 743.411 191.419 745.588 203.985L748.732 220.177Z" fill="black"/>
<g opacity="0.75">
<path opacity="0.75" d="M561.505 51.4967L519.898 106.112H552.796L594.645 51.4967H561.505Z" fill="white"/>
<path opacity="0.75" d="M546.505 51.497L505.383 106.112H515.784L557.149 51.497H546.505Z" fill="white"/>
</g>
<path d="M204.947 210.993C204.947 230.326 189.224 246.034 169.872 246.034C150.52 246.034 134.797 230.326 134.797 210.993C134.797 191.66 150.52 175.952 169.872 175.952C189.224 176.194 204.947 191.66 204.947 210.993Z" fill="#DAD1D1"/>
<path d="M211.236 174.986C204.463 170.636 196.238 167.977 187.772 167.977H149.31C142.537 167.977 136.248 169.669 130.684 172.569C121.008 182.477 114.961 196.01 114.961 210.993C114.961 214.618 115.203 218.001 115.929 221.384C120.766 246.759 143.021 265.85 169.871 266.092C196.722 266.092 218.976 247.001 223.814 221.384C224.54 218.001 224.782 214.618 224.782 211.235C224.782 197.46 219.702 184.652 211.236 174.986ZM137.699 221.384C136.732 218.001 136.006 214.618 136.006 210.993C136.006 192.385 151.245 177.16 169.871 177.16C188.497 177.16 203.737 192.385 203.737 210.993C203.737 214.618 203.253 218.001 202.044 221.143C197.689 234.676 184.869 244.584 169.871 244.584C154.632 244.826 142.053 234.918 137.699 221.384Z" fill="black"/>
<path d="M195.513 210.993C195.513 225.009 184.143 236.609 169.872 236.609C155.842 236.609 144.23 225.251 144.23 210.993C144.23 196.976 155.6 185.377 169.872 185.377C183.902 185.618 195.513 196.976 195.513 210.993Z" fill="white"/>
<path d="M185.353 210.993C185.353 219.451 178.338 226.46 169.872 226.46C161.406 226.46 154.391 219.451 154.391 210.993C154.391 202.535 161.164 195.527 169.872 195.527C178.338 195.769 185.353 202.535 185.353 210.993Z" fill="#DAD1D1"/>
<path opacity="0.5" d="M156.566 183.444C151.245 186.102 146.649 190.21 143.504 195.285L169.871 210.993L156.566 183.444Z" fill="white"/>
<path opacity="0.5" d="M169.871 210.993L183.417 239.026C188.739 236.368 193.335 232.259 196.48 226.943L169.871 210.993Z" fill="white"/>
<path d="M720.189 210.993C720.189 230.326 704.466 246.034 685.114 246.034C665.762 246.034 650.039 230.326 650.039 210.993C650.039 191.66 665.762 175.952 685.114 175.952C704.466 176.194 720.189 191.66 720.189 210.993Z" fill="#DAD1D1"/>
<path d="M726.236 174.986C719.463 170.636 711.48 168.219 703.014 168.219H664.552C657.779 168.219 651.49 169.911 645.684 172.811C636.009 182.719 630.203 196.252 630.203 210.993C630.203 214.618 630.445 218.001 631.171 221.385C636.009 246.759 658.263 265.85 685.114 266.092C712.206 266.092 734.46 246.759 739.298 220.901C739.782 217.76 740.266 214.377 740.266 211.235C740.024 197.219 734.944 184.652 726.236 174.986ZM652.941 221.385C651.974 218.001 651.248 214.618 651.248 210.993C651.248 192.385 666.488 177.161 685.114 177.161C703.74 177.161 718.979 192.385 718.979 210.993C718.979 214.618 718.495 218.001 717.286 221.143C712.932 234.676 700.111 244.584 685.114 244.584C669.874 244.826 657.295 234.918 652.941 221.385Z" fill="black"/>
<path d="M710.513 210.993C710.513 225.01 699.144 236.609 684.872 236.609C670.842 236.609 659.231 225.251 659.231 210.993C659.231 196.977 670.6 185.377 684.872 185.377C699.144 185.619 710.513 196.977 710.513 210.993Z" fill="white"/>
<path d="M700.354 210.993C700.354 219.451 693.339 226.46 684.873 226.46C676.407 226.46 669.392 219.451 669.392 210.993C669.392 202.535 676.407 195.527 684.873 195.527C693.581 195.769 700.354 202.535 700.354 210.993Z" fill="#DAD1D1"/>
<path opacity="0.5" d="M671.808 183.444C666.486 186.102 661.89 190.211 658.745 195.286L685.112 210.994L671.808 183.444Z" fill="white"/>
<path opacity="0.5" d="M685.113 210.993L698.659 239.026C703.981 236.368 708.577 232.26 711.722 226.943L685.113 210.993Z" fill="white"/>
<path d="M485.791 138.978L485.549 142.845L489.903 185.377H613.754C622.946 168.219 638.669 155.17 658.021 149.37V138.978H485.791Z" fill="white"/>
<path d="M294.449 145.503L300.013 185.619H475.388L471.034 143.087L471.276 138.979H296.143L294.449 145.503Z" fill="#F9B233"/>
<path d="M424.591 146.953H407.658V163.87H424.591V146.953Z" fill="black"/>
<path d="M407.657 163.87H390.725V180.786H407.657V163.87Z" fill="black"/>
<path d="M390.968 146.953H374.035V163.87H390.968V146.953Z" fill="black"/>
<path d="M374.032 163.87H357.1V180.786H374.032V163.87Z" fill="black"/>
<path d="M357.103 146.953H340.17V163.869H357.103V146.953Z" fill="black"/>
<path opacity="0.3" d="M117.138 183.927C113.268 188.76 110.607 194.801 109.64 201.326L106.011 221.384H91.4973L37.5545 214.376C31.2652 213.651 25.7016 210.509 21.5893 205.918H21.1055C21.3474 208.334 19.6542 210.268 17.2352 210.509L7.55934 210.751C5.14038 210.751 2.9633 209.059 2.47951 206.643L0.0605469 190.693C0.0605469 190.21 0.0605469 189.726 0.0605469 189.243L117.138 183.927Z" fill="#F9B233"/>
<path opacity="0.3" d="M661.891 168.219C656.085 168.461 650.522 170.153 645.684 172.811C635.04 178.369 627.058 188.761 624.881 201.327L621.252 221.385H233.734L230.589 203.985C228.896 194.319 224.058 185.861 217.043 179.577L661.649 160.245L661.891 168.219Z" fill="#F9B233"/>
<path opacity="0.3" d="M885.886 189.485C886.128 194.319 881.774 197.944 877.178 198.185L867.26 198.669C861.939 207.127 852.746 213.168 841.861 213.893L748.973 220.418L746.07 204.227C743.893 191.902 736.636 181.511 726.476 174.986C719.703 170.636 711.721 168.219 703.254 168.219H664.793C663.825 168.219 663.099 168.219 662.374 168.219L662.132 160.244L873.791 151.061L875.727 165.803C876.21 169.911 875.001 173.536 873.308 173.777H872.098L872.582 177.402H876.21C881.29 177.402 885.644 181.269 886.128 186.344C885.644 187.31 885.886 188.519 885.886 189.485Z" fill="#F9B233"/>
<path d="M473.696 109.737H308.239C307.514 109.737 306.788 109.254 306.788 108.529C306.546 107.804 306.788 107.079 307.514 106.596L308.239 106.112C308.481 105.871 308.965 105.629 309.207 105.387L380.566 50.53C383.227 48.5967 386.372 47.3884 389.517 47.3884H478.051C478.534 47.3884 479.018 47.6301 479.26 47.8718C479.502 48.1134 479.744 48.5968 479.744 49.0801L475.632 107.804C475.148 109.254 474.422 109.737 473.696 109.737ZM313.077 106.596H472.003L475.874 51.0134H389.033C386.372 51.0134 383.953 51.98 382.018 53.43L313.077 106.596Z" fill="#F9B233"/>
<path d="M332.669 84.8458L331.459 85.0875C327.589 85.5708 324.444 88.4707 323.477 92.0957L322.025 97.6539L312.35 106.595L313.317 109.012L323.235 109.979C325.654 113.604 330.008 115.778 334.604 115.053L336.297 114.812L332.669 84.8458Z" fill="#F9B233"/>
</svg>
