<svg width="98" height="268" viewBox="0 0 98 268" fill="none" xmlns="http://www.w3.org/2000/svg">
<path d="M96.8826 163.683C96.6407 165.133 96.1569 167.066 95.1893 168.999C95.1893 168.999 94.4636 170.449 93.0122 172.624C92.7703 173.107 92.2865 173.832 91.8027 174.557C90.1095 177.457 87.6905 181.324 85.2715 185.432C83.0944 189.057 80.9174 192.924 78.4984 197.032C74.6281 203.798 70.5158 211.048 67.1292 217.573C63.5008 224.581 60.598 230.381 59.3886 234.248C57.9372 238.839 61.8075 249.472 62.7751 251.889C63.017 252.131 63.017 252.372 63.017 252.372C64.4684 254.547 66.4036 256.48 68.3387 258.414C71.2415 261.555 73.4186 263.73 70.2739 263.972L67.8549 263.005L63.5008 261.314L52.1317 256.964C50.1965 256.239 48.7451 254.547 48.2613 252.614L46.568 246.331L43.9072 253.581L39.7949 251.889C43.4234 242.706 39.7949 239.323 48.987 229.898C51.6479 227.239 55.0344 207.182 59.1467 191.715C60.598 185.915 62.2913 180.841 63.9846 177.457C65.6779 174.074 67.3711 171.416 69.3063 168.757C69.5482 168.274 70.032 167.791 70.2739 167.307C72.9348 163.683 75.5956 160.783 77.2889 158.849C78.9822 157.158 79.9498 156.433 79.9498 156.433C88.4162 153.533 98.092 154.983 96.8826 163.683Z" fill="#F0A073"/>
<path d="M48.5007 229.898C48.5007 229.898 48.9845 229.898 49.2264 230.14C51.6453 231.59 53.0967 234.248 53.3386 236.906L54.0643 243.914C54.3062 247.056 56.4833 249.714 59.386 250.681L62.7726 251.889C62.7726 252.131 62.7726 252.131 62.7726 252.131C66.8848 257.931 74.8674 263.247 69.7876 263.489L51.6453 256.481C49.7102 255.756 48.2588 254.064 47.775 252.131L46.0817 245.848L43.4208 253.097L39.3086 251.406C42.937 242.706 39.3086 239.081 48.5007 229.898Z" fill="#C21E1D"/>
<path d="M23.8264 115.109L61.8041 134.2C61.8041 134.2 60.1108 140.966 59.6271 140.966C47.2903 138.792 22.1331 131.3 16.0857 127.192C8.82877 122.6 15.36 110.276 23.8264 115.109Z" fill="#456F96"/>
<path d="M41.4839 10.9524C40.5163 8.29414 40.0325 5.15253 37.8555 3.4609C43.9029 3.21923 49.7084 7.56914 51.6436 13.1274C52.3693 15.544 52.6112 18.2022 54.0625 20.1355C48.4989 19.8939 43.4191 16.269 41.4839 10.9524Z" fill="#21201D"/>
<path d="M39.5494 37.5351L38.8237 41.1601L37.8562 45.0266L36.8886 49.6182L35.921 54.2097L34.7115 60.7346L17.2949 48.4099L23.8261 23.5188L39.5494 37.5351Z" fill="#FFAE80"/>
<path d="M34.4693 54.2096C40.0329 77.1674 51.1601 76.4424 52.6115 89.2505C53.5791 98.6753 43.6614 102.3 43.6614 102.3C40.7586 115.592 38.5815 127.191 39.5491 135.891C39.5491 135.891 11.2472 130.575 9.31204 130.091C13.9081 116.8 5.68359 102.3 5.68359 77.8924C5.68359 64.8427 17.7784 46.7181 17.7784 46.7181C17.7784 46.7181 33.7436 50.5847 34.4693 54.2096Z" fill="#FFAE80"/>
<path d="M53.3375 89.2508C53.3375 89.7341 53.3375 90.4591 53.3375 90.9424C53.0956 99.1589 43.6617 102.3 43.6617 102.3C43.6617 103.025 43.6617 103.509 43.6617 104.234C43.6617 104.959 43.6617 105.442 43.6617 105.925C43.6617 107.859 43.4198 109.792 43.1779 111.725C42.936 115.592 42.4522 118.975 41.9684 122.117C41.4846 125.983 40.7589 129.85 40.517 133.233C40.517 133.716 40.517 134.2 40.2751 134.683C40.2751 134.683 39.5494 134.683 38.3399 134.441C35.6791 133.958 30.3573 133.233 25.0356 132.508C24.7937 132.508 24.3099 132.508 24.068 132.267C17.053 131.3 10.2799 130.333 9.55423 130.092C9.79613 129.125 10.2799 128.158 10.2799 127.192C10.5218 126.708 10.5218 126.225 10.5218 125.742C10.7637 123.567 11.0056 121.392 10.7637 119.217C10.7637 118.492 10.7637 117.767 10.7637 117.042C10.5218 113.175 9.55422 108.825 8.82853 104.234C7.86095 99.1589 6.89336 93.6007 6.40957 87.0758C6.40957 86.1092 6.16767 85.1425 6.16767 84.1759C6.16767 82.2426 5.92578 80.0676 5.92578 77.8927C5.92578 65.0846 13.9084 53.2432 14.3922 52.5182C14.3922 52.5182 17.053 53.4849 19.9558 54.4515C19.9558 54.4515 32.7763 57.8348 45.113 74.5094C48.9834 79.3426 52.6118 82.4843 53.3375 89.2508Z" fill="#5589B9"/>
<path opacity="0.4" d="M37.8579 45.0261L36.8903 49.6177L35.9227 54.2092C33.7457 52.7592 30.3591 50.101 29.3915 48.651C26.4888 44.3011 25.5212 39.7095 25.2793 34.393C27.6983 38.5012 32.5362 41.8845 36.6484 44.3011C37.1322 44.7844 37.616 44.7844 37.8579 45.0261Z" fill="#FFAE80"/>
<path d="M51.645 29.3187C49.7098 26.6604 48.5004 25.2104 48.0166 23.0355C54.3059 -7.89716 -9.07101 2.2526 14.8767 34.8769L20.9242 34.1519C24.0688 41.8851 29.1486 46.7183 39.0664 48.4099C42.4529 48.1683 45.3557 48.4099 47.7747 45.9933C49.226 43.8184 49.9517 40.4351 49.7098 35.3602C49.7098 34.3936 50.1936 33.4269 51.1612 32.9436C51.8869 32.2186 52.8545 31.0103 51.645 29.3187Z" fill="#FFAE80"/>
<path d="M17.2959 48.4097C15.3607 45.7514 4.23349 38.2599 3.99159 23.5186C3.2659 -6.93076 45.8397 -3.0642 45.8397 10.4688C45.8397 10.4688 45.5978 8.2939 39.3085 18.6853C35.6801 24.7269 29.3908 25.4518 27.4556 33.6683C23.8271 48.4097 17.2959 48.4097 17.2959 48.4097Z" fill="#21201D"/>
<path d="M95.4275 267.355L76.0758 264.939C74.1406 264.697 72.2054 263.489 71.2379 261.797L68.0932 256.239L67.8513 258.414L67.3675 263.006V263.972L63.0134 263.489C63.0134 262.764 63.2553 262.039 63.2553 261.314C63.4972 257.447 62.7715 254.789 62.7715 251.889C62.7715 248.748 63.2553 245.364 66.6418 239.806C67.8513 237.631 67.6094 228.206 67.3675 217.573C67.1256 211.048 66.8837 204.04 67.1256 197.999C67.1256 192.924 67.6094 188.574 68.3351 185.432C68.8189 183.741 69.3027 181.807 69.7865 180.357C70.5122 178.182 71.2378 176.249 71.9635 174.316C72.4473 173.108 72.9311 171.899 73.4149 170.691C74.6244 168.033 75.8339 166.099 76.5596 164.408C77.7691 162.474 78.4948 161.266 78.4948 161.266C86.4773 156.191 96.1532 154.983 97.1208 163.683C97.3627 165.133 97.1208 167.066 96.8789 169.241C96.8789 169.241 96.637 170.449 95.9113 172.141C95.6694 173.107 95.1856 174.074 94.9437 175.282C93.9761 178.182 93.0085 182.049 91.5572 186.399C90.5896 189.299 89.622 192.682 88.8963 196.065C84.0584 212.982 78.7367 233.04 78.2529 241.256C77.7691 246.814 86.2354 258.172 86.2354 258.172C91.3153 262.764 100.265 265.906 95.4275 267.355Z" fill="#FFAE80"/>
<path d="M66.3994 239.805C66.3994 239.805 66.8832 239.805 67.367 240.047C70.0279 241.013 71.9631 242.947 72.9306 245.605L75.3496 252.372C76.3172 255.271 78.9781 257.446 82.1227 257.688L85.7512 257.93C85.7512 258.171 85.9931 258.171 85.9931 258.171C91.3148 262.763 100.507 265.904 95.6689 267.596L76.3172 265.18C74.382 264.938 72.4469 263.73 71.4793 262.038L68.3346 256.48L67.367 264.213L63.0129 263.73C64.2224 253.58 59.8682 251.163 66.3994 239.805Z" fill="#EA4A49"/>
<path d="M30.6012 30.5269C31.3269 33.6685 31.8107 35.6018 29.8755 36.0851C27.6985 36.5685 24.07 34.3935 23.3443 31.2519C22.6186 28.1103 24.3119 25.9353 26.489 25.452C28.666 24.9687 29.8755 27.3853 30.6012 30.5269Z" fill="#FFAE80"/>
<path d="M29.8723 35.1185C30.1142 35.8435 29.6304 36.8101 28.6629 37.0517C27.9372 37.2934 26.9696 36.8101 26.7277 35.8435C26.4858 35.1185 26.9696 34.1519 27.9372 33.9102C28.9047 33.9102 29.6304 34.3935 29.8723 35.1185Z" fill="white"/>
<path opacity="0.3" d="M53.3378 90.9424C53.0959 99.1589 43.9038 102.3 43.9038 102.3C43.9038 103.025 43.9038 103.509 43.9038 104.234C43.9038 104.717 43.9038 105.442 43.9038 105.925C43.9038 107.859 43.6619 109.792 43.6619 111.725C43.1781 115.592 42.9362 118.975 42.4524 122.117C41.9686 125.983 41.243 129.85 41.0011 133.233L38.824 132.75L24.3102 129.85L11.4897 127.192C11.2478 126.708 11.0059 126.225 10.764 125.742C11.0059 123.567 11.2478 121.392 11.0059 119.217C11.0059 118.492 11.0059 117.767 11.0059 117.042C10.764 113.175 9.79641 108.825 9.07072 104.234C8.10313 99.1589 7.13555 93.6007 6.65175 87.0758C6.65175 86.1092 6.40986 85.1425 6.40986 84.1759C6.40986 82.2426 6.16797 80.0676 6.16797 77.8927C6.16797 65.0846 14.1506 53.2432 14.6343 52.5182C6.40986 74.7511 18.0209 79.5843 30.5995 83.4509L38.824 99.1589C44.3876 98.6756 49.7093 95.5339 53.3378 90.9424Z" fill="#456F96"/>
<path opacity="0.5" d="M80.9159 146.282C80.9159 146.282 41.4868 149.666 24.7959 132.266C20.1999 127.674 13.9106 128.158 11.0078 127.191L23.8283 129.849L38.3421 132.749C41.4868 133.233 59.1452 136.858 80.9159 146.282Z" fill="#EA4A49"/>
<path d="M71.4793 136.133L84.0579 139.757L89.6215 146.041L87.2026 154.499L81.6389 155.707C80.4295 154.499 80.9133 153.291 82.6065 152.807L79.22 148.216C75.5915 148.457 72.9307 145.074 70.5117 143.141L71.4793 136.133Z" fill="#FFAE80"/>
<path d="M38.3407 112.692L71.4805 136.133C71.4805 136.133 70.7548 143.383 70.5129 143.383C57.9343 139.758 35.438 130.575 29.6324 125.742C22.6174 120.184 30.8419 107.859 38.3407 112.692Z" fill="#5589B9"/>
<path d="M97.1215 171.898C96.3958 176.248 94.9444 181.081 93.2511 186.639C92.7673 186.639 92.5254 186.64 92.0416 186.398C91.7997 186.398 91.5578 186.398 91.3159 186.398C89.3808 186.156 87.2037 185.673 85.2685 185.431C79.9468 184.223 74.6251 182.531 69.3034 180.356C67.3682 179.631 65.433 178.665 63.4978 177.698C60.837 176.49 58.1761 174.798 55.5153 173.348C55.5153 173.348 24.0687 173.831 11.0063 170.69C5.68456 169.482 1.81423 165.132 0.846642 159.815C-0.120945 154.499 -0.604745 150.39 1.33043 144.349C1.81422 142.415 2.78181 140.24 3.74939 137.824C5.20077 134.441 7.37783 131.057 10.2806 127.432H11.2482L24.0687 130.091L38.5825 132.991C41.7271 133.474 79.7049 142.899 92.2835 153.048C93.2511 153.773 94.2187 154.74 94.9444 155.465C95.912 156.673 96.6377 157.882 97.1215 159.09C98.3309 162.473 98.089 166.823 97.1215 171.898Z" fill="#EA4A49"/>
<path d="M28.181 71.6092L41.2434 117.042C44.63 126.225 30.8419 132.991 26.7296 121.15L11.2483 76.6841C6.89415 61.2178 24.3107 59.0428 28.181 71.6092Z" fill="#5589B9"/>
<path opacity="0.5" d="M92.0416 186.399C91.7997 186.399 91.5578 186.399 91.3159 186.399C89.3807 186.157 87.2037 185.673 85.2685 185.432C79.9468 184.223 74.6251 182.532 69.3033 180.357C67.3682 179.632 65.433 178.665 63.4978 177.699C60.837 176.49 58.1761 174.799 55.5152 173.349C55.5152 173.349 24.0687 173.832 11.0063 170.69C5.68456 169.482 1.81423 165.132 0.846641 159.816C-0.120945 154.499 -0.604745 150.391 1.33043 144.349C6.41025 161.024 10.0387 176.49 60.1113 163.682C70.029 178.665 92.0416 186.399 92.0416 186.399Z" fill="#EA4A49"/>
</svg>
