<svg width="100" height="52" viewBox="0 0 100 52" fill="none" xmlns="http://www.w3.org/2000/svg">
<path fill-rule="evenodd" clip-rule="evenodd" d="M0 0H18.1129C31.1202 0 40.4058 12.3713 40.4058 24.0356V27.7332C40.4058 39.3974 31.1202 51.7689 18.1129 51.7689H0V0ZM37.6192 24.0356C37.6192 13.5132 29.2167 2.77333 18.1129 2.77333H2.78661V48.9956H18.1129C29.2167 48.9956 37.6192 38.2557 37.6192 27.7333V24.0356Z" fill="#1E0606"/>
<path d="M46.4435 0H49.2301V49.2267H64.092V52H46.4435V0Z" fill="#1E0606"/>
<path d="M67.8074 0V51.7689H70.5941V27.3833L71.278 26.7025L96.0884 51.7689H100L73.2485 24.7414L98.1084 0H94.1675L70.5941 23.4612V0H67.8074Z" fill="#1E0606"/>
</svg>
