<svg width="59" height="59" viewBox="0 0 59 59" fill="none">
<path d="M29.4888 2.00822L29.5 2.00828L29.5112 2.00822C34.9773 1.97747 37.4821 2.03118 41.5072 2.19984C44.4816 2.373 45.8509 2.63683 48.0301 3.42781C50.1216 4.2757 51.0492 4.89777 52.6102 6.38983C54.1022 7.95079 54.7243 8.87837 55.5722 10.9698C56.3632 13.1491 56.627 14.5183 56.8001 17.4926C56.9688 21.5179 57.0225 24.0227 56.9918 29.4888L56.9917 29.5L56.9918 29.5112C57.0225 34.9773 56.9688 37.4821 56.8001 41.5074C56.627 44.4817 56.3632 45.8509 55.5722 48.0302C54.7243 50.1216 54.1022 51.0492 52.6102 52.6102C51.0492 54.1022 50.1216 54.7243 48.0302 55.5722C45.8509 56.3632 44.4817 56.627 41.5074 56.8001C37.4821 56.9688 34.9773 57.0225 29.5112 56.9918L29.5 56.9917L29.4888 56.9918C24.0227 57.0225 21.5179 56.9688 17.4926 56.8001C14.5183 56.627 13.1491 56.3632 10.9698 55.5722C8.87837 54.7243 7.95079 54.1022 6.38983 52.6102C4.89777 51.0492 4.2757 50.1216 3.42781 48.0301C2.63683 45.8509 2.373 44.4816 2.19984 41.5072C2.03118 37.4821 1.97747 34.9773 2.00822 29.5112L2.00828 29.5L2.00822 29.4888C1.97747 24.0227 2.03118 21.5179 2.19984 17.4928C2.373 14.5184 2.63683 13.1491 3.42782 10.9698C4.2757 8.87837 4.89777 7.95079 6.38983 6.38983C7.95079 4.89777 8.87837 4.2757 10.9698 3.42782C13.1491 2.63683 14.5184 2.373 17.4928 2.19984C21.5179 2.03118 24.0227 1.97747 29.4888 2.00822Z" stroke="#2C3036" stroke-width="4" stroke-linecap="square"/>
<circle cx="29.5" cy="29.5" r="12.5" stroke="#2C3036" stroke-width="4" stroke-linecap="square"/>
<circle cx="45.5" cy="13.5" r="3.5" fill="#2C3036"/>
</svg>
